<svg xmlns="http://www.w3.org/2000/svg" width="1920" height="1052.906" viewBox="0 0 1920 1052.906">
  <g id="Group_247" data-name="Group 247" transform="translate(155.495 259.609)">
    <path id="Path_154" class="bloop" data-name="Path 154" d="M509.861,621.8C482.206,789.076,361.06,510.755,87.76,433.75-133.807,371.32,195.577,265.992,213.769,153.309c10.136-62.782,315.07-6.614,403.375,160.486C698.673,468.071,435.094,572.166,509.861,621.8Z" transform="translate(707.982 37.08)" fill="#f73802" opacity="0.64"/>
    <path id="Path_157" class="bloop" data-name="Path 157" d="M498.443,590.611c-27.655,167.278-148.8-111.043-422.1-188.048C-145.224,340.133,184.16,234.8,202.352,122.122,212.488,59.34,354.837-90.746,443.143,76.354,524.671,230.63,423.677,540.979,498.443,590.611Z" transform="translate(1121.288 258.573) rotate(-90)" fill="#f73802" opacity="0.64"/>
    <path id="Path_158" class="bloop" data-name="Path 158" d="M509.861,621.8C482.206,789.076,361.06,510.755,87.76,433.75-133.807,371.32,195.577,265.992,213.769,153.309,223.906,90.527,366.255-59.559,454.56,107.541,536.089,261.817,435.094,572.166,509.861,621.8Z" transform="translate(-166.912 -290.796)" fill="#f73802" opacity="0.64"/>
    <path id="Path_156" class="bloop" data-name="Path 156" d="M76.343,402.563C-145.224,340.133,184.16,234.8,202.352,122.122,212.488,59.34,354.837-90.746,443.143,76.354,524.671,230.63,349.643,479.568,76.343,402.563Z" transform="translate(-155.495 793.297) rotate(-90)" fill="#f73802" opacity="0.64"/>
  </g>
</svg>
