<svg xmlns="http://www.w3.org/2000/svg" viewBox="0 0 89.089 79.261">
  <g id="heart" transform="translate(-865 -790)">
    <path id="heart-2" data-name="heart" d="M44.545,79.261A5.224,5.224,0,0,1,41.1,77.967c-3.6-3.147-7.069-6.1-10.13-8.713l-.016-.014C21.979,61.592,14.229,54.986,8.836,48.479,2.808,41.205,0,34.308,0,26.774A27.845,27.845,0,0,1,7.068,7.757,23.957,23.957,0,0,1,24.888,0a22.409,22.409,0,0,1,14,4.832,28.639,28.639,0,0,1,5.659,5.909A28.641,28.641,0,0,1,50.2,4.832,22.409,22.409,0,0,1,64.2,0a23.958,23.958,0,0,1,17.82,7.757,27.844,27.844,0,0,1,7.067,19.017c0,7.534-2.807,14.431-8.835,21.7-5.393,6.507-13.143,13.112-22.117,20.76-3.067,2.613-6.542,5.575-10.149,8.729a5.228,5.228,0,0,1-3.443,1.293ZM24.888,5.219A18.8,18.8,0,0,0,10.9,11.294a22.651,22.651,0,0,0-5.686,15.48c0,6.337,2.355,12,7.636,18.376,5.1,6.159,12.7,12.628,21.485,20.119l.016.014c3.073,2.619,6.556,5.588,10.182,8.758,3.647-3.176,7.136-6.15,10.215-8.773,8.789-7.491,16.38-13.959,21.484-20.118,5.28-6.371,7.635-12.039,7.635-18.376a22.651,22.651,0,0,0-5.686-15.48A18.794,18.794,0,0,0,64.2,5.219,17.308,17.308,0,0,0,53.4,8.96a25.324,25.324,0,0,0-6.022,6.968,3.294,3.294,0,0,1-5.659,0A25.3,25.3,0,0,0,35.693,8.96,17.308,17.308,0,0,0,24.888,5.219Zm0,0" transform="translate(865 790)"/>
  </g>
</svg>
