<svg xmlns="http://www.w3.org/2000/svg" fill="#a31934" viewBox="0 0 55.189 49.073">
  <path id="heart-fill" d="M38.326,30a12.356,12.356,0,0,0-7.717,2.667,17.579,17.579,0,0,0-4.515,5.43,17.578,17.578,0,0,0-4.515-5.43A12.356,12.356,0,0,0,13.863,30C5.96,30,0,36.464,0,45.036c0,9.261,7.435,15.6,18.691,25.189,1.911,1.629,4.078,3.475,6.33,5.445a1.631,1.631,0,0,0,2.147,0c2.252-1.97,4.419-3.816,6.331-5.446,11.255-9.591,18.69-15.927,18.69-25.188C52.189,36.464,46.229,30,38.326,30Z" transform="translate(1.5 -28.5)"  stroke="rgba(214,214,214,0.7)" stroke-width="3"/>
</svg>
