<svg xmlns="http://www.w3.org/2000/svg" xmlns:xlink="http://www.w3.org/1999/xlink"  viewBox="0 0 165.633 165.633">
  <defs>
    <filter id="javascript" x="0" y="0" filterUnits="userSpaceOnUse">
      <feOffset dx="10" dy="10" input="SourceAlpha"/>
      <feGaussianBlur stdDeviation="5" result="blur"/>
      <feFlood flood-opacity="0.161"/>
      <feComposite operator="in" in2="blur"/>
      <feComposite in="SourceGraphic"/>
    </filter>
  </defs>
  <g transform="matrix(1, 0, 0, 1, 0, 0)" filter="url(#javascript)">
    <path id="javascript-2" data-name="javascript" d="M0,0H135.633V135.633H0ZM124.522,103.285C123.533,97.1,119.5,91.9,107.551,87.048c-4.159-1.95-8.782-3.306-10.156-6.443a6.673,6.673,0,0,1-.26-3.984c.848-3.651,5.171-4.747,8.562-3.73a9.194,9.194,0,0,1,5.516,5.086c5.844-3.82,5.844-3.82,9.918-6.358a23.325,23.325,0,0,0-3.312-4.408c-3.56-3.984-8.3-6.019-16.016-5.844l-3.984.5a18.217,18.217,0,0,0-9.664,5.68c-6.443,7.3-4.583,20.012,3.216,25.267,7.714,5.764,18.994,7.03,20.435,12.461,1.356,6.612-4.917,8.731-11.111,7.968-4.583-1.017-7.121-3.312-9.918-7.55l-10.342,5.94c1.187,2.713,2.543,3.894,4.578,6.267,9.833,9.924,34.417,9.415,38.831-5.674a19.127,19.127,0,0,0,.418-9.325l.26.379ZM73.756,62.34h-12.7c0,10.952-.051,21.837-.051,32.806,0,6.963.356,13.354-.78,15.321-1.865,3.894-6.669,3.4-8.85,2.713-2.238-1.108-3.374-2.634-4.691-4.832a4.849,4.849,0,0,0-.718-1.108L35.649,113.6a19.989,19.989,0,0,0,7.482,8.573c4.832,2.882,11.325,3.815,18.124,2.289,4.425-1.277,8.24-3.905,10.235-7.974,2.882-5.256,2.272-11.7,2.244-18.909.068-11.608,0-23.222,0-34.92l.023-.316Z" transform="translate(5 5)"/>
  </g>
</svg>
