<svg xmlns="http://www.w3.org/2000/svg" viewBox="0 0 70.31 70.31">
  <path id="javascript" d="M0,0H70.31V70.31H0ZM64.551,53.541c-.513-3.208-2.6-5.9-8.8-8.417-2.156-1.011-4.553-1.714-5.264-3.34a3.459,3.459,0,0,1-.135-2.065c.439-1.893,2.681-2.461,4.438-1.934a4.766,4.766,0,0,1,2.859,2.637c3.029-1.98,3.029-1.98,5.141-3.3a12.092,12.092,0,0,0-1.717-2.285c-1.846-2.065-4.3-3.12-8.3-3.029l-2.065.261a9.444,9.444,0,0,0-5.01,2.944c-3.34,3.782-2.376,10.374,1.667,13.1,4,2.988,9.846,3.644,10.593,6.46.7,3.428-2.549,4.526-5.76,4.131-2.376-.527-3.691-1.717-5.141-3.914L41.7,57.871A11.847,11.847,0,0,0,44.07,61.12C49.167,66.264,61.911,66,64.2,58.179a9.915,9.915,0,0,0,.217-4.834l.135.2ZM38.234,32.316H31.648c0,5.678-.026,11.32-.026,17.006,0,3.609.185,6.923-.4,7.942-.967,2.018-3.457,1.761-4.588,1.406a5.653,5.653,0,0,1-2.432-2.5,2.513,2.513,0,0,0-.372-.574l-5.347,3.3a10.362,10.362,0,0,0,3.879,4.444,12.893,12.893,0,0,0,9.4,1.186,8.229,8.229,0,0,0,5.305-4.134c1.494-2.725,1.178-6.064,1.163-9.8.035-6.017,0-12.038,0-18.1l.012-.164Z"/>
</svg>
