<svg xmlns="http://www.w3.org/2000/svg" xmlns:xlink="http://www.w3.org/1999/xlink" viewBox="0 0 1190.764 509.976">
  <defs>
    <filter id="Path_89" x="285.424" y="295.071" width="190.515" height="190.515" filterUnits="userSpaceOnUse">
      <feOffset dx="-20" dy="20" input="SourceAlpha"/>
      <feGaussianBlur stdDeviation="15" result="blur"/>
      <feFlood flood-opacity="0.161"/>
      <feComposite operator="in" in2="blur"/>
      <feComposite in="SourceGraphic"/>
    </filter>
    <filter id="Rectangle_50" x="0" y="186.957" width="240.878" height="240.878" filterUnits="userSpaceOnUse">
      <feOffset dx="20" dy="20" input="SourceAlpha"/>
      <feGaussianBlur stdDeviation="15" result="blur-2"/>
      <feFlood flood-opacity="0.161"/>
      <feComposite operator="in" in2="blur-2"/>
      <feComposite in="SourceGraphic"/>
    </filter>
    <filter id="Rectangle_48" x="295.006" y="0" width="217.124" height="217.124" filterUnits="userSpaceOnUse">
      <feOffset dx="-20" dy="-19" input="SourceAlpha"/>
      <feGaussianBlur stdDeviation="15" result="blur-3"/>
      <feFlood flood-opacity="0.161"/>
      <feComposite operator="in" in2="blur-3"/>
      <feComposite in="SourceGraphic"/>
    </filter>
    <filter id="Path_107" x="998.781" y="150.759" width="191.983" height="191.983" filterUnits="userSpaceOnUse">
      <feOffset dx="30" dy="20" input="SourceAlpha"/>
      <feGaussianBlur stdDeviation="15" result="blur-4"/>
      <feFlood flood-opacity="0.161"/>
      <feComposite operator="in" in2="blur-4"/>
      <feComposite in="SourceGraphic"/>
    </filter>
    <filter id="Path_89-2" x="686.177" y="12.455" width="203.647" height="203.647" filterUnits="userSpaceOnUse">
      <feOffset dx="-20" dy="20" input="SourceAlpha"/>
      <feGaussianBlur stdDeviation="15" result="blur-5"/>
      <feFlood flood-opacity="0.161"/>
      <feComposite operator="in" in2="blur-5"/>
      <feComposite in="SourceGraphic"/>
    </filter>
    <filter id="Rectangle_52" x="667.828" y="237.98" width="271.996" height="271.996" filterUnits="userSpaceOnUse">
      <feOffset dx="30" dy="-19" input="SourceAlpha"/>
      <feGaussianBlur stdDeviation="15" result="blur-6"/>
      <feFlood flood-opacity="0.161"/>
      <feComposite operator="in" in2="blur-6"/>
      <feComposite in="SourceGraphic"/>
    </filter>
    <filter id="Technologies_On_Cards" x="192.115" y="175.396" width="781" height="137" filterUnits="userSpaceOnUse">
      <feOffset dx="10" dy="10" input="SourceAlpha"/>
      <feGaussianBlur stdDeviation="5" result="blur-7"/>
      <feFlood flood-opacity="0.161"/>
      <feComposite operator="in" in2="blur-7"/>
      <feComposite in="SourceGraphic"/>
    </filter>
  </defs>
  <g id="Technologies-2" transform="translate(136.156 -4340.154)">
    <g id="Box-6" transform="translate(214.268 4660.225)">
      <g transform="matrix(1, 0, 0, 1, -350.42, -320.07)" filter="url(#Path_89)">
        <path id="Path_89-3" data-name="Path 89" d="M9.055,0h82.4a9.055,9.055,0,0,1,9.055,9.055v82.4a9.055,9.055,0,0,1-9.055,9.055H9.055A9.055,9.055,0,0,1,0,91.46V9.055A9.055,9.055,0,0,1,9.055,0Z" transform="translate(350.42 320.07)" fill="#a01934"/>
      </g>
      <path id="typescript" d="M3,3V60.763H60.763V3ZM37.229,33.33h-6.8V54.347H24.954V33.33H18.3V28.674H37.226Zm1.066,19.817v-5.62a12.6,12.6,0,0,0,6.752,2.314c3.684,0,3.539-2.407,3.539-2.738,0-3.495-10.433-3.495-10.433-11.235,0-10.527,15.2-6.374,15.2-6.374l-.19,5a11.094,11.094,0,0,0-5.43-1.7c-2.877,0-3.918,1.37-3.918,2.834,0,3.777,10.527,3.4,10.527,11,0,11.7-16.051,6.512-16.051,6.512Z" transform="translate(18.548 18.715)"/>
    </g>
    <g id="Box-5" transform="translate(-111.156 4552.11)">
      <g transform="matrix(1, 0, 0, 1, -25, -211.96)" filter="url(#Rectangle_50)">
        <rect id="Rectangle_50-2" data-name="Rectangle 50" width="150.878" height="150.878" rx="20" transform="translate(25 211.96)" fill="#a01934"/>
      </g>
      <path id="javascript" d="M0,0H81.73V81.73H0ZM75.033,62.238c-.6-3.728-3.02-6.859-10.226-9.783-2.507-1.175-5.293-1.992-6.119-3.881a4.022,4.022,0,0,1-.156-2.4c.511-2.2,3.116-2.861,5.159-2.248a5.54,5.54,0,0,1,3.323,3.065c3.522-2.3,3.522-2.3,5.977-3.831A14.05,14.05,0,0,0,71,40.5c-2.145-2.405-5-3.628-9.651-3.523l-2.4.3A10.978,10.978,0,0,0,53.12,40.7a10.687,10.687,0,0,0,1.938,15.231c4.648,3.473,11.442,4.232,12.314,7.508.821,3.984-2.962,5.261-6.7,4.8-2.757-.613-4.291-2-5.977-4.547l-6.232,3.578a13.775,13.775,0,0,0,2.757,3.776c5.926,5.98,20.739,5.674,23.4-3.414a11.526,11.526,0,0,0,.252-5.618l.156.228ZM44.44,37.566H36.789c0,6.6-.03,13.158-.03,19.768,0,4.2.215,8.048-.47,9.232-1.124,2.346-4.018,2.047-5.332,1.635a6.565,6.565,0,0,1-2.826-2.911,2.922,2.922,0,0,0-.432-.671l-6.216,3.83a12.044,12.044,0,0,0,4.509,5.165,14.984,14.984,0,0,0,10.92,1.379,9.565,9.565,0,0,0,6.171-4.8c1.736-3.167,1.368-7.043,1.354-11.392.041-6.995,0-13.993,0-21.043l.013-.19Z" transform="translate(34.573 34.573)"/>
    </g>
    <g id="Box-4" transform="translate(244.01 4465.174)">
      <g transform="matrix(1, 0, 0, 1, -380.17, -125.02)" filter="url(#Rectangle_48)">
        <rect id="Rectangle_48-2" data-name="Rectangle 48" width="127.124" height="127.124" rx="20" transform="translate(360.01 64)" fill="#a01934"/>
      </g>
      <path id="react" d="M50.331,37.809A7.907,7.907,0,1,1,42.423,29.9a7.907,7.907,0,0,1,7.908,7.909ZM59.7,0C54.935,0,48.707,3.4,42.408,9.273c-6.3-5.847-12.528-9.2-17.285-9.2a7.77,7.77,0,0,0-3.912.983c-4.863,2.8-5.952,11.545-3.442,22.512C7,26.892,0,32.207,0,37.809c0,5.624,7.038,10.954,17.836,14.254-2.49,11.01-1.379,19.765,3.5,22.565a7.6,7.6,0,0,0,3.894.973c4.757,0,10.989-3.4,17.288-9.281,6.3,5.85,12.528,9.207,17.285,9.207a7.764,7.764,0,0,0,3.912-.973c4.86-2.8,5.952-11.541,3.442-22.512,10.728-3.3,17.731-8.623,17.731-14.232S77.844,26.856,67.046,23.549c2.493-11,1.382-19.761-3.489-22.566A7.667,7.667,0,0,0,59.692,0Zm-.018,3.855v.021a4.021,4.021,0,0,1,1.974.449c2.356,1.351,3.38,6.49,2.582,13.1-.191,1.627-.5,3.342-.882,5.093A83.032,83.032,0,0,0,52.367,20.63a84.5,84.5,0,0,0-7.2-8.655C50.8,6.741,56.086,3.868,59.686,3.858Zm-34.555.073c3.579,0,8.891,2.857,14.537,8.064a81.33,81.33,0,0,0-7.145,8.637,80.4,80.4,0,0,0-11.01,1.9c-.4-1.733-.69-3.409-.9-5.022C19.792,10.9,20.8,5.768,23.131,4.4a5.18,5.18,0,0,1,1.991-.467ZM42.39,14.716a70.315,70.315,0,0,1,4.81,5.532c-1.556-.073-3.148-.121-4.757-.121-1.627,0-3.233.035-4.811.121a67.2,67.2,0,0,1,4.757-5.535ZM42.443,24c2.617,0,5.224.121,7.788.329q2.154,3.086,4.184,6.578,1.974,3.4,3.6,6.883c-1.09,2.317-2.285,4.633-3.583,6.9C53.09,47.026,51.7,49.247,50.26,51.3c-2.572.22-5.185.347-7.816.347s-5.224-.123-7.788-.329c-1.436-2.057-2.837-4.262-4.184-6.578q-1.974-3.4-3.6-6.883c1.072-2.324,2.285-4.644,3.583-6.911,1.344-2.334,2.734-4.548,4.173-6.607C37.2,24.117,39.812,24,42.443,24Zm-12.858.9c-.849,1.334-1.7,2.7-2.49,4.1-.8,1.379-1.539,2.766-2.246,4.152-.938-2.32-1.733-4.633-2.391-6.886,2.264-.53,4.651-1,7.127-1.365Zm25.678,0c2.458.367,4.828.813,7.1,1.369C61.722,28.5,60.925,30.8,60.024,33.1c-.708-1.379-1.45-2.769-2.264-4.152s-1.644-2.738-2.494-4.053ZM66.1,27.29c1.712.53,3.339,1.121,4.863,1.763,6.127,2.614,10.085,6.035,10.085,8.752-.018,2.719-3.979,6.154-10.105,8.754-1.486.636-3.112,1.209-4.792,1.744a84.762,84.762,0,0,0-3.894-10.54,82.352,82.352,0,0,0,3.838-10.484Zm-47.381.01a82.512,82.512,0,0,0,3.894,10.54,81.857,81.857,0,0,0-3.841,10.484,50.213,50.213,0,0,1-4.846-1.769C7.8,43.949,3.838,40.522,3.838,37.806S7.8,31.645,13.925,29.048c1.485-.636,3.112-1.209,4.8-1.747Zm41.3,15.136c.938,2.324,1.733,4.64,2.391,6.89-2.264.555-4.655,1.029-7.127,1.379.849-1.326,1.7-2.7,2.494-4.1.8-1.379,1.539-2.787,2.249-4.173Zm-35.175.073c.708,1.386,1.45,2.769,2.264,4.156s1.644,2.73,2.494,4.041c-2.458-.361-4.828-.813-7.095-1.365.636-2.229,1.436-4.534,2.334-6.833Zm38.532,10.56a48.87,48.87,0,0,1,.9,5.033c.813,6.607-.191,11.742-2.525,13.115a3.791,3.791,0,0,1-1.991.453c-3.579,0-8.891-2.855-14.537-8.064a81.576,81.576,0,0,0,7.145-8.63,80.9,80.9,0,0,0,11.01-1.91ZM21.535,53.1a84.231,84.231,0,0,0,10.989,1.882,84.064,84.064,0,0,0,7.2,8.651c-5.642,5.245-10.936,8.117-14.537,8.117a4.188,4.188,0,0,1-1.956-.467c-2.359-1.343-3.381-6.486-2.585-13.1.191-1.627.5-3.339.882-5.086Zm16.128,2.264c1.556.073,3.148.121,4.757.121,1.627,0,3.233-.035,4.81-.121a67.787,67.787,0,0,1-4.757,5.539,71.7,71.7,0,0,1-4.811-5.539Z" transform="translate(0.9 -35.255)"/>
    </g>
    <g id="Box-3" transform="translate(877.855 4515.913)">
      <g transform="matrix(1, 0, 0, 1, -1014.01, -175.76)" filter="url(#Path_107)">
        <path id="Path_107-2" data-name="Path 107" d="M10.2,0H91.785a10.2,10.2,0,0,1,10.2,10.2V91.785a10.2,10.2,0,0,1-10.2,10.2H10.2A10.2,10.2,0,0,1,0,91.785V10.2A10.2,10.2,0,0,1,10.2,0Z" transform="translate(1013.78 175.76)" fill="#a01934"/>
      </g>
      <path id="html5" d="M0,0H59.752L54.318,61.354,29.808,68.288,5.445,61.351ZM20.005,27.742l-.66-7.734,28.621.009.655-7.46-37.49-.009,1.984,22.791H39.081l-.927,9.748-8.278,2.288L21.468,45.07l-.536-6H13.51l.937,11.868L29.875,55.06l15.306-4.106L47.3,27.744H20.005Z" transform="translate(20.886 16.848)"/>
    </g>
    <g id="Box-2" transform="translate(615.021 4377.609)">
      <g transform="matrix(1, 0, 0, 1, -751.18, -37.46)" filter="url(#Path_89-2)">
        <path id="Path_89-4" data-name="Path 89" d="M10.238,0h93.171a10.238,10.238,0,0,1,10.238,10.238v93.171a10.238,10.238,0,0,1-10.238,10.238H10.238A10.238,10.238,0,0,1,0,103.409V10.238A10.238,10.238,0,0,1,10.238,0Z" transform="translate(751.18 37.46)" fill="#a01934"/>
      </g>
      <path id="vue" d="M75.968,0H44.506L37.984,11.238,31.464,0H0L37.984,65.777ZM37.984,39.472,16.333,1.963H30.356l7.628,13.231,7.63-13.231H59.636Z" transform="translate(19.034 24.088)"/>
    </g>
    <g id="Box-1" transform="translate(546.672 4642.134)">
      <g transform="matrix(1, 0, 0, 1, -682.83, -301.98)" filter="url(#Rectangle_52)">
        <rect id="Rectangle_52-2" data-name="Rectangle 52" width="181.996" height="181.996" rx="20" transform="translate(682.83 301.98)" fill="#a01934"/>
      </g>
      <path id="css3" d="M0,0H94.968L86.328,97.514,47.38,108.535,8.641,97.51ZM77.286,19.957l-59.6-.013L18.639,31.8l45.789.009L63.274,44.094H33.252L34.337,55.73H62.3L60.64,71.66,47.481,75.3l-13.37-3.668-.849-9.542h-11.8l1.309,17.438,24.717,7.707,24.3-6.923,5.505-60.338Z" transform="translate(43.431 36.975)"/>
    </g>
    <g id="Title" transform="translate(-240.891 186.5)">
      <g transform="matrix(1, 0, 0, 1, 104.74, 4153.65)" filter="url(#Technologies_On_Cards)">
        <text id="Technologies_On_Cards-2" data-name="Technologies On Cards" transform="translate(197.12 259.4)" fill="#fff" font-size="72" font-family="Kanit-SemiBold, Kanit" font-weight="600"><tspan x="0" y="0">Technologies On Cards</tspan></text>
      </g>
      <line id="Line_8" data-name="Line 8" x2="752.19" transform="translate(300.5 4429.5)" fill="none" stroke="#a31934" stroke-width="10"/>
    </g>
  </g>
</svg>
