<svg xmlns="http://www.w3.org/2000/svg" xmlns:xlink="http://www.w3.org/1999/xlink" viewBox="0 0 1171.071 535.494">
  <defs>
    <filter id="Path_89" x="667.353" y="285.054" width="240.465" height="240.465" filterUnits="userSpaceOnUse">
      <feOffset dx="-20" dy="20" input="SourceAlpha"/>
      <feGaussianBlur stdDeviation="15" result="blur"/>
      <feFlood flood-opacity="0.161"/>
      <feComposite operator="in" in2="blur"/>
      <feComposite in="SourceGraphic"/>
    </filter>
    <filter id="Rectangle_50" x="763.239" y="29.496" width="224.912" height="224.912" filterUnits="userSpaceOnUse">
      <feOffset dx="20" dy="20" input="SourceAlpha"/>
      <feGaussianBlur stdDeviation="15" result="blur-2"/>
      <feFlood flood-opacity="0.161"/>
      <feComposite operator="in" in2="blur-2"/>
      <feComposite in="SourceGraphic"/>
    </filter>
    <filter id="Rectangle_48" x="284.818" y="0" width="205.904" height="205.904" filterUnits="userSpaceOnUse">
      <feOffset dx="-20" dy="-19" input="SourceAlpha"/>
      <feGaussianBlur stdDeviation="15" result="blur-3"/>
      <feFlood flood-opacity="0.161"/>
      <feComposite operator="in" in2="blur-3"/>
      <feComposite in="SourceGraphic"/>
    </filter>
    <filter id="Path_107" x="0" y="109.355" width="200.037" height="200.037" filterUnits="userSpaceOnUse">
      <feOffset dx="30" dy="20" input="SourceAlpha"/>
      <feGaussianBlur stdDeviation="15" result="blur-4"/>
      <feFlood flood-opacity="0.161"/>
      <feComposite operator="in" in2="blur-4"/>
      <feComposite in="SourceGraphic"/>
    </filter>
    <filter id="Path_89-2" x="175.631" y="305.054" width="230.44" height="230.44" filterUnits="userSpaceOnUse">
      <feOffset dx="-20" dy="20" input="SourceAlpha"/>
      <feGaussianBlur stdDeviation="15" result="blur-5"/>
      <feFlood flood-opacity="0.161"/>
      <feComposite operator="in" in2="blur-5"/>
      <feComposite in="SourceGraphic"/>
    </filter>
    <filter id="Rectangle_52" x="972.963" y="171.067" width="198.107" height="198.107" filterUnits="userSpaceOnUse">
      <feOffset dx="30" dy="-19" input="SourceAlpha"/>
      <feGaussianBlur stdDeviation="15" result="blur-6"/>
      <feFlood flood-opacity="0.161"/>
      <feComposite operator="in" in2="blur-6"/>
      <feComposite in="SourceGraphic"/>
    </filter>
    <filter id="Technologies_On_Cards" x="176.25" y="185.893" width="781" height="137" filterUnits="userSpaceOnUse">
      <feOffset dx="10" dy="10" input="SourceAlpha"/>
      <feGaussianBlur stdDeviation="5" result="blur-7"/>
      <feFlood flood-opacity="0.161"/>
      <feComposite operator="in" in2="blur-7"/>
      <feComposite in="SourceGraphic"/>
    </filter>
  </defs>
  <g id="Technologies-1" transform="translate(120.291 -4329.658)">
    <g id="Box-6" transform="translate(612.062 4639.712)">
      <g transform="matrix(1, 0, 0, 1, -732.35, -310.05)" filter="url(#Path_89)">
        <path id="Path_89-3" data-name="Path 89" d="M13.556,0H136.909a13.556,13.556,0,0,1,13.556,13.556V136.909a13.556,13.556,0,0,1-13.556,13.556H13.556A13.556,13.556,0,0,1,0,136.908V13.556A13.556,13.556,0,0,1,13.556,0Z" transform="translate(732.35 310.05)" fill="#a01934"/>
      </g>
      <path id="typescript" d="M3,3V89.467H89.467V3ZM54.238,48.4H44.063V79.862h-8.2V48.4H25.9v-6.97H54.234Zm1.595,29.664V69.654A18.868,18.868,0,0,0,65.94,73.118c5.514,0,5.3-3.6,5.3-4.1,0-5.231-15.617-5.231-15.617-16.818,0-15.76,22.756-9.541,22.756-9.541l-.283,7.493a16.6,16.6,0,0,0-8.128-2.546c-4.306,0-5.866,2.051-5.866,4.242,0,5.654,15.76,5.087,15.76,16.468,0,17.521-24.027,9.748-24.027,9.748Z" transform="translate(29.256 29.506)"/>
    </g>
    <g id="Box-5" transform="translate(667.948 4384.154)">
      <g transform="matrix(1, 0, 0, 1, -788.24, -54.5)" filter="url(#Rectangle_50)">
        <rect id="Rectangle_50-2" data-name="Rectangle 50" width="134.912" height="134.912" rx="20" transform="translate(788.24 54.5)" fill="#a01934"/>
      </g>
      <path id="javascript" d="M0,0H73.081V73.081H0ZM67.094,55.651c-.533-3.333-2.7-6.133-9.144-8.748-2.241-1.051-4.733-1.781-5.472-3.471a3.6,3.6,0,0,1-.14-2.147c.457-1.967,2.786-2.558,4.613-2.01a4.954,4.954,0,0,1,2.972,2.74c3.148-2.059,3.148-2.059,5.344-3.426a12.568,12.568,0,0,0-1.785-2.375c-1.919-2.151-4.473-3.244-8.629-3.15l-2.147.271A9.816,9.816,0,0,0,47.5,36.4c-3.471,3.933-2.467,10.783,1.733,13.614,4.156,3.105,10.231,3.784,11.011,6.714.733,3.562-2.649,4.7-5.986,4.294-2.467-.548-3.836-1.785-5.344-4.066l-5.572,3.2a12.318,12.318,0,0,0,2.467,3.377c5.3,5.347,18.544,5.073,20.923-3.057a10.306,10.306,0,0,0,.225-5.024l.14.2ZM39.741,33.59H32.9c0,5.9-.027,11.766-.027,17.676,0,3.752.192,7.2-.42,8.255-1,2.1-3.593,1.83-4.768,1.462a5.875,5.875,0,0,1-2.527-2.6,2.612,2.612,0,0,0-.387-.6l-5.557,3.426a10.77,10.77,0,0,0,4.032,4.619,13.4,13.4,0,0,0,9.765,1.233,8.553,8.553,0,0,0,5.514-4.3c1.553-2.832,1.223-6.3,1.211-10.186.037-6.254,0-12.512,0-18.816l.012-.171Z" transform="translate(30.916 30.916)"/>
    </g>
    <g id="Box-4" transform="translate(249.687 4454.678)">
      <g transform="matrix(1, 0, 0, 1, -369.98, -125.02)" filter="url(#Rectangle_48)">
        <rect id="Rectangle_48-2" data-name="Rectangle 48" width="115.904" height="115.904" rx="20" transform="translate(349.82 64)" fill="#a01934"/>
      </g>
      <path id="react" d="M45.889,34.472a7.209,7.209,0,1,1-7.21-7.21A7.209,7.209,0,0,1,45.889,34.472ZM54.427,0C50.086,0,44.408,3.1,38.665,8.455,32.924,3.124,27.243.067,22.9.067a7.084,7.084,0,0,0-3.567.9C14.9,3.52,13.912,11.489,16.2,21.488,6.385,24.518,0,29.364,0,34.472c0,5.127,6.417,9.987,16.262,13C13.992,57.507,15,65.489,19.448,68.042A6.925,6.925,0,0,0,23,68.929c4.337,0,10.019-3.1,15.762-8.462C44.5,65.8,50.183,68.861,54.52,68.861a7.079,7.079,0,0,0,3.567-.887c4.431-2.554,5.426-10.522,3.138-20.525,9.781-3.005,16.166-7.862,16.166-12.976s-6.417-9.987-16.262-13C63.4,11.441,62.388,3.453,57.947.9A6.99,6.99,0,0,0,54.424,0Zm-.016,3.515v.019a3.666,3.666,0,0,1,1.8.409c2.148,1.232,3.082,5.917,2.354,11.945-.174,1.483-.458,3.047-.8,4.644A75.7,75.7,0,0,0,47.741,18.81a77.038,77.038,0,0,0-6.565-7.891c5.134-4.772,9.955-7.391,13.237-7.4Zm-31.505.067c3.263,0,8.106,2.605,13.254,7.352a74.15,74.15,0,0,0-6.514,7.875,73.3,73.3,0,0,0-10.039,1.735c-.361-1.58-.629-3.108-.819-4.579-.742-6.024.174-10.706,2.3-11.954A4.723,4.723,0,0,1,22.9,3.586Zm15.743,9.836a64.109,64.109,0,0,1,4.386,5.044c-1.419-.067-2.87-.11-4.337-.11-1.483,0-2.948.032-4.386.11a61.265,61.265,0,0,1,4.337-5.046Zm.048,8.468c2.386,0,4.763.11,7.1.3q1.964,2.814,3.815,6,1.8,3.1,3.283,6.275c-.993,2.112-2.083,4.224-3.266,6.288-1.225,2.128-2.493,4.153-3.805,6.029-2.345.2-4.728.316-7.127.316s-4.763-.113-7.1-.3c-1.309-1.876-2.587-3.885-3.815-6q-1.8-3.1-3.283-6.275c.977-2.119,2.083-4.234,3.266-6.3,1.225-2.128,2.493-4.147,3.805-6.024,2.345-.206,4.728-.316,7.127-.316ZM26.973,22.7c-.774,1.216-1.548,2.461-2.27,3.741-.726,1.257-1.4,2.522-2.048,3.786-.855-2.116-1.58-4.224-2.18-6.278,2.064-.484,4.241-.912,6.5-1.245Zm23.411,0c2.241.335,4.4.742,6.469,1.248-.58,2.038-1.306,4.134-2.128,6.23-.645-1.257-1.322-2.525-2.064-3.786-.726-1.264-1.5-2.5-2.274-3.7Zm9.877,2.177c1.561.484,3.044,1.022,4.434,1.608,5.586,2.384,9.2,5.5,9.2,7.979-.016,2.479-3.628,5.611-9.213,7.981-1.355.58-2.838,1.1-4.369,1.59a77.281,77.281,0,0,0-3.551-9.61,75.081,75.081,0,0,0,3.5-9.558Zm-43.2.013a75.23,75.23,0,0,0,3.551,9.61,74.63,74.63,0,0,0-3.5,9.558A45.782,45.782,0,0,1,12.7,42.45c-5.586-2.38-9.2-5.5-9.2-7.981s3.611-5.617,9.2-7.985c1.354-.58,2.837-1.1,4.373-1.593Zm37.658,13.8c.855,2.119,1.58,4.23,2.18,6.282-2.064.506-4.244.938-6.5,1.257.774-1.209,1.548-2.457,2.274-3.734.726-1.257,1.4-2.541,2.051-3.805Zm-32.07.067c.645,1.264,1.322,2.525,2.064,3.789s1.5,2.489,2.274,3.685c-2.241-.329-4.4-.742-6.469-1.245.58-2.032,1.309-4.134,2.128-6.23Zm35.131,9.628a44.556,44.556,0,0,1,.819,4.589c.742,6.024-.174,10.706-2.3,11.957a3.457,3.457,0,0,1-1.815.413c-3.263,0-8.106-2.6-13.254-7.352a74.376,74.376,0,0,0,6.514-7.868,73.764,73.764,0,0,0,10.039-1.742Zm-38.148.032a76.794,76.794,0,0,0,10.019,1.716,76.644,76.644,0,0,0,6.565,7.888c-5.144,4.782-9.971,7.4-13.254,7.4A3.819,3.819,0,0,1,21.186,65c-2.15-1.225-3.082-5.914-2.357-11.943.174-1.483.458-3.044.8-4.637Zm14.7,2.064c1.419.067,2.87.11,4.337.11,1.483,0,2.948-.032,4.386-.11a61.806,61.806,0,0,1-4.337,5.05,65.374,65.374,0,0,1-4.386-5.05Z" transform="translate(-0.959 -37.529)"/>
    </g>
    <g id="Box-3" transform="translate(-105.061 4464.013)">
      <g transform="matrix(1, 0, 0, 1, -15.23, -134.36)" filter="url(#Path_107)">
        <path id="Path_107-2" data-name="Path 107" d="M11,0H99.033a11,11,0,0,1,11,11V99.033a11,11,0,0,1-11,11H11a11,11,0,0,1-11-11V11A11,11,0,0,1,11,0Z" transform="translate(15 134.36)" fill="#a01934"/>
      </g>
      <path id="html5" d="M0,0H64.47L58.607,66.2,32.165,73.68,5.875,66.2ZM21.585,29.933l-.713-8.344,30.881.009.706-8.049-40.45-.009,2.141,24.59H42.167l-1,10.518-8.932,2.468-9.072-2.487-.577-6.478h-8.01l1.011,12.8,16.646,4.452,16.514-4.43,2.284-25.042H21.585Z" transform="translate(22.553 18.178)"/>
    </g>
    <g id="Box-2" transform="translate(120.34 4659.712)">
      <g transform="matrix(1, 0, 0, 1, -240.63, -330.05)" filter="url(#Path_89-2)">
        <path id="Path_89-4" data-name="Path 89" d="M12.652,0H127.788A12.652,12.652,0,0,1,140.44,12.652V127.788a12.652,12.652,0,0,1-12.652,12.652H12.652A12.652,12.652,0,0,1,0,127.788V12.652A12.652,12.652,0,0,1,12.652,0Z" transform="translate(240.63 330.05)" fill="#a01934"/>
      </g>
      <path id="vue" d="M93.878,0H55L46.939,13.886,38.881,0H0L46.939,81.283ZM46.939,48.778,20.184,2.425H37.512l9.427,16.35,9.428-16.35H73.695Z" transform="translate(23.522 29.767)"/>
    </g>
    <g id="Box-1" transform="translate(867.672 4564.725)">
      <g transform="matrix(1, 0, 0, 1, -987.96, -235.07)" filter="url(#Rectangle_52)">
        <rect id="Rectangle_52-2" data-name="Rectangle 52" width="108.107" height="108.107" rx="20" transform="translate(987.96 235.07)" fill="#a01934"/>
      </g>
      <path id="css3" d="M0,0H56.412L51.279,57.924,28.144,64.471,5.133,57.922ZM45.909,11.854,10.5,11.847l.572,7.044,27.2.006-.685,7.3H19.752L20.4,33.1H37l-.983,9.463L28.2,44.727l-7.941-2.176-.5-5.668H12.746l.779,10.356,14.68,4.578,14.433-4.11,3.27-35.845Z" transform="translate(25.798 21.964)"/>
    </g>
    <g id="Title" transform="translate(-240.891 186.5)">
      <g transform="matrix(1, 0, 0, 1, 120.6, 4143.16)" filter="url(#Technologies_On_Cards)">
        <text id="Technologies_On_Cards-2" data-name="Technologies On Cards" transform="translate(181.25 269.89)" fill="#fff" font-size="72" font-family="Kanit-SemiBold, Kanit" font-weight="600"><tspan x="0" y="0">Technologies On Cards</tspan></text>
      </g>
      <line id="Line_8" data-name="Line 8" x2="752.19" transform="translate(300.5 4429.5)" fill="none" stroke="#a31934" stroke-width="10"/>
    </g>
  </g>
</svg>
