<svg xmlns="http://www.w3.org/2000/svg" width="78.945" height="70.31" viewBox="0 0 78.945 70.31">
  <path id="react" d="M46.808,35.163a7.353,7.353,0,1,1-7.355-7.355A7.355,7.355,0,0,1,46.808,35.163ZM55.518,0C51.09,0,45.3,3.158,39.439,8.625,33.584,3.187,27.789.066,23.364.066A7.227,7.227,0,0,0,19.726.98c-4.523,2.608-5.536,10.736-3.2,20.937C6.513,25.009,0,29.953,0,35.163c0,5.23,6.546,10.187,16.588,13.256-2.316,10.24-1.283,18.381,3.25,20.986a7.064,7.064,0,0,0,3.625.9c4.424,0,10.22-3.158,16.078-8.631,5.855,5.441,11.651,8.562,16.075,8.562a7.221,7.221,0,0,0,3.638-.9c4.52-2.605,5.536-10.733,3.2-20.937,9.977-3.066,16.49-8.019,16.49-13.236S72.4,24.976,62.356,21.9c2.316-10.23,1.283-18.378-3.25-20.986A7.13,7.13,0,0,0,55.515,0ZM55.5,3.585v.02a3.74,3.74,0,0,1,1.835.418c2.191,1.257,3.141,6.036,2.4,12.184-.178,1.513-.467,3.108-.822,4.737A77.222,77.222,0,0,0,48.7,19.187,78.586,78.586,0,0,0,42,11.138C47.239,6.27,52.156,3.6,55.5,3.589Zm-32.137.066c3.329,0,8.269,2.658,13.519,7.5a75.637,75.637,0,0,0-6.645,8.033A74.767,74.767,0,0,0,20,20.953c-.368-1.612-.641-3.171-.835-4.671-.757-6.145.178-10.921,2.349-12.194a4.818,4.818,0,0,1,1.852-.434ZM39.423,13.684A65.4,65.4,0,0,1,43.9,18.828c-1.447-.066-2.928-.112-4.424-.112-1.513,0-3.01.033-4.474.112a62.492,62.492,0,0,1,4.424-5.148Zm.049,8.638c2.434,0,4.858.112,7.243.306q2,2.872,3.891,6.118,1.835,3.158,3.349,6.4c-1.013,2.155-2.125,4.309-3.332,6.414-1.25,2.171-2.543,4.237-3.881,6.151-2.395.207-4.822.322-7.269.322s-4.858-.115-7.243-.306c-1.335-1.914-2.638-3.96-3.891-6.118q-1.835-3.158-3.349-6.4c1-2.161,2.125-4.319,3.332-6.427,1.25-2.171,2.543-4.23,3.881-6.145,2.395-.211,4.822-.322,7.269-.322Zm-11.957.835c-.789,1.24-1.579,2.51-2.316,3.816-.74,1.283-1.431,2.572-2.089,3.862-.872-2.158-1.612-4.309-2.224-6.4,2.105-.493,4.326-.931,6.628-1.27Zm23.881,0c2.286.339,4.49.757,6.6,1.273-.592,2.079-1.332,4.217-2.171,6.358-.658-1.283-1.349-2.576-2.105-3.862-.74-1.289-1.53-2.546-2.319-3.77Zm10.075,2.22c1.592.493,3.105,1.043,4.523,1.638,5.7,2.434,9.381,5.618,9.381,8.144-.016,2.526-3.7,5.723-9.4,8.141-1.382.592-2.895,1.125-4.457,1.622a78.832,78.832,0,0,0-3.618-9.8,76.586,76.586,0,0,0,3.569-9.75Zm-44.061.013a76.736,76.736,0,0,0,3.618,9.8,76.121,76.121,0,0,0-3.572,9.75A46.7,46.7,0,0,1,12.95,43.3c-5.7-2.424-9.381-5.612-9.381-8.138s3.684-5.73,9.381-8.144C14.332,26.423,15.845,25.891,17.411,25.391ZM55.824,39.469c.872,2.161,1.612,4.316,2.224,6.408-2.105.516-4.329.954-6.631,1.283.789-1.234,1.579-2.506,2.319-3.809.74-1.283,1.431-2.592,2.092-3.881Zm-32.713.066c.658,1.289,1.349,2.576,2.105,3.865s1.53,2.539,2.319,3.76c-2.286-.335-4.49-.757-6.6-1.27.592-2.072,1.335-4.217,2.171-6.358ZM58.945,49.36a45.452,45.452,0,0,1,.835,4.681c.757,6.145-.178,10.921-2.349,12.2a3.526,3.526,0,0,1-1.852.421c-3.329,0-8.269-2.655-13.519-7.5a75.869,75.869,0,0,0,6.644-8.026,75.246,75.246,0,0,0,10.24-1.776Zm-38.913.033a78.336,78.336,0,0,0,10.22,1.75,78.181,78.181,0,0,0,6.694,8.046c-5.247,4.878-10.171,7.549-13.519,7.549a3.9,3.9,0,0,1-1.819-.434c-2.191-1.25-3.141-6.033-2.4-12.181.178-1.513.467-3.105.822-4.73Zm15,2.105c1.447.066,2.928.112,4.424.112,1.513,0,3.01-.033,4.474-.112a63.045,63.045,0,0,1-4.424,5.148A66.683,66.683,0,0,1,35.032,51.5Z"/>
</svg>
