<svg xmlns="http://www.w3.org/2000/svg" width="39.743" height="33.155" viewBox="0 0 39.743 33.155">
  <path id="Path_72" class='twitter' data-name="Path 72" d="M40.243,4.117a33.638,33.638,0,0,1-5.737,1.948c-2.144-2.489-5.322-2.626-8.375-1.45a7.73,7.73,0,0,0-5.01,7.352v1.967a17.8,17.8,0,0,1-15.3-7.87s-8,14.624,7.649,21.641C9.893,30.159,6.323,31.814,2,31.641c6.325,3.547,13.219,4.767,19.187,2.985a21.358,21.358,0,0,0,14.63-15.232,27.968,27.968,0,0,0,.95-7.384c0-.49,2.887-5.454,3.476-7.9Z" transform="translate(-1.25 -3.092)" fill="#fafafa" stroke="#221f63" stroke-linecap="round" stroke-linejoin="round" stroke-width="1.5"/>
</svg>
