<svg xmlns="http://www.w3.org/2000/svg" xmlns:xlink="http://www.w3.org/1999/xlink" width="290" height="290" viewBox="0 0 290 290">
  <defs>
    <filter id="background" x="0" y="0" width="290" height="290" filterUnits="userSpaceOnUse">
      <feOffset dx="30" dy="20" input="SourceAlpha"/>
      <feGaussianBlur stdDeviation="15" result="blur"/>
      <feFlood flood-opacity="0.161"/>
      <feComposite operator="in" in2="blur"/>
      <feComposite in="SourceGraphic"/>
    </filter>
  </defs>
  <g id="Group_176" data-name="Group 176" transform="translate(15.23 25)">
    <g transform="matrix(1, 0, 0, 1, -15.23, -25)" filter="url(#background)">
      <path id="background-2" data-name="background" d="M20,0H180a20,20,0,0,1,20,20V180a20,20,0,0,1-20,20H20A20,20,0,0,1,0,180V20A20,20,0,0,1,20,0Z" transform="translate(15 25)" fill="#a01934"/>
    </g>
    <path id="icon" d="M0,0H117.179L106.521,120.321l-48.06,13.6-47.787-13.6ZM39.233,54.4,37.938,39.238l56.129.017L95.35,24.624l-73.522-.017,3.895,44.7H76.646L74.827,88.42,58.59,92.906,42.1,88.386,41.052,76.613H26.494l1.841,23.274,30.255,8.091L88.6,99.926,92.756,54.41H39.233Z" transform="translate(40.45 33.303)"/>
  </g>
</svg>
