<svg xmlns="http://www.w3.org/2000/svg"  viewBox="0 0 781.95 1153.24">
  <path id="Subtraction_3" data-name="Subtraction 3" d="M599.022,2441.24c-36.476,0-71.934-1.445-105.389-4.3-21.871-1.864-43.285-4.358-63.649-7.412-21.843-3.277-43.063-7.286-63.07-11.918l14.534-23.382a34.442,34.442,0,0,1,29.241-16.664H595.9a34.44,34.44,0,0,1,29.241,16.664l28.579,45.976c-18.405.686-36.792,1.033-54.651,1.033Zm75.711-1.958h0l-34.5-55.5c-9.834-15.822-26.409-25.268-44.338-25.268h-7.08v-12.242c0-17.442-13.443-31.633-29.967-31.633H447.736c-16.524,0-29.967,14.19-29.967,31.633v12.242h-7.081c-17.929,0-34.5,9.446-44.337,25.268L348.18,2413.01c-13.27-3.456-26.267-7.275-38.631-11.352-12.834-4.231-25.353-8.861-37.209-13.759-12.278-5.073-24.188-10.576-35.4-16.357-11.588-5.976-22.758-12.417-33.2-19.146a347.865,347.865,0,0,1-30.608-22.125,309.923,309.923,0,0,1-27.628-25.295,286.237,286.237,0,0,1-24.259-28.656,276.929,276.929,0,0,1-20.5-32.207c-18.462-33.992-30.982-74-37.213-118.907A498.213,498.213,0,0,1,59,2056.37a606.217,606.217,0,0,1,4.681-73.176,706.368,706.368,0,0,1,13.771-76.08,786.706,786.706,0,0,1,22.736-77.548,853.5,853.5,0,0,1,184.773-303.252c11.006-11.6,22.462-22.982,34.051-33.827,11.777-11.021,24.005-21.783,36.345-31.988,12.545-10.374,25.539-20.447,38.621-29.939,13.3-9.653,27.056-18.965,40.878-27.679,14.059-8.864,28.565-17.345,43.117-25.21,14.805-8,30.059-15.582,45.338-22.53,15.545-7.069,31.54-13.677,47.54-19.64,16.282-6.068,33.012-11.633,49.724-16.54,17.01-4.995,34.469-9.446,51.89-13.23,17.727-3.851,35.908-7.118,54.038-9.71,18.441-2.637,37.338-4.649,56.168-5.98,19.15-1.354,38.758-2.04,58.279-2.04l-.819,1133.953-.03.006c-1.127.2-11.5,2.028-28.628,4.435-.114-1.167-.259-2.357-.432-3.538l-33.653-229.519a9.659,9.659,0,0,0-3.081-5.8,8.777,8.777,0,0,0-5.845-2.269,8.653,8.653,0,0,0-1.377.111,9.488,9.488,0,0,0-7.541,10.878L793.2,2425.772c.146,1,.266,2.014.355,3.017-17,2.157-34.592,4.082-52.3,5.721-22.136,2.048-44.514,3.654-66.515,4.772Zm-308.074-369.72H366.3l-56.142.232c-36.435.151-66.923,27.821-72.5,65.793l-29.685,202.266a9.478,9.478,0,0,0,7.543,10.866,8.637,8.637,0,0,0,1.392.113,8.757,8.757,0,0,0,5.838-2.269,9.658,9.658,0,0,0,3.073-5.8L255.508,2138.5c4.207-28.663,27.22-49.549,54.721-49.662l56.154-.232h.086a50.2,50.2,0,0,1,32.739,12.25c.038.022.16.133.364.315l.012.011a65,65,0,0,0,13.645,9.361,67.377,67.377,0,0,0,31.082,7.568h.475c6.952-.041,29.921-.067,58.516-.067s51.563.026,58.514.067a67.189,67.189,0,0,0,17.567-2.351,71.554,71.554,0,0,0,13.773-5.335,70.608,70.608,0,0,0,13.932-9.31l0,0c.171-.149.275-.239.3-.255a50.091,50.091,0,0,1,32.661-12.249h.173l56.144.232c27.5.114,50.514,21,54.721,49.66l2.014,13.73a9.651,9.651,0,0,0,3.074,5.8,8.663,8.663,0,0,0,7.23,2.156,9.476,9.476,0,0,0,7.541-10.866l-2.014-13.73c-5.573-37.972-36.062-65.642-72.5-65.793l-56.131-.232h-.358a67.5,67.5,0,0,0-43.988,16.549c-.006,0-.037.031-.094.081l-.008.007a55.894,55.894,0,0,1-20.469,11.021,46.916,46.916,0,0,1-12.911,1.852c-.189,0-.381,0-.569,0-7-.04-30.012-.066-58.616-.066s-51.613.026-58.617.066c-.215,0-.41,0-.6,0A47.9,47.9,0,0,1,431,2097.229a52.643,52.643,0,0,1-10.258-4.143,50.3,50.3,0,0,1-10-6.877c-.07-.064-.1-.093-.109-.1A67.493,67.493,0,0,0,366.658,2069.561ZM637.3,2251.045c-18.709,0-33.929,16.062-33.929,35.806s15.221,35.806,33.929,35.806,33.927-16.062,33.927-35.806S656.009,2251.045,637.3,2251.045Zm-328.075-57.866c-17.278,0-31.335,14.834-31.335,33.069s14.057,33.069,31.335,33.069h20.418v21.547c0,18.234,14.057,33.068,31.336,33.068s31.335-14.834,31.335-33.068v-21.547h20.416c17.279,0,31.335-14.835,31.335-33.069s-14.057-33.069-31.335-33.069H392.315v-21.547c0-18.234-14.057-33.069-31.335-33.069s-31.336,14.834-31.336,33.069v21.546Zm385.539-2.718c-18.709,0-33.931,16.062-33.931,35.806s15.221,35.805,33.931,35.805,33.929-16.062,33.929-35.805S713.474,2190.46,694.766,2190.46Zm-114.872,0c-18.709,0-33.929,16.062-33.929,35.806s15.221,35.805,33.929,35.805,33.929-16.062,33.929-35.805S598.6,2190.46,579.893,2190.46Zm57.407-60.629c-18.709,0-33.929,16.061-33.929,35.8s15.221,35.806,33.929,35.806,33.927-16.062,33.927-35.806S656.009,2129.831,637.3,2129.831Zm-66.543,228.677H435.826v-12.242c0-6.933,5.344-12.574,11.912-12.574H558.846c6.568,0,11.912,5.641,11.912,12.574v12.241h0Zm66.543-54.894c-8.758,0-15.884-7.52-15.884-16.763s7.126-16.763,15.884-16.763,15.883,7.52,15.883,16.763S646.059,2303.614,637.3,2303.614Zm-276.323-8.725c-7.328,0-13.289-6.292-13.289-14.025v-31.068a9.293,9.293,0,0,0-9.023-9.521h-29.44c-7.328,0-13.289-6.292-13.289-14.026s5.962-14.027,13.289-14.027h29.44a9.292,9.292,0,0,0,9.023-9.521v-31.067c0-7.734,5.962-14.026,13.289-14.026s13.291,6.292,13.291,14.026V2202.7a9.293,9.293,0,0,0,9.023,9.521h29.44c7.328,0,13.289,6.292,13.289,14.027s-5.962,14.026-13.289,14.026h-29.44a9.293,9.293,0,0,0-9.023,9.521v31.068C374.269,2288.6,368.307,2294.889,360.978,2294.889Zm333.788-51.861c-8.757,0-15.882-7.52-15.882-16.761s7.125-16.764,15.882-16.764,15.883,7.52,15.883,16.764S703.523,2243.028,694.766,2243.028Zm-114.872,0c-8.758,0-15.884-7.519-15.884-16.761s7.126-16.764,15.884-16.764,15.885,7.52,15.885,16.764S588.652,2243.028,579.893,2243.028ZM637.3,2182.4c-8.758,0-15.884-7.52-15.884-16.763a17.4,17.4,0,0,1,1.249-6.517,16.813,16.813,0,0,1,3.407-5.328,15.847,15.847,0,0,1,5.05-3.6,15.04,15.04,0,0,1,6.178-1.319c8.758,0,15.883,7.519,15.883,16.76S646.059,2182.4,637.3,2182.4Z" transform="translate(-58.999 -1288)" fill="#a01934"/>
</svg>
