<svg xmlns="http://www.w3.org/2000/svg" viewBox="0 0 1050.328 959.053">
  <g id="Group_124" data-name="Group 124" transform="translate(-166.579 -4994.844)">
    <g id="Group_121" data-name="Group 121" transform="translate(598.706 5337.009)">
      <g id="Ellipse-3" transform="matrix(-0.588, -0.809, 0.809, -0.588, 252.524, 616.888)" fill="#221f63" stroke="#5a0096" stroke-width="20" stroke-dasharray="617 247">
        <circle cx="226" cy="226" r="226" stroke="none"/>
        <circle cx="226" cy="226" r="216" fill="none"/>
      </g>
      <g id="Group_120" data-name="Group 120" transform="translate(219.515 224.037)">
        <text id="Technologies" transform="translate(79.007 145.165)" fill="#fff" font-size="32" font-family="Kanit-SemiBold, Kanit" font-weight="600"><tspan x="-97.408" y="0">Technologies</tspan></text>
        <text id="_5_" data-name="5+" transform="translate(41.007 85)" fill="#fff" font-size="77" font-family="Kanit-Regular, Kanit"><tspan x="0" y="0">10+</tspan></text>
      </g>
    </g>
    <g id="Group_122" data-name="Group 122" transform="translate(325.588 4993.927)">
      <g id="Ellipse-2" transform="matrix(-1, 0.017, -0.017, -1, 575.051, 565.831)" fill="#221f63" stroke="#a01934" stroke-width="20" stroke-dasharray="730 260">
        <circle cx="282.5" cy="282.5" r="282.5" stroke="none"/>
        <circle cx="282.5" cy="282.5" r="272.5" fill="none"/>
      </g>
      <g id="Text" transform="translate(129.346 174.946)">
        <text id="_Cards_Questions_and_Answers" data-name=" Cards
 Questions and Answers" transform="translate(158.295 165.104)" fill="#fff" font-size="32" font-family="Kanit-SemiBold, Kanit" font-weight="600"><tspan x="-45.184" y="0" xml:space="preserve"> Cards</tspan><tspan x="-174.928" y="48" xml:space="preserve"> Questions and Answers</tspan></text>
        <text id="_100_" data-name="100+" transform="translate(58.295 105)" fill="#fff" font-size="95" font-family="Kanit-Regular, Kanit"><tspan x="0" y="0">100+</tspan></text>
      </g>
    </g>
    <g id="Group_123" data-name="Group 123" transform="translate(152.191 5349.329)">
      <g id="Ellipse-1" transform="matrix(0.914, -0.407, 0.407, 0.914, 14.387, 163.712)" fill="#221f63" stroke="#2768ae" stroke-width="20" stroke-dasharray="351 448">
        <circle cx="188.935" cy="188.935" r="188.935" stroke="none"/>
        <circle cx="188.935" cy="188.935" r="178.935" fill="none"/>
      </g>
      <g id="Group_120-2" data-name="Group 120" transform="translate(139.155 186.396)">
        <text id="A_Lot_Of_Knowledge" data-name="A Lot Of
Knowledge" transform="translate(118 53)" fill="#fff" font-size="48" font-family="Kanit-Regular, Kanit"><tspan x="-87.744" y="0">A Lot Of</tspan><tspan x="-118.32" y="72">Knowledge</tspan></text>
      </g>
    </g>
  </g>
</svg>
