<svg xmlns="http://www.w3.org/2000/svg" width="131.27" height="131.27" viewBox="0 0 131.27 131.27">
  <path id="javascript" d="M0,0H131.27V131.27H0ZM120.517,99.962c-.957-5.989-4.857-11.021-16.425-15.714-4.026-1.887-8.5-3.2-9.829-6.235a6.458,6.458,0,0,1-.252-3.856c.82-3.533,5-4.594,8.286-3.61a8.9,8.9,0,0,1,5.338,4.923c5.656-3.7,5.656-3.7,9.6-6.153a22.575,22.575,0,0,0-3.205-4.266c-3.446-3.856-8.035-5.825-15.5-5.656l-3.856.487a17.631,17.631,0,0,0-9.353,5.5c-6.235,7.061-4.436,19.368,3.112,24.454,7.466,5.579,18.383,6.8,19.778,12.06,1.313,6.4-4.759,8.451-10.753,7.712-4.436-.985-6.892-3.205-9.6-7.307l-10.009,5.749c1.149,2.625,2.461,3.769,4.43,6.066,9.517,9.6,33.31,9.112,37.582-5.491a18.512,18.512,0,0,0,.4-9.025l.252.366ZM71.384,60.335h-12.3c0,10.6-.049,21.134-.049,31.751,0,6.739.345,12.925-.755,14.828-1.8,3.769-6.454,3.287-8.565,2.625-2.166-1.072-3.265-2.549-4.54-4.676a4.692,4.692,0,0,0-.695-1.072L34.5,109.944a19.346,19.346,0,0,0,7.242,8.3c4.676,2.789,10.961,3.692,17.541,2.215,4.283-1.236,7.975-3.779,9.905-7.718,2.789-5.087,2.2-11.322,2.171-18.3.066-11.235,0-22.475,0-33.8l.022-.306Z"/>
</svg>
