<svg xmlns="http://www.w3.org/2000/svg" xmlns:xlink="http://www.w3.org/1999/xlink" viewBox="0 0 1152.071 561.146">
  <defs>
    <filter id="Path_89" x="134.353" y="340.047" width="221.099" height="221.099" filterUnits="userSpaceOnUse">
      <feOffset dx="-20" dy="20" input="SourceAlpha"/>
      <feGaussianBlur stdDeviation="15" result="blur"/>
      <feFlood flood-opacity="0.161"/>
      <feComposite operator="in" in2="blur"/>
      <feComposite in="SourceGraphic"/>
    </filter>
    <filter id="Rectangle_50" x="787.25" y="41.925" width="243.92" height="243.92" filterUnits="userSpaceOnUse">
      <feOffset dx="20" dy="20" input="SourceAlpha"/>
      <feGaussianBlur stdDeviation="15" result="blur-2"/>
      <feFlood flood-opacity="0.161"/>
      <feComposite operator="in" in2="blur-2"/>
      <feComposite in="SourceGraphic"/>
    </filter>
    <filter id="Rectangle_48" x="282.818" y="0" width="246.845" height="246.845" filterUnits="userSpaceOnUse">
      <feOffset dx="-20" dy="-19" input="SourceAlpha"/>
      <feGaussianBlur stdDeviation="15" result="blur-3"/>
      <feFlood flood-opacity="0.161"/>
      <feComposite operator="in" in2="blur-3"/>
      <feComposite in="SourceGraphic"/>
    </filter>
    <filter id="Path_107" x="0" y="131.289" width="213.263" height="213.263" filterUnits="userSpaceOnUse">
      <feOffset dx="30" dy="20" input="SourceAlpha"/>
      <feGaussianBlur stdDeviation="15" result="blur-4"/>
      <feFlood flood-opacity="0.161"/>
      <feComposite operator="in" in2="blur-4"/>
      <feComposite in="SourceGraphic"/>
    </filter>
    <filter id="Path_89-2" x="550.133" y="312" width="230.44" height="230.44" filterUnits="userSpaceOnUse">
      <feOffset dx="-20" dy="20" input="SourceAlpha"/>
      <feGaussianBlur stdDeviation="15" result="blur-5"/>
      <feFlood flood-opacity="0.161"/>
      <feComposite operator="in" in2="blur-5"/>
      <feComposite in="SourceGraphic"/>
    </filter>
    <filter id="Rectangle_52" x="908.151" y="255.234" width="243.92" height="243.92" filterUnits="userSpaceOnUse">
      <feOffset dx="30" dy="-19" input="SourceAlpha"/>
      <feGaussianBlur stdDeviation="15" result="blur-6"/>
      <feFlood flood-opacity="0.161"/>
      <feComposite operator="in" in2="blur-6"/>
      <feComposite in="SourceGraphic"/>
    </filter>
    <filter id="Technologies_On_Cards" x="176.25" y="207.826" width="781" height="137" filterUnits="userSpaceOnUse">
      <feOffset dx="10" dy="10" input="SourceAlpha"/>
      <feGaussianBlur stdDeviation="5" result="blur-7"/>
      <feFlood flood-opacity="0.161"/>
      <feComposite operator="in" in2="blur-7"/>
      <feComposite in="SourceGraphic"/>
    </filter>
  </defs>
  <g id="Technologies-4" transform="translate(120.291 -4307.725)">
    <g id="Box-6" transform="translate(79.062 4672.771)">
      <g transform="matrix(1, 0, 0, 1, -199.35, -365.05)" filter="url(#Path_89)">
        <path id="Path_89-3" data-name="Path 89" d="M11.811,0H119.288A11.811,11.811,0,0,1,131.1,11.811V119.288A11.811,11.811,0,0,1,119.288,131.1H11.811A11.811,11.811,0,0,1,0,119.287V11.811A11.811,11.811,0,0,1,11.811,0Z" transform="translate(199.35 365.05)" fill="#a01934"/>
      </g>
      <path id="typescript" d="M3,3V78.338H78.338V3ZM47.643,42.558H38.778V69.969H31.634V42.558H22.953V36.485H47.64ZM49.033,68.4V61.075a16.439,16.439,0,0,0,8.806,3.018c4.8,0,4.616-3.139,4.616-3.57,0-4.558-13.607-4.558-13.607-14.653,0-13.732,19.827-8.313,19.827-8.313l-.247,6.528a14.467,14.467,0,0,0-7.082-2.218c-3.752,0-5.111,1.787-5.111,3.7,0,4.926,13.732,4.433,13.732,14.348,0,15.266-20.935,8.494-20.935,8.494Z" transform="translate(25.104 25.322)"/>
    </g>
    <g id="Box-5" transform="translate(691.959 4374.65)">
      <g transform="matrix(1, 0, 0, 1, -812.25, -66.93)" filter="url(#Rectangle_50)">
        <rect id="Rectangle_50-2" data-name="Rectangle 50" width="153.92" height="153.92" rx="20" transform="translate(812.25 66.93)" fill="#a01934"/>
      </g>
      <path id="javascript" d="M0,0H83.377V83.377H0ZM76.547,63.492c-.608-3.8-3.085-7-10.432-9.981-2.557-1.2-5.4-2.032-6.243-3.96a4.1,4.1,0,0,1-.16-2.449c.521-2.244,3.179-2.918,5.263-2.293a5.652,5.652,0,0,1,3.391,3.127c3.592-2.349,3.592-2.349,6.1-3.908a14.338,14.338,0,0,0-2.036-2.71c-2.189-2.454-5.1-3.7-9.845-3.594l-2.449.31a11.2,11.2,0,0,0-5.941,3.493c-3.96,4.487-2.814,12.3,1.977,15.533,4.742,3.543,11.672,4.318,12.562,7.659.837,4.064-3.022,5.367-6.83,4.9-2.814-.625-4.377-2.036-6.1-4.639l-6.357,3.651a14.054,14.054,0,0,0,2.814,3.853c6.045,6.1,21.157,5.788,23.871-3.488a11.758,11.758,0,0,0,.257-5.732l.16.233ZM45.34,38.322H37.53c0,6.732-.031,13.424-.031,20.167,0,4.28.219,8.209-.479,9.418-1.146,2.393-4.1,2.088-5.44,1.668A6.7,6.7,0,0,1,28.7,66.6a2.98,2.98,0,0,0-.441-.685l-6.34,3.908a12.287,12.287,0,0,0,4.6,5.27,15.287,15.287,0,0,0,11.141,1.407,9.758,9.758,0,0,0,6.291-4.9c1.771-3.231,1.4-7.186,1.381-11.621.042-7.135,0-14.275,0-21.466l.014-.195Z" transform="translate(35.271 35.271)"/>
    </g>
    <g id="Box-4" transform="translate(247.687 4432.745)">
      <g transform="matrix(1, 0, 0, 1, -367.98, -125.02)" filter="url(#Rectangle_48)">
        <rect id="Rectangle_48-2" data-name="Rectangle 48" width="156.845" height="156.845" rx="20" transform="translate(347.82 64)" fill="#a01934"/>
      </g>
      <path id="react" d="M62.1,46.649a9.755,9.755,0,1,1-9.757-9.757A9.755,9.755,0,0,1,62.1,46.649ZM73.652,0c-5.874,0-13.558,4.189-21.33,11.441C44.554,4.228,36.866.091,31,.091A9.587,9.587,0,0,0,26.169,1.3c-6,3.46-7.343,14.244-4.246,27.776C8.64,33.179,0,39.736,0,46.649c0,6.939,8.684,13.515,22.006,17.587-3.072,13.585-1.7,24.386,4.312,27.841a9.371,9.371,0,0,0,4.8,1.2c5.869,0,13.558-4.189,21.33-11.451,7.767,7.218,15.457,11.359,21.326,11.359a9.58,9.58,0,0,0,4.826-1.2c6-3.456,7.343-14.239,4.246-27.776,13.236-4.067,21.876-10.639,21.876-17.56,0-6.939-8.684-13.515-22.006-17.6,3.076-13.572,1.705-24.381-4.3-27.842A9.459,9.459,0,0,0,73.648,0ZM73.63,4.757v.026a4.962,4.962,0,0,1,2.435.554C78.972,7,80.235,13.344,79.251,21.5c-.236,2.007-.62,4.124-1.088,6.284A102.444,102.444,0,0,0,64.6,25.455a104.251,104.251,0,0,0-8.884-10.678c6.947-6.458,13.471-10,17.913-10.015ZM31,4.847c4.416,0,10.969,3.526,17.935,9.949a100.341,100.341,0,0,0-8.815,10.656A99.193,99.193,0,0,0,26.532,27.8c-.489-2.139-.851-4.206-1.109-6.2-1-8.152.236-14.487,3.116-16.176A6.391,6.391,0,0,1,31,4.853Zm21.3,13.31a86.754,86.754,0,0,1,5.935,6.825c-1.92-.091-3.884-.149-5.869-.149-2.007,0-3.989.044-5.935.149A82.905,82.905,0,0,1,52.3,18.153Zm.065,11.46c3.229,0,6.446.149,9.609.406q2.658,3.807,5.163,8.116,2.435,4.189,4.442,8.492c-1.344,2.858-2.819,5.717-4.42,8.51-1.658,2.88-3.373,5.621-5.149,8.159-3.173.272-6.4.428-9.644.428-3.229,0-6.446-.152-9.609-.406-1.771-2.538-3.5-5.258-5.163-8.116q-2.435-4.189-4.442-8.492c1.323-2.867,2.819-5.729,4.42-8.527,1.658-2.88,3.373-5.612,5.149-8.152,3.173-.279,6.4-.428,9.644-.428ZM36.5,30.725c-1.047,1.645-2.1,3.33-3.072,5.062-.982,1.7-1.9,3.412-2.771,5.123-1.157-2.863-2.139-5.717-2.95-8.5C30.5,31.76,33.446,31.18,36.5,30.73Zm31.681,0c3.032.453,5.957,1,8.754,1.689-.785,2.758-1.768,5.594-2.88,8.431-.873-1.7-1.79-3.417-2.793-5.123-.982-1.711-2.029-3.378-3.077-5Zm13.366,2.945c2.112.655,4.119,1.383,6,2.176,7.56,3.225,12.443,7.446,12.443,10.8-.022,3.354-4.909,7.593-12.468,10.8-1.833.785-3.84,1.492-5.912,2.151a104.579,104.579,0,0,0-4.8-13,101.6,101.6,0,0,0,4.735-12.935ZM23.1,33.688a101.8,101.8,0,0,0,4.8,13A100.991,100.991,0,0,0,23.16,59.627a61.954,61.954,0,0,1-5.979-2.182C9.622,54.224,4.735,50,4.735,46.644s4.887-7.6,12.446-10.805c1.832-.785,3.839-1.492,5.917-2.156Zm50.96,18.675c1.157,2.867,2.139,5.725,2.95,8.5-2.793.685-5.743,1.269-8.793,1.7,1.047-1.636,2.1-3.325,3.077-5.053.982-1.7,1.9-3.439,2.775-5.149Zm-43.4.091c.873,1.711,1.79,3.417,2.793,5.127s2.029,3.369,3.077,4.986c-3.032-.445-5.957-1-8.754-1.684.785-2.75,1.771-5.594,2.88-8.431ZM78.2,65.482a60.3,60.3,0,0,1,1.109,6.21c1,8.152-.236,14.487-3.116,16.181a4.678,4.678,0,0,1-2.457.558c-4.416,0-10.969-3.522-17.935-9.949a100.649,100.649,0,0,0,8.815-10.647A99.82,99.82,0,0,0,78.2,65.478Zm-51.623.044a103.92,103.92,0,0,0,13.558,2.322,103.717,103.717,0,0,0,8.884,10.674c-6.96,6.472-13.493,10.015-17.935,10.015a5.167,5.167,0,0,1-2.413-.576c-2.91-1.657-4.171-8-3.189-16.162.236-2.007.62-4.119,1.088-6.275Zm19.9,2.793c1.92.091,3.884.149,5.869.149,2.007,0,3.989-.044,5.935-.149a83.638,83.638,0,0,1-5.869,6.834,88.465,88.465,0,0,1-5.935-6.834Z" transform="translate(5.823 -29.231)"/>
    </g>
    <g id="Box-3" transform="translate(-105.061 4464.013)">
      <g transform="matrix(1, 0, 0, 1, -15.23, -156.29)" filter="url(#Path_107)">
        <path id="Path_107-2" data-name="Path 107" d="M12.327,0h98.609a12.327,12.327,0,0,1,12.327,12.327v98.609a12.327,12.327,0,0,1-12.327,12.327H12.327A12.327,12.327,0,0,1,0,110.936V12.327A12.327,12.327,0,0,1,12.327,0Z" transform="translate(15 156.29)" fill="#a01934"/>
      </g>
      <path id="html5" d="M0,0H72.219L65.651,74.155l-29.62,8.381L6.581,74.152ZM24.18,33.531l-.8-9.347,34.593.011.791-9.017-45.312-.011,2.4,27.546H47.236L46.115,54.495,36.109,57.259,25.947,54.473,25.3,47.217H16.328l1.132,14.344,18.647,4.987,18.5-4.963,2.559-28.052H24.18Z" transform="translate(25.291 20.363)"/>
    </g>
    <g id="Box-2" transform="translate(494.842 4644.725)">
      <g transform="matrix(1, 0, 0, 1, -615.13, -337)" filter="url(#Path_89-2)">
        <path id="Path_89-4" data-name="Path 89" d="M12.652,0H127.788A12.652,12.652,0,0,1,140.44,12.652V127.788a12.652,12.652,0,0,1-12.652,12.652H12.652A12.652,12.652,0,0,1,0,127.788V12.652A12.652,12.652,0,0,1,12.652,0Z" transform="translate(615.13 337)" fill="#a01934"/>
      </g>
      <path id="vue" d="M93.878,0H55L46.939,13.886,38.881,0H0L46.939,81.283ZM46.939,48.778,20.184,2.425H37.512l9.427,16.35,9.428-16.35H73.695Z" transform="translate(23.522 29.767)"/>
    </g>
    <g id="Box-1" transform="translate(802.86 4626.959)">
      <g transform="matrix(1, 0, 0, 1, -923.15, -319.23)" filter="url(#Rectangle_52)">
        <rect id="Rectangle_52-2" data-name="Rectangle 52" width="153.92" height="153.92" rx="20" transform="translate(923.15 319.23)" fill="#a01934"/>
      </g>
      <path id="css3" d="M0,0H80.318L73.01,82.47,40.07,91.792,7.308,82.467ZM65.363,16.878l-50.409-.011L15.769,26.9l38.724.008-.976,10.388h-25.4l.917,9.841H52.684l-1.4,13.473-11.13,3.075-11.306-3.1-.719-8.07H18.148l1.109,14.744,20.9,6.518,20.55-5.852,4.655-51.035Z" transform="translate(36.731 31.271)"/>
    </g>
    <g id="Title" transform="translate(-240.891 186.5)">
      <g transform="matrix(1, 0, 0, 1, 120.6, 4121.22)" filter="url(#Technologies_On_Cards)">
        <text id="Technologies_On_Cards-2" data-name="Technologies On Cards" transform="translate(181.25 291.83)" fill="#fff" font-size="72" font-family="Kanit-SemiBold, Kanit" font-weight="600"><tspan x="0" y="0">Technologies On Cards</tspan></text>
      </g>
      <line id="Line_8" data-name="Line 8" x2="752.19" transform="translate(300.5 4429.5)" fill="none" stroke="#a31934" stroke-width="10"/>
    </g>
  </g>
</svg>
