<svg xmlns="http://www.w3.org/2000/svg" xmlns:xlink="http://www.w3.org/1999/xlink"  viewBox="0 0 1025.324 521.249">
  <defs>
    <filter id="Path_89" x="820.807" y="52.596" width="204.517" height="204.517" filterUnits="userSpaceOnUse">
      <feOffset dx="-20" dy="20" input="SourceAlpha"/>
      <feGaussianBlur stdDeviation="15" result="blur"/>
      <feFlood flood-opacity="0.161"/>
      <feComposite operator="in" in2="blur"/>
      <feComposite in="SourceGraphic"/>
    </filter>
    <filter id="Rectangle_50" x="0" y="189.644" width="187.473" height="187.473" filterUnits="userSpaceOnUse">
      <feOffset dx="20" dy="20" input="SourceAlpha"/>
      <feGaussianBlur stdDeviation="15" result="blur-2"/>
      <feFlood flood-opacity="0.161"/>
      <feComposite operator="in" in2="blur-2"/>
      <feComposite in="SourceGraphic"/>
    </filter>
    <filter id="Rectangle_48" x="170.902" y="0" width="231.709" height="231.709" filterUnits="userSpaceOnUse">
      <feOffset dx="-20" dy="-19" input="SourceAlpha"/>
      <feGaussianBlur stdDeviation="15" result="blur-3"/>
      <feFlood flood-opacity="0.161"/>
      <feComposite operator="in" in2="blur-3"/>
      <feComposite in="SourceGraphic"/>
    </filter>
    <filter id="Path_107" x="210.486" y="314.118" width="191.007" height="191.007" filterUnits="userSpaceOnUse">
      <feOffset dx="30" dy="20" input="SourceAlpha"/>
      <feGaussianBlur stdDeviation="15" result="blur-4"/>
      <feFlood flood-opacity="0.161"/>
      <feComposite operator="in" in2="blur-4"/>
      <feComposite in="SourceGraphic"/>
    </filter>
    <filter id="Path_89-2" x="457.94" y="52.596" width="218.357" height="218.357" filterUnits="userSpaceOnUse">
      <feOffset dx="-20" dy="20" input="SourceAlpha"/>
      <feGaussianBlur stdDeviation="15" result="blur-5"/>
      <feFlood flood-opacity="0.161"/>
      <feComposite operator="in" in2="blur-5"/>
      <feComposite in="SourceGraphic"/>
    </filter>
    <filter id="Rectangle_52" x="665.424" y="285.61" width="235.639" height="235.639" filterUnits="userSpaceOnUse">
      <feOffset dx="30" dy="-19" input="SourceAlpha"/>
      <feGaussianBlur stdDeviation="15" result="blur-6"/>
      <feFlood flood-opacity="0.161"/>
      <feComposite operator="in" in2="blur-6"/>
      <feComposite in="SourceGraphic"/>
    </filter>
    <filter id="Technologies_On_Cards" x="143.115" y="200.709" width="781" height="137" filterUnits="userSpaceOnUse">
      <feOffset dx="10" dy="10" input="SourceAlpha"/>
      <feGaussianBlur stdDeviation="5" result="blur-7"/>
      <feFlood flood-opacity="0.161"/>
      <feComposite operator="in" in2="blur-7"/>
      <feComposite in="SourceGraphic"/>
    </filter>
  </defs>
  <g id="Technologies-4" transform="translate(87.156 -4314.841)">
    <g id="Box-6" transform="translate(798.651 4392.437)">
      <g transform="matrix(1, 0, 0, 1, -885.81, -77.6)" filter="url(#Path_89)">
        <path id="Path_89-3" data-name="Path 89" d="M10.317,0H104.2a10.317,10.317,0,0,1,10.317,10.317V104.2A10.317,10.317,0,0,1,104.2,114.517H10.317A10.317,10.317,0,0,1,0,104.2V10.317A10.317,10.317,0,0,1,10.317,0Z" transform="translate(885.81 77.6)" fill="#a01934"/>
      </g>
      <path id="typescript" d="M3,3V68.809H68.809V3ZM42,37.554H34.253V61.5H28.012V37.554H20.429v-5.3H41.994Zm1.214,22.577v-6.4A14.36,14.36,0,0,0,50.9,56.366c4.2,0,4.032-2.742,4.032-3.119,0-3.981-11.886-3.981-11.886-12.8,0-12,17.32-7.261,17.32-7.261l-.216,5.7a12.637,12.637,0,0,0-6.186-1.938c-3.277,0-4.464,1.561-4.464,3.228,0,4.3,12,3.872,12,12.533,0,13.335-18.287,7.419-18.287,7.419Z" transform="translate(21.549 21.74)"/>
    </g>
    <g id="Box-5" transform="translate(-62.156 4529.485)">
      <g transform="matrix(1, 0, 0, 1, -25, -214.64)" filter="url(#Rectangle_50)">
        <rect id="Rectangle_50-2" data-name="Rectangle 50" width="97.473" height="97.473" rx="20" transform="translate(25 214.64)" fill="#a01934"/>
      </g>
      <path id="javascript" d="M0,0H52.8V52.8H0ZM48.475,40.208c-.385-2.408-1.954-4.431-6.607-6.32-1.619-.759-3.42-1.287-3.953-2.508a2.6,2.6,0,0,1-.1-1.551c.33-1.421,2.013-1.848,3.333-1.452a3.579,3.579,0,0,1,2.147,1.98c2.275-1.487,2.275-1.487,3.861-2.475a9.08,9.08,0,0,0-1.289-1.716c-1.386-1.554-3.232-2.344-6.235-2.276l-1.551.2A7.092,7.092,0,0,0,34.318,26.3a6.9,6.9,0,0,0,1.252,9.836c3,2.243,7.392,2.734,7.955,4.851.53,2.574-1.914,3.4-4.325,3.1a5.8,5.8,0,0,1-3.861-2.938L31.313,43.46a8.9,8.9,0,0,0,1.782,2.44c3.828,3.863,13.4,3.665,15.117-2.209a7.446,7.446,0,0,0,.163-3.63l.1.147ZM28.713,24.269H23.767c0,4.263-.02,8.5-.02,12.771,0,2.711.139,5.2-.3,5.964-.726,1.516-2.6,1.322-3.445,1.056a4.245,4.245,0,0,1-1.826-1.881,1.888,1.888,0,0,0-.279-.433l-4.015,2.475a7.781,7.781,0,0,0,2.913,3.337,9.681,9.681,0,0,0,7.055.891,6.179,6.179,0,0,0,3.984-3.1c1.122-2.046.884-4.55.875-7.359.026-4.519,0-9.04,0-13.594l.009-.123Z" transform="translate(22.336 22.336)"/>
    </g>
    <g id="Box-4" transform="translate(168.906 4439.861)">
      <g transform="matrix(1, 0, 0, 1, -256.06, -125.02)" filter="url(#Rectangle_48)">
        <rect id="Rectangle_48-2" data-name="Rectangle 48" width="141.709" height="141.709" rx="20" transform="translate(235.9 64)" fill="#a01934"/>
      </g>
      <path id="react" d="M56.106,42.147a8.814,8.814,0,1,1-8.816-8.816A8.814,8.814,0,0,1,56.106,42.147ZM66.544,0c-5.308,0-12.25,3.785-19.272,10.337C40.254,3.82,33.308.082,28,.082a8.662,8.662,0,0,0-4.361,1.1c-5.421,3.126-6.634,12.869-3.836,25.1C7.806,29.977,0,35.9,0,42.147c0,6.269,7.846,12.211,19.883,15.89-2.776,12.274-1.537,22.033,3.9,25.154a8.467,8.467,0,0,0,4.341,1.084c5.3,0,12.25-3.785,19.272-10.346,7.018,6.521,13.965,10.263,19.268,10.263a8.655,8.655,0,0,0,4.361-1.084c5.417-3.122,6.634-12.865,3.836-25.1C86.814,54.339,94.62,48.4,94.62,42.148c0-6.269-7.846-12.211-19.883-15.9C77.517,13.989,76.278,4.222,70.849,1.1A8.546,8.546,0,0,0,66.54,0Zm-.02,4.3v.024a4.483,4.483,0,0,1,2.2.5c2.626,1.506,3.768,7.235,2.878,14.6-.213,1.813-.56,3.726-.983,5.678A92.558,92.558,0,0,0,58.37,23a94.19,94.19,0,0,0-8.027-9.648C56.62,7.516,62.515,4.314,66.528,4.3Zm-38.52.082c3.99,0,9.911,3.185,16.2,8.989A90.658,90.658,0,0,0,36.245,23a89.621,89.621,0,0,0-12.274,2.121c-.441-1.932-.769-3.8-1-5.6-.907-7.365.213-13.089,2.815-14.615A5.774,5.774,0,0,1,28,4.384ZM47.253,16.4a78.381,78.381,0,0,1,5.362,6.167c-1.735-.082-3.509-.134-5.3-.134-1.813,0-3.6.039-5.362.134a74.905,74.905,0,0,1,5.3-6.17Zm.059,10.354c2.917,0,5.824.134,8.682.367q2.4,3.44,4.665,7.333,2.2,3.785,4.013,7.672c-1.215,2.582-2.547,5.165-3.994,7.689-1.5,2.6-3.048,5.078-4.652,7.372-2.867.246-5.78.387-8.713.387-2.917,0-5.824-.138-8.682-.367-1.6-2.293-3.162-4.751-4.665-7.333q-2.2-3.785-4.013-7.672c1.2-2.591,2.547-5.176,3.994-7.7,1.5-2.6,3.048-5.07,4.652-7.365,2.867-.252,5.78-.387,8.713-.387Zm-14.334,1c-.946,1.487-1.893,3.008-2.776,4.574-.887,1.537-1.715,3.083-2.5,4.629-1.045-2.587-1.932-5.165-2.665-7.676,2.524-.591,5.185-1.116,7.945-1.522Zm28.624,0c2.74.41,5.382.907,7.909,1.526-.709,2.492-1.6,5.054-2.6,7.617-.789-1.537-1.617-3.087-2.524-4.629-.887-1.546-1.833-3.052-2.78-4.518Zm12.076,2.661c1.908.591,3.722,1.25,5.421,1.966,6.83,2.914,11.242,6.728,11.242,9.756-.02,3.031-4.435,6.86-11.265,9.758-1.656.709-3.47,1.348-5.342,1.944A94.487,94.487,0,0,0,69.395,42.1a91.8,91.8,0,0,0,4.278-11.686Zm-52.812.016a91.979,91.979,0,0,0,4.341,11.749,91.246,91.246,0,0,0-4.282,11.686,55.973,55.973,0,0,1-5.4-1.971c-6.83-2.91-11.246-6.73-11.246-9.758s4.416-6.868,11.245-9.762c1.655-.709,3.469-1.348,5.346-1.948ZM66.909,47.309c1.045,2.591,1.932,5.172,2.665,7.68-2.524.619-5.189,1.147-7.945,1.537.946-1.478,1.893-3,2.78-4.565.887-1.537,1.715-3.107,2.507-4.652Zm-39.21.082c.789,1.546,1.617,3.087,2.524,4.633s1.833,3.044,2.78,4.5c-2.74-.4-5.382-.907-7.909-1.522.709-2.484,1.6-5.054,2.6-7.617ZM70.652,59.163a54.477,54.477,0,0,1,1,5.611c.907,7.365-.213,13.089-2.815,14.619a4.226,4.226,0,0,1-2.22.5c-3.99,0-9.911-3.182-16.2-8.989a90.936,90.936,0,0,0,7.965-9.62,90.186,90.186,0,0,0,12.274-2.13ZM24.011,59.2a93.89,93.89,0,0,0,12.25,2.1,93.709,93.709,0,0,0,8.027,9.644C38,76.791,32.1,79.992,28.083,79.992a4.669,4.669,0,0,1-2.18-.52c-2.629-1.5-3.768-7.231-2.881-14.6.213-1.813.56-3.722.983-5.67Zm17.978,2.524c1.735.082,3.509.134,5.3.134,1.813,0,3.6-.039,5.362-.134a75.564,75.564,0,0,1-5.3,6.174,79.927,79.927,0,0,1-5.362-6.174Z" transform="translate(3.316 -32.299)"/>
    </g>
    <g id="Box-3" transform="translate(138.56 4653.959)">
      <g transform="matrix(1, 0, 0, 1, -225.72, -339.12)" filter="url(#Path_107)">
        <path id="Path_107-2" data-name="Path 107" d="M10.1,0h80.8a10.1,10.1,0,0,1,10.1,10.1v80.8a10.1,10.1,0,0,1-10.1,10.1H10.1A10.1,10.1,0,0,1,0,90.906V10.1A10.1,10.1,0,0,1,10.1,0Z" transform="translate(225.49 339.12)" fill="#a01934"/>
      </g>
      <path id="html5" d="M0,0H59.179L53.8,60.766,29.525,67.633,5.393,60.763ZM19.814,27.476l-.654-7.66,28.347.009.648-7.389-37.131-.009L12.989,35H38.707l-.919,9.655-8.2,2.266-8.327-2.283-.53-5.946H13.38l.928,11.754,15.28,4.086,15.159-4.067,2.1-22.987H19.814Z" transform="translate(20.683 16.687)"/>
    </g>
    <g id="Box-2" transform="translate(435.784 4392.437)">
      <g transform="matrix(1, 0, 0, 1, -522.94, -77.6)" filter="url(#Path_89-2)">
        <path id="Path_89-4" data-name="Path 89" d="M11.563,0h105.23a11.563,11.563,0,0,1,11.563,11.563v105.23a11.563,11.563,0,0,1-11.563,11.563H11.563A11.563,11.563,0,0,1,0,116.793V11.563A11.563,11.563,0,0,1,11.563,0Z" transform="translate(522.94 77.6)" fill="#a01934"/>
      </g>
      <path id="vue" d="M85.8,0H50.266L42.9,12.692,35.536,0H0L42.9,74.29ZM42.9,44.581,18.447,2.217H34.285L42.9,17.16,51.517,2.217H67.354Z" transform="translate(21.498 27.206)"/>
    </g>
    <g id="Box-1" transform="translate(593.268 4664.451)">
      <g transform="matrix(1, 0, 0, 1, -680.42, -349.61)" filter="url(#Rectangle_52)">
        <rect id="Rectangle_52-2" data-name="Rectangle 52" width="145.639" height="145.639" rx="20" transform="translate(680.42 349.61)" fill="#a01934"/>
      </g>
      <path id="css3" d="M0,0H76L69.082,78.034l-31.167,8.82-31-8.823ZM61.847,15.97l-47.7-.01.771,9.489,36.641.007-.923,9.829H26.609l.868,9.311H49.85L48.526,57.345,38,60.255,27.3,57.323l-.68-7.636H17.172l1.049,13.951L38,69.805l19.444-5.537,4.4-48.289Z" transform="translate(34.754 29.589)"/>
    </g>
    <g id="Title" transform="translate(-240.891 186.5)">
      <g transform="matrix(1, 0, 0, 1, 153.74, 4128.34)" filter="url(#Technologies_On_Cards)">
        <text id="Technologies_On_Cards-2" data-name="Technologies On Cards" transform="translate(148.11 284.71)" fill="#fff" font-size="72" font-family="Kanit-SemiBold, Kanit" font-weight="600"><tspan x="0" y="0">Technologies On Cards</tspan></text>
      </g>
      <line id="Line_8" data-name="Line 8" x2="752.19" transform="translate(300.5 4429.5)" fill="none" stroke="#a31934" stroke-width="10"/>
    </g>
  </g>
</svg>
