<svg xmlns="http://www.w3.org/2000/svg" xmlns:xlink="http://www.w3.org/1999/xlink" viewBox="0 0 1403.985 674.007">
  <defs>
    <filter id="Path_89" x="698.885" y="23.357" width="255.649" height="255.649" filterUnits="userSpaceOnUse">
      <feOffset dx="-20" dy="20" input="SourceAlpha"/>
      <feGaussianBlur stdDeviation="15" result="blur"/>
      <feFlood flood-opacity="0.161"/>
      <feComposite operator="in" in2="blur"/>
      <feComposite in="SourceGraphic"/>
    </filter>
    <filter id="Rectangle_50" x="1102.731" y="372.753" width="301.254" height="301.254" filterUnits="userSpaceOnUse">
      <feOffset dx="20" dy="20" input="SourceAlpha"/>
      <feGaussianBlur stdDeviation="15" result="blur-2"/>
      <feFlood flood-opacity="0.161"/>
      <feComposite operator="in" in2="blur-2"/>
      <feComposite in="SourceGraphic"/>
    </filter>
    <filter id="Rectangle_48" x="427.635" y="33.532" width="238.968" height="238.968" filterUnits="userSpaceOnUse">
      <feOffset dx="-20" dy="-19" input="SourceAlpha"/>
      <feGaussianBlur stdDeviation="15" result="blur-3"/>
      <feFlood flood-opacity="0.161"/>
      <feComposite operator="in" in2="blur-3"/>
      <feComposite in="SourceGraphic"/>
    </filter>
    <filter id="Path_107" x="0" y="0" width="290" height="290" filterUnits="userSpaceOnUse">
      <feOffset dx="30" dy="20" input="SourceAlpha"/>
      <feGaussianBlur stdDeviation="15" result="blur-4"/>
      <feFlood flood-opacity="0.161"/>
      <feComposite operator="in" in2="blur-4"/>
      <feComposite in="SourceGraphic"/>
    </filter>
    <filter id="Path_89-2" x="1093.299" y="21.5" width="290" height="290" filterUnits="userSpaceOnUse">
      <feOffset dx="-20" dy="20" input="SourceAlpha"/>
      <feGaussianBlur stdDeviation="15" result="blur-5"/>
      <feFlood flood-opacity="0.161"/>
      <feComposite operator="in" in2="blur-5"/>
      <feComposite in="SourceGraphic"/>
    </filter>
    <filter id="Rectangle_52" x="137" y="381.282" width="253.725" height="253.725" filterUnits="userSpaceOnUse">
      <feOffset dx="30" dy="-19" input="SourceAlpha"/>
      <feGaussianBlur stdDeviation="15" result="blur-6"/>
      <feFlood flood-opacity="0.161"/>
      <feComposite operator="in" in2="blur-6"/>
      <feComposite in="SourceGraphic"/>
    </filter>
    <filter id="Technologies_On_Cards" x="297.31" y="252.997" width="805" height="244" filterUnits="userSpaceOnUse">
      <feOffset dx="10" dy="10" input="SourceAlpha"/>
      <feGaussianBlur stdDeviation="5" result="blur-7"/>
      <feFlood flood-opacity="0.161"/>
      <feComposite operator="in" in2="blur-7"/>
      <feComposite in="SourceGraphic"/>
    </filter>
  </defs>
  <g id="Technologies" transform="translate(241.35 -4262.55)">
    <g id="Box-6" transform="translate(522.535 4310.907)">
      <g transform="matrix(1, 0, 0, 1, -763.88, -48.36)" filter="url(#Path_89)">
        <path id="Path_89-3" data-name="Path 89" d="M14.923,0h135.8a14.923,14.923,0,0,1,14.923,14.923v135.8a14.923,14.923,0,0,1-14.923,14.923H14.923A14.923,14.923,0,0,1,0,150.726V14.923A14.923,14.923,0,0,1,14.923,0Z" transform="translate(763.88 48.36)" fill="#a01934"/>
      </g>
      <path id="typescript" d="M3,3V98.2H98.2V3ZM59.409,52.984h-11.2V87.619H39.18V52.984H28.211V45.31h31.2Zm1.756,32.658V76.381s5.056,3.813,11.127,3.813,5.833-3.967,5.833-4.511c0-5.759-17.194-5.759-17.194-18.516,0-17.352,25.053-10.5,25.053-10.5l-.312,8.245a18.279,18.279,0,0,0-8.948-2.8c-4.744,0-6.458,2.258-6.458,4.67,0,6.225,17.352,5.6,17.352,18.13C87.619,94.2,61.165,85.641,61.165,85.641Z" transform="translate(32.511 32.787)"/>
    </g>
    <g id="Box-5" transform="translate(886.381 4660.303)">
      <g transform="matrix(1, 0, 0, 1, -1127.73, -397.75)" filter="url(#Rectangle_50)">
        <rect id="Rectangle_50-2" data-name="Rectangle 50" width="211.254" height="211.254" rx="20" transform="translate(1127.73 397.75)" fill="#a01934"/>
      </g>
      <path id="javascript" d="M0,0H131.27V131.27H0ZM120.517,99.962c-.957-5.989-4.857-11.021-16.425-15.714-4.026-1.887-8.5-3.2-9.829-6.235a6.458,6.458,0,0,1-.252-3.856c.82-3.533,5-4.594,8.286-3.61a8.9,8.9,0,0,1,5.338,4.923c5.656-3.7,5.656-3.7,9.6-6.153a22.575,22.575,0,0,0-3.205-4.266c-3.446-3.856-8.035-5.825-15.5-5.656l-3.856.487a17.631,17.631,0,0,0-9.353,5.5c-6.235,7.061-4.436,19.368,3.112,24.454,7.466,5.579,18.383,6.8,19.778,12.06,1.313,6.4-4.759,8.451-10.753,7.712-4.436-.985-6.892-3.205-9.6-7.307l-10.009,5.749c1.149,2.625,2.461,3.769,4.43,6.066,9.517,9.6,33.31,9.112,37.582-5.491a18.512,18.512,0,0,0,.4-9.025l.252.366ZM71.384,60.335h-12.3c0,10.6-.049,21.134-.049,31.751,0,6.739.345,12.925-.755,14.828-1.8,3.769-6.454,3.287-8.565,2.625-2.166-1.072-3.265-2.549-4.54-4.676a4.692,4.692,0,0,0-.695-1.072L34.5,109.944a19.346,19.346,0,0,0,7.242,8.3c4.676,2.789,10.961,3.692,17.541,2.215,4.283-1.236,7.975-3.779,9.905-7.718,2.789-5.087,2.2-11.322,2.171-18.3.066-11.235,0-22.475,0-33.8l.022-.306Z" transform="translate(41.063 40.276)"/>
    </g>
    <g id="Box-4" transform="translate(271.447 4421.098)">
      <g transform="matrix(1, 0, 0, 1, -512.8, -158.55)" filter="url(#Rectangle_48)">
        <rect id="Rectangle_48-2" data-name="Rectangle 48" width="148.968" height="148.968" rx="20" transform="translate(492.63 97.53)" fill="#a01934"/>
      </g>
      <path id="react" d="M58.978,44.306a9.265,9.265,0,1,1-9.267-9.267A9.267,9.267,0,0,1,58.978,44.306ZM69.953,0C64.374,0,57.075,3.979,49.694,10.867,42.316,4.016,35.014.083,29.439.083a9.106,9.106,0,0,0-4.584,1.152c-5.7,3.287-6.975,13.528-4.033,26.38C8.206,31.511,0,37.741,0,44.306c0,6.59,8.248,12.836,20.9,16.7-2.918,12.9-1.616,23.16,4.095,26.443a8.9,8.9,0,0,0,4.567,1.14c5.574,0,12.877-3.979,20.259-10.875C57.2,84.571,64.5,88.5,70.077,88.5a9.1,9.1,0,0,0,4.584-1.14c5.695-3.283,6.975-13.524,4.033-26.38,12.571-3.863,20.777-10.1,20.777-16.678,0-6.59-8.248-12.836-20.9-16.711,2.918-12.89,1.616-23.156-4.095-26.443A8.984,8.984,0,0,0,69.948,0Zm-.021,4.518v.025a4.712,4.712,0,0,1,2.313.526C75,6.652,76.2,12.674,75.27,20.42c-.224,1.907-.589,3.917-1.036,5.968a97.3,97.3,0,0,0-12.877-2.213,99.018,99.018,0,0,0-8.434-10.142c6.6-6.134,12.794-9.5,17.014-9.512ZM29.439,4.6c4.194,0,10.42,3.349,17.034,9.45A95.3,95.3,0,0,0,38.1,24.171,94.207,94.207,0,0,0,25.2,26.4c-.464-2.031-.808-4-1.053-5.885-.953-7.742.224-13.76,2.959-15.364A6.07,6.07,0,0,1,29.439,4.6ZM49.673,17.242a82.4,82.4,0,0,1,5.637,6.482c-1.824-.083-3.689-.141-5.575-.141-1.907,0-3.792.041-5.637.141a78.74,78.74,0,0,1,5.574-6.486Zm.062,10.884c3.067,0,6.122.141,9.126.385q2.524,3.618,4.9,7.709,2.313,3.979,4.219,8.065c-1.277,2.715-2.677,5.429-4.2,8.082-1.575,2.735-3.2,5.338-4.891,7.75-3.017.261-6.076.406-9.16.406-3.067,0-6.122-.145-9.126-.385-1.683-2.412-3.324-4.99-4.9-7.709q-2.313-3.979-4.219-8.065c1.256-2.723,2.677-5.442,4.2-8.1,1.575-2.735,3.2-5.33,4.891-7.742,3.017-.265,6.076-.406,9.16-.406ZM34.67,29.178c-.995,1.563-1.989,3.162-2.918,4.808-.933,1.616-1.8,3.241-2.632,4.866-1.1-2.719-2.031-5.429-2.8-8.07,2.653-.622,5.45-1.173,8.351-1.6Zm30.09,0c2.88.427,5.657.953,8.314,1.6-.746,2.619-1.679,5.313-2.735,8.012-.829-1.616-1.7-3.245-2.653-4.866-.933-1.625-1.927-3.208-2.922-4.75Zm12.695,2.8c2.006.622,3.913,1.314,5.7,2.064,7.178,3.067,11.82,7.079,11.82,10.262-.021,3.183-4.663,7.212-11.841,10.258-1.741.746-3.647,1.417-5.616,2.043a99.329,99.329,0,0,0-4.559-12.351,96.5,96.5,0,0,0,4.5-12.285Zm-55.517.017A96.687,96.687,0,0,0,26.5,44.343,95.914,95.914,0,0,0,22,56.628a58.844,58.844,0,0,1-5.678-2.072C9.139,51.5,4.5,47.485,4.5,44.3s4.642-7.22,11.82-10.262C18.058,33.294,19.965,32.622,21.937,31.992Zm48.4,17.739c1.1,2.723,2.031,5.438,2.8,8.074-2.653.651-5.454,1.2-8.356,1.616.995-1.554,1.989-3.158,2.922-4.8.933-1.616,1.8-3.266,2.636-4.891Zm-41.218.083c.829,1.625,1.7,3.245,2.653,4.87s1.927,3.2,2.922,4.737c-2.881-.423-5.657-.953-8.314-1.6.746-2.611,1.683-5.313,2.735-8.012Zm45.151,12.38a57.268,57.268,0,0,1,1.053,5.9c.953,7.742-.224,13.76-2.959,15.368a4.443,4.443,0,0,1-2.333.531c-4.194,0-10.42-3.345-17.034-9.45a95.594,95.594,0,0,0,8.372-10.113,94.809,94.809,0,0,0,12.9-2.238Zm-49.031.041a98.7,98.7,0,0,0,12.877,2.2,98.508,98.508,0,0,0,8.434,10.138c-6.611,6.146-12.815,9.512-17.034,9.512a4.91,4.91,0,0,1-2.292-.547c-2.76-1.575-3.958-7.6-3.026-15.347.224-1.907.589-3.913,1.036-5.96Zm18.9,2.653c1.824.083,3.689.141,5.575.141,1.907,0,3.792-.041,5.637-.141a79.438,79.438,0,0,1-5.574,6.486A84.023,84.023,0,0,1,44.14,64.888Z" transform="translate(4.518 -30.827)"/>
    </g>
    <g id="Box-3" transform="translate(-226.12 4287.55)">
      <g transform="matrix(1, 0, 0, 1, -15.23, -25)" filter="url(#Path_107)">
        <path id="Path_107-2" data-name="Path 107" d="M20,0H180a20,20,0,0,1,20,20V180a20,20,0,0,1-20,20H20A20,20,0,0,1,0,180V20A20,20,0,0,1,20,0Z" transform="translate(15 25)" fill="#a01934"/>
      </g>
      <path id="html5" d="M0,0H117.179L106.521,120.321l-48.06,13.6-47.787-13.6ZM39.233,54.4,37.938,39.238l56.129.017L95.35,24.624l-73.522-.017,3.895,44.7H76.646L74.827,88.42,58.59,92.906,42.1,88.386,41.052,76.613H26.494l1.841,23.274,30.255,8.091L88.6,99.926,92.756,54.41H39.233Z" transform="translate(41.18 33.041)"/>
    </g>
    <g id="Box-2" transform="translate(916.948 4309.05)">
      <g transform="matrix(1, 0, 0, 1, -1158.3, -46.5)" filter="url(#Path_89-2)">
        <path id="Path_89-4" data-name="Path 89" d="M18.018,0H181.982A18.018,18.018,0,0,1,200,18.018V181.982A18.018,18.018,0,0,1,181.982,200H18.018A18.018,18.018,0,0,1,0,181.982V18.018A18.018,18.018,0,0,1,18.018,0Z" transform="translate(1158.3 46.5)" fill="#a01934"/>
      </g>
      <path id="vue" d="M133.692,0H78.321L66.846,19.775,55.371,0H0L66.846,115.755ZM66.846,69.464l-38.1-66.01H53.421L66.846,26.738,80.271,3.454h24.677Z" transform="translate(33.498 42.391)"/>
    </g>
    <g id="Box-1" transform="translate(-89.351 4707.832)">
      <g transform="matrix(1, 0, 0, 1, -152, -445.28)" filter="url(#Rectangle_52)">
        <rect id="Rectangle_52-2" data-name="Rectangle 52" width="163.725" height="163.725" rx="20" transform="translate(152 445.28)" fill="#a01934"/>
      </g>
      <path id="css3" d="M0,0H85.434l-7.77,87.724-35.04,9.914L7.779,87.72ZM69.527,17.953l-53.62-.012.867,10.667,41.191.008L56.927,39.666H29.914l.976,10.468h25.15L54.552,64.466,42.713,67.737l-12.026-3.3-.765-8.584H19.3l1.18,15.683,22.233,6.928,21.859-6.224,4.951-54.287Z" transform="translate(39.07 33.263)"/>
    </g>
    <g id="Title" transform="translate(-240.891 186.5)">
      <g transform="matrix(1, 0, 0, 1, -0.46, 4076.05)" filter="url(#Technologies_On_Cards)">
        <text id="Technologies_On_Cards-2" data-name="Technologies On Cards" transform="translate(302.31 258)" fill="#fff" font-size="72" font-family="Kanit-SemiBold, Kanit" font-weight="600"><tspan x="0" y="79">Technologies On Cards</tspan></text>
      </g>
      <line id="Line_8" data-name="Line 8" x2="752.19" transform="translate(300.5 4429.5)" fill="none" stroke="#a31934" stroke-width="10"/>
    </g>
  </g>
</svg>
