<svg xmlns="http://www.w3.org/2000/svg" xmlns:xlink="http://www.w3.org/1999/xlink"  viewBox="0 0 1165.464 549.168">
  <defs>
    <filter id="Path_89" x="147.517" y="302.727" width="246.441" height="246.441" filterUnits="userSpaceOnUse">
      <feOffset dx="-20" dy="20" input="SourceAlpha"/>
      <feGaussianBlur stdDeviation="15" result="blur"/>
      <feFlood flood-opacity="0.161"/>
      <feComposite operator="in" in2="blur"/>
      <feComposite in="SourceGraphic"/>
    </filter>
    <filter id="Rectangle_50" x="796.086" y="4.613" width="261.273" height="261.273" filterUnits="userSpaceOnUse">
      <feOffset dx="20" dy="20" input="SourceAlpha"/>
      <feGaussianBlur stdDeviation="15" result="blur-2"/>
      <feFlood flood-opacity="0.161"/>
      <feComposite operator="in" in2="blur-2"/>
      <feComposite in="SourceGraphic"/>
    </filter>
    <filter id="Rectangle_48" x="0" y="0" width="237.517" height="237.517" filterUnits="userSpaceOnUse">
      <feOffset dx="-20" dy="-19" input="SourceAlpha"/>
      <feGaussianBlur stdDeviation="15" result="blur-3"/>
      <feFlood flood-opacity="0.161"/>
      <feComposite operator="in" in2="blur-3"/>
      <feComposite in="SourceGraphic"/>
    </filter>
    <filter id="Path_107" x="761.163" y="311" width="220.56" height="220.56" filterUnits="userSpaceOnUse">
      <feOffset dx="30" dy="20" input="SourceAlpha"/>
      <feGaussianBlur stdDeviation="15" result="blur-4"/>
      <feFlood flood-opacity="0.161"/>
      <feComposite operator="in" in2="blur-4"/>
      <feComposite in="SourceGraphic"/>
    </filter>
    <filter id="Path_89-2" x="362.801" y="54.198" width="189.176" height="189.176" filterUnits="userSpaceOnUse">
      <feOffset dx="-20" dy="20" input="SourceAlpha"/>
      <feGaussianBlur stdDeviation="15" result="blur-5"/>
      <feFlood flood-opacity="0.161"/>
      <feComposite operator="in" in2="blur-5"/>
      <feComposite in="SourceGraphic"/>
    </filter>
    <filter id="Rectangle_52" x="977.359" y="165.622" width="188.105" height="188.105" filterUnits="userSpaceOnUse">
      <feOffset dx="30" dy="-19" input="SourceAlpha"/>
      <feGaussianBlur stdDeviation="15" result="blur-6"/>
      <feFlood flood-opacity="0.161"/>
      <feComposite operator="in" in2="blur-6"/>
      <feComposite in="SourceGraphic"/>
    </filter>
    <filter id="Technologies_On_Cards" x="184.109" y="200.523" width="781" height="137" filterUnits="userSpaceOnUse">
      <feOffset dx="10" dy="10" input="SourceAlpha"/>
      <feGaussianBlur stdDeviation="5" result="blur-7"/>
      <feFlood flood-opacity="0.161"/>
      <feComposite operator="in" in2="blur-7"/>
      <feComposite in="SourceGraphic"/>
    </filter>
  </defs>
  <g id="Technologies-3" transform="translate(128.15 -4315.026)">
    <g id="Box-6" transform="translate(84.367 4642.753)">
      <g transform="matrix(1, 0, 0, 1, -212.52, -327.73)" filter="url(#Path_89)">
        <path id="Path_89-3" data-name="Path 89" d="M14.094,0H142.347a14.094,14.094,0,0,1,14.094,14.094V142.347a14.094,14.094,0,0,1-14.094,14.094H14.094A14.094,14.094,0,0,1,0,142.347V14.094A14.094,14.094,0,0,1,14.094,0Z" transform="translate(212.52 327.73)" fill="#a01934"/>
      </g>
      <path id="typescript" d="M3,3V92.9H92.9V3ZM56.273,50.205H45.694V82.916H37.169V50.205H26.809V42.958H56.27Zm1.659,30.843V72.3a19.617,19.617,0,0,0,10.509,3.6c5.733,0,5.509-3.746,5.509-4.261,0-5.439-16.237-5.439-16.237-17.486,0-16.384,23.66-9.92,23.66-9.92l-.3,7.789a17.266,17.266,0,0,0-8.451-2.647c-4.478,0-6.1,2.132-6.1,4.411,0,5.878,16.384,5.293,16.384,17.122,0,18.217-24.981,10.135-24.981,10.135Z" transform="translate(30.537 30.797)"/>
    </g>
    <g id="Box-5" transform="translate(692.936 4344.64)">
      <g transform="matrix(1, 0, 0, 1, -821.09, -29.61)" filter="url(#Rectangle_50)">
        <rect id="Rectangle_50-2" data-name="Rectangle 50" width="171.273" height="171.273" rx="20" transform="translate(821.09 29.61)" fill="#a01934"/>
      </g>
      <path id="javascript" d="M0,0H92.778V92.778H0ZM85.176,70.651c-.677-4.232-3.428-7.786-11.608-11.106-2.845-1.334-6.008-2.261-6.946-4.406a4.565,4.565,0,0,1-.177-2.725c.58-2.5,3.537-3.248,5.856-2.552a6.289,6.289,0,0,1,3.773,3.479c4-2.613,4-2.613,6.785-4.349a15.949,15.949,0,0,0-2.266-3.015c-2.436-2.731-5.679-4.118-10.955-4l-2.725.344A12.462,12.462,0,0,0,60.3,46.206,12.131,12.131,0,0,0,62.5,63.5c5.276,3.942,12.988,4.8,13.978,8.523.932,4.522-3.363,5.973-7.6,5.451-3.13-.7-4.871-2.266-6.785-5.162L55.018,76.37a15.637,15.637,0,0,0,3.13,4.287c6.727,6.788,23.543,6.441,26.561-3.875A13.084,13.084,0,0,0,85,70.4l.177.259ZM50.447,42.644H41.762c0,7.491-.034,14.937-.034,22.44,0,4.77.244,9.135-.534,10.48-1.276,2.664-4.561,2.324-6.053,1.856a7.453,7.453,0,0,1-3.208-3.3,3.317,3.317,0,0,0-.49-.762L24.386,77.7A13.673,13.673,0,0,0,29.5,83.565,17.01,17.01,0,0,0,41.9,85.13a10.859,10.859,0,0,0,7.005-5.454c1.97-3.6,1.553-8,1.537-12.932.046-7.94,0-15.885,0-23.887l.015-.216Z" transform="translate(39.247 39.247)"/>
    </g>
    <g id="Box-4" transform="translate(-42.99 4440.046)">
      <g transform="matrix(1, 0, 0, 1, -85.16, -125.02)" filter="url(#Rectangle_48)">
        <rect id="Rectangle_48-2" data-name="Rectangle 48" width="147.517" height="147.517" rx="20" transform="translate(65 64)" fill="#a01934"/>
      </g>
      <path id="react" d="M58.4,43.874A9.175,9.175,0,1,1,49.228,34.7,9.175,9.175,0,0,1,58.4,43.874ZM69.277,0C63.747,0,56.52,3.946,49.211,10.761,41.9,3.976,34.673.085,29.153.085a9.016,9.016,0,0,0-4.54,1.141c-5.643,3.249-6.907,13.4-3.994,26.123C8.123,31.206,0,37.374,0,43.874,0,50.4,8.167,56.585,20.7,60.415,17.808,73.191,19.1,83.35,24.753,86.6a8.819,8.819,0,0,0,4.519,1.129c5.52,0,12.752-3.945,20.061-10.77C56.643,83.747,63.87,87.643,69.39,87.643a9.009,9.009,0,0,0,4.54-1.129c5.64-3.249,6.907-13.392,3.994-26.123C90.373,56.561,98.5,50.384,98.5,43.875S90.331,31.164,77.8,27.327C80.694,14.562,79.4,4.4,73.752,1.141A8.9,8.9,0,0,0,69.267,0Zm-.021,4.473V4.5a4.666,4.666,0,0,1,2.291.521c2.734,1.568,3.922,7.531,3,15.2-.222,1.888-.58,3.878-1.023,5.91a96.352,96.352,0,0,0-12.752-2.191A98.057,98.057,0,0,0,52.412,13.9c6.533-6.074,12.671-9.407,16.848-9.419Zm-40.1.085c4.153,0,10.317,3.315,16.869,9.358a94.376,94.376,0,0,0-8.291,10.022,93.3,93.3,0,0,0-12.776,2.2c-.464-2.011-.8-3.956-1.044-5.828-.948-7.667.222-13.622,2.927-15.21a6.011,6.011,0,0,1,2.31-.542ZM49.19,17.077A81.6,81.6,0,0,1,54.772,23.5c-1.806-.085-3.653-.14-5.52-.14-1.888,0-3.752.041-5.583.14a77.979,77.979,0,0,1,5.52-6.423Zm.062,10.773c3.037,0,6.062.14,9.037.382q2.5,3.581,4.855,7.633,2.291,3.945,4.177,7.987c-1.265,2.689-2.652,5.376-4.158,8.007-1.557,2.711-3.17,5.288-4.841,7.67-2.985.255-6.017.4-9.07.4s-6.062-.143-9.037-.382c-1.666-2.387-3.292-4.946-4.855-7.633q-2.291-3.945-4.177-7.987c1.244-2.7,2.652-5.389,4.158-8.02,1.56-2.708,3.173-5.278,4.842-7.667C43.167,27.986,46.2,27.85,49.251,27.85ZM34.331,28.894c-.985,1.548-1.973,3.133-2.889,4.758-.928,1.6-1.786,3.21-2.606,4.818-1.088-2.692-2.011-5.376-2.775-7.991,2.627-.615,5.4-1.16,8.27-1.584Zm29.8,0c2.852.426,5.6.943,8.233,1.589-.738,2.594-1.663,5.261-2.708,7.929-.822-1.6-1.683-3.213-2.627-4.818-.928-1.609-1.908-3.177-2.894-4.7ZM76.7,31.668c1.987.615,3.875,1.3,5.643,2.046,7.11,3.033,11.7,7,11.7,10.156-.021,3.155-4.617,7.141-11.726,10.158-1.724.738-3.611,1.4-5.561,2.024a98.358,98.358,0,0,0-4.519-12.231A95.563,95.563,0,0,0,76.7,31.655Zm-54.982.012A95.748,95.748,0,0,0,26.24,43.91a94.988,94.988,0,0,0-4.457,12.166,58.267,58.267,0,0,1-5.623-2.053C9.051,51,4.454,47.022,4.454,43.871s4.6-7.149,11.705-10.163c1.723-.738,3.611-1.4,5.57-2.027ZM69.647,49.243c1.088,2.7,2.011,5.384,2.775,8-2.627.644-5.4,1.194-8.27,1.6.985-1.539,1.973-3.133,2.894-4.758.928-1.6,1.786-3.234,2.61-4.842Zm-40.818.085c.822,1.608,1.683,3.213,2.627,4.823s1.908,3.168,2.894,4.689c-2.852-.419-5.6-.943-8.233-1.584.738-2.587,1.666-5.261,2.708-7.929ZM73.542,61.582a56.711,56.711,0,0,1,1.044,5.84c.943,7.667-.222,13.626-2.93,15.219a4.4,4.4,0,0,1-2.31.526c-4.153,0-10.317-3.313-16.869-9.358A94.661,94.661,0,0,0,60.769,63.8a93.879,93.879,0,0,0,12.776-2.216Zm-48.553.041a97.743,97.743,0,0,0,12.752,2.184A97.549,97.549,0,0,0,46.1,73.845c-6.547,6.086-12.69,9.419-16.869,9.419a4.86,4.86,0,0,1-2.27-.542c-2.737-1.558-3.923-7.526-3-15.2.222-1.888.58-3.875,1.023-5.9ZM43.7,64.25c1.806.085,3.653.14,5.52.14,1.888,0,3.752-.041,5.582-.14a78.661,78.661,0,0,1-5.52,6.428A83.2,83.2,0,0,1,43.7,64.25Z" transform="translate(4.278 -31.122)"/>
    </g>
    <g id="Box-3" transform="translate(648.243 4651.026)">
      <g transform="matrix(1, 0, 0, 1, -776.39, -336)" filter="url(#Path_107)">
        <path id="Path_107-2" data-name="Path 107" d="M13.056,0H117.5A13.056,13.056,0,0,1,130.56,13.056V117.5A13.056,13.056,0,0,1,117.5,130.56H13.056A13.056,13.056,0,0,1,0,117.5V13.056A13.056,13.056,0,0,1,13.056,0Z" transform="translate(776.16 336)" fill="#a01934"/>
      </g>
      <path id="html5" d="M0,0H76.5L69.538,78.546,38.161,87.423,6.971,78.542ZM25.611,35.515l-.845-9.9,36.641.012.838-9.551-48-.012,2.54,29.177H50.032l-1.187,12.48-10.6,2.929L27.483,57.7,26.8,50.013H17.3l1.2,15.193,19.752,5.282,19.594-5.256,2.709-29.714H25.611Z" transform="translate(26.803 21.569)"/>
    </g>
    <g id="Box-2" transform="translate(299.651 4394.225)">
      <g transform="matrix(1, 0, 0, 1, -427.8, -79.2)" filter="url(#Path_89-2)">
        <path id="Path_89-4" data-name="Path 89" d="M8.934,0H90.241a8.934,8.934,0,0,1,8.934,8.934V90.241a8.934,8.934,0,0,1-8.934,8.934H8.934A8.934,8.934,0,0,1,0,90.241V8.934A8.934,8.934,0,0,1,8.934,0Z" transform="translate(427.8 79.2)" fill="#a01934"/>
      </g>
      <path id="vue" d="M66.294,0H38.839L33.147,9.807,27.457,0H0L33.147,57.4ZM33.147,34.446,14.253,1.713H26.491l6.656,11.546L39.805,1.713H52.042Z" transform="translate(16.611 21.021)"/>
    </g>
    <g id="Box-1" transform="translate(864.209 4544.648)">
      <g transform="matrix(1, 0, 0, 1, -992.36, -229.62)" filter="url(#Rectangle_52)">
        <rect id="Rectangle_52-2" data-name="Rectangle 52" width="98.105" height="98.105" rx="20" transform="translate(992.36 229.62)" fill="#a01934"/>
      </g>
      <path id="css3" d="M0,0H51.193L46.535,52.565,25.54,58.506,4.658,52.563ZM41.661,10.758l-32.13-.007.516,6.392,24.682.005-.622,6.621H17.925l.585,6.272H33.581l-.893,8.587-7.094,1.96-7.207-1.977-.458-5.144H11.567l.705,9.4L25.6,47.022l13.1-3.732,2.968-32.525Z" transform="translate(23.411 19.931)"/>
    </g>
    <g id="Title" transform="translate(-240.891 186.5)">
      <g transform="matrix(1, 0, 0, 1, 112.74, 4128.53)" filter="url(#Technologies_On_Cards)">
        <text id="Technologies_On_Cards-2" data-name="Technologies On Cards" transform="translate(189.11 284.52)" fill="#fff" font-size="72" font-family="Kanit-SemiBold, Kanit" font-weight="600"><tspan x="0" y="0">Technologies On Cards</tspan></text>
      </g>
      <line id="Line_8" data-name="Line 8" x2="752.19" transform="translate(300.5 4429.5)" fill="none" stroke="#a31934" stroke-width="10"/>
    </g>
  </g>
</svg>
