<svg xmlns="http://www.w3.org/2000/svg" xmlns:xlink="http://www.w3.org/1999/xlink" viewBox="0 0 1330.956 697.226">
  <defs>
    <filter id="Path_89" x="962.022" y="418.919" width="264.709" height="264.708" filterUnits="userSpaceOnUse">
      <feOffset dx="-20" dy="20" input="SourceAlpha"/>
      <feGaussianBlur stdDeviation="15" result="blur"/>
      <feFlood flood-opacity="0.161"/>
      <feComposite operator="in" in2="blur"/>
      <feComposite in="SourceGraphic"/>
    </filter>
    <filter id="Rectangle_50" x="156.143" y="0" width="266.425" height="266.425" filterUnits="userSpaceOnUse">
      <feOffset dx="20" dy="20" input="SourceAlpha"/>
      <feGaussianBlur stdDeviation="15" result="blur-2"/>
      <feFlood flood-opacity="0.161"/>
      <feComposite operator="in" in2="blur-2"/>
      <feComposite in="SourceGraphic"/>
    </filter>
    <filter id="Rectangle_48" x="308.567" y="434.211" width="263.014" height="263.015" filterUnits="userSpaceOnUse">
      <feOffset dx="-20" dy="-19" input="SourceAlpha"/>
      <feGaussianBlur stdDeviation="15" result="blur-3"/>
      <feFlood flood-opacity="0.161"/>
      <feComposite operator="in" in2="blur-3"/>
      <feComposite in="SourceGraphic"/>
    </filter>
    <filter id="Path_107" x="640.045" y="0" width="264.186" height="264.186" filterUnits="userSpaceOnUse">
      <feOffset dx="30" dy="20" input="SourceAlpha"/>
      <feGaussianBlur stdDeviation="15" result="blur-4"/>
      <feFlood flood-opacity="0.161"/>
      <feComposite operator="in" in2="blur-4"/>
      <feComposite in="SourceGraphic"/>
    </filter>
    <filter id="Path_89-2" x="1032.505" y="69.96" width="298.451" height="298.451" filterUnits="userSpaceOnUse">
      <feOffset dx="-20" dy="20" input="SourceAlpha"/>
      <feGaussianBlur stdDeviation="15" result="blur-5"/>
      <feFlood flood-opacity="0.161"/>
      <feComposite operator="in" in2="blur-5"/>
      <feComposite in="SourceGraphic"/>
    </filter>
    <filter id="Rectangle_52" x="0" y="235.837" width="245.862" height="245.862" filterUnits="userSpaceOnUse">
      <feOffset dx="30" dy="-19" input="SourceAlpha"/>
      <feGaussianBlur stdDeviation="15" result="blur-6"/>
      <feFlood flood-opacity="0.161"/>
      <feComposite operator="in" in2="blur-6"/>
      <feComposite in="SourceGraphic"/>
    </filter>
    <filter id="Technologies_On_Cards" x="265.706" y="236.699" width="805" height="244" filterUnits="userSpaceOnUse">
      <feOffset dx="10" dy="10" input="SourceAlpha"/>
      <feGaussianBlur stdDeviation="5" result="blur-7"/>
      <feFlood flood-opacity="0.161"/>
      <feComposite operator="in" in2="blur-7"/>
      <feComposite in="SourceGraphic"/>
    </filter>
  </defs>
  <g id="Technologies-2" transform="translate(209.747 -4278.848)">
    <g id="Box-6" transform="translate(817.275 4722.767)">
      <g transform="matrix(1, 0, 0, 1, -1027.02, -443.92)" filter="url(#Path_89)">
        <path id="Path_89-3" data-name="Path 89" d="M15.74,0h143.23a15.74,15.74,0,0,1,15.74,15.74v143.23a15.74,15.74,0,0,1-15.74,15.74H15.74A15.74,15.74,0,0,1,0,158.969V15.74A15.74,15.74,0,0,1,15.74,0Z" transform="translate(1027.02 443.92)" fill="#a01934"/>
      </g>
      <path id="typescript" d="M3,3V103.4H103.4V3ZM62.494,55.717H50.68v36.53H41.159V55.717H29.59V47.624h32.9Zm1.852,34.444V80.394s5.333,4.022,11.736,4.022,6.152-4.183,6.152-4.758c0-6.074-18.134-6.074-18.134-19.528,0-18.3,26.423-11.078,26.423-11.078l-.329,8.7a19.279,19.279,0,0,0-9.438-2.956c-5,0-6.811,2.382-6.811,4.925,0,6.565,18.3,5.907,18.3,19.121C92.247,99.186,64.346,90.161,64.346,90.161Z" transform="translate(34.453 34.744)"/>
    </g>
    <g id="Box-5" transform="translate(-28.603 4303.848)">
      <g transform="matrix(1, 0, 0, 1, -181.14, -25)" filter="url(#Rectangle_50)">
        <rect id="Rectangle_50-2" data-name="Rectangle 50" width="176.425" height="176.425" rx="20" transform="translate(181.14 25)" fill="#a01934"/>
      </g>
      <path id="javascript" d="M0,0H109.628V109.628H0ZM100.647,83.482c-.8-5-4.056-9.2-13.717-13.123-3.362-1.576-7.1-2.672-8.208-5.207a5.394,5.394,0,0,1-.21-3.22c.685-2.951,4.18-3.837,6.92-3.015a7.431,7.431,0,0,1,4.458,4.111c4.723-3.088,4.723-3.088,8.017-5.139a18.853,18.853,0,0,0-2.677-3.563C92.352,51.1,88.52,49.46,82.285,49.6l-3.22.407A14.725,14.725,0,0,0,71.253,54.6c-5.207,5.9-3.7,16.175,2.6,20.423C80.088,79.681,89.2,80.7,90.37,85.094c1.1,5.344-3.974,7.057-8.98,6.441-3.7-.822-5.755-2.677-8.017-6.1l-8.359,4.8c.959,2.193,2.056,3.147,3.7,5.066,7.948,8.021,27.818,7.61,31.386-4.586a15.46,15.46,0,0,0,.338-7.537l.21.306ZM59.615,50.388H49.346c0,8.852-.041,17.65-.041,26.516,0,5.628.288,10.794-.63,12.383-1.507,3.147-5.39,2.745-7.153,2.193a8.813,8.813,0,0,1-3.791-3.905,3.919,3.919,0,0,0-.58-.9l-8.336,5.139a16.156,16.156,0,0,0,6.048,6.929,20.1,20.1,0,0,0,14.649,1.85,12.83,12.83,0,0,0,8.272-6.445C60.113,89.9,59.619,84.7,59.6,78.868c.055-9.382,0-18.769,0-28.225l.018-.256Z" transform="translate(34.293 33.636)"/>
    </g>
    <g id="Box-4" transform="translate(183.984 4838.075)">
      <g transform="matrix(1, 0, 0, 1, -393.73, -559.23)" filter="url(#Rectangle_48)">
        <rect id="Rectangle_48-2" data-name="Rectangle 48" width="173.014" height="173.014" rx="20" transform="translate(373.57 498.21)" fill="#a01934"/>
      </g>
      <path id="react" d="M68.5,51.458A10.761,10.761,0,1,1,57.735,40.695,10.763,10.763,0,0,1,68.5,51.458ZM81.245,0C74.765,0,66.289,4.621,57.716,12.621,49.147,4.664,40.666.1,34.191.1a10.575,10.575,0,0,0-5.324,1.338c-6.619,3.817-8.1,15.712-4.684,30.639C9.531,36.6,0,43.833,0,51.458c0,7.654,9.579,14.908,24.275,19.4-3.389,14.985-1.877,26.9,4.756,30.711a10.337,10.337,0,0,0,5.3,1.324c6.474,0,14.956-4.621,23.529-12.631,8.568,7.962,17.05,12.53,23.524,12.53a10.567,10.567,0,0,0,5.324-1.324c6.614-3.812,8.1-15.707,4.684-30.639,14.6-4.486,24.131-11.736,24.131-19.37,0-7.654-9.579-14.908-24.275-19.409C94.641,17.079,93.129,5.155,86.5,1.338A10.434,10.434,0,0,0,81.24,0Zm-.024,5.247v.029a5.473,5.473,0,0,1,2.686.611c3.206,1.839,4.6,8.833,3.514,17.83-.26,2.214-.684,4.549-1.2,6.932a113.006,113.006,0,0,0-14.956-2.57,115,115,0,0,0-9.8-11.779c7.663-7.124,14.86-11.033,19.76-11.047Zm-47.029.1c4.871,0,12.1,3.889,19.784,10.975a110.687,110.687,0,0,0-9.724,11.755,109.414,109.414,0,0,0-14.985,2.59c-.539-2.359-.939-4.64-1.223-6.835-1.107-8.992.26-15.981,3.437-17.844a7.05,7.05,0,0,1,2.71-.635Zm23.5,14.682a95.7,95.7,0,0,1,6.547,7.529c-2.118-.1-4.284-.164-6.474-.164-2.214,0-4.4.048-6.547.164a91.451,91.451,0,0,1,6.474-7.533Zm.072,12.641c3.562,0,7.11.164,10.6.448q2.932,4.2,5.695,8.953,2.686,4.621,4.9,9.367c-1.483,3.153-3.11,6.306-4.876,9.387-1.829,3.177-3.721,6.2-5.68,9-3.5.3-7.057.472-10.638.472-3.562,0-7.11-.168-10.6-.448-1.954-2.8-3.861-5.8-5.695-8.953q-2.686-4.621-4.9-9.367c1.459-3.163,3.11-6.32,4.876-9.406,1.829-3.177,3.721-6.19,5.68-8.992,3.5-.308,7.057-.472,10.638-.472Zm-17.5,1.223c-1.155,1.815-2.311,3.673-3.389,5.584-1.083,1.877-2.094,3.764-3.057,5.651-1.276-3.158-2.359-6.306-3.254-9.372,3.081-.722,6.33-1.362,9.7-1.858Zm34.947,0c3.345.5,6.571,1.107,9.656,1.863-.866,3.042-1.95,6.171-3.177,9.3-.963-1.877-1.974-3.769-3.081-5.651-1.083-1.887-2.238-3.726-3.394-5.516Zm14.744,3.249c2.33.722,4.544,1.526,6.619,2.4C104.913,43.1,110.3,47.756,110.3,51.453c-.024,3.7-5.415,8.376-13.753,11.914-2.022.866-4.236,1.646-6.522,2.373a115.364,115.364,0,0,0-5.3-14.345,112.077,112.077,0,0,0,5.223-14.268Zm-64.479.019a112.3,112.3,0,0,0,5.3,14.345,111.4,111.4,0,0,0-5.228,14.268,68.341,68.341,0,0,1-6.595-2.407C10.614,59.814,5.223,55.15,5.223,51.453s5.391-8.385,13.729-11.919C20.973,38.668,23.187,37.888,25.479,37.156Zm56.214,20.6c1.276,3.163,2.359,6.315,3.254,9.377-3.081.756-6.335,1.4-9.7,1.877,1.155-1.805,2.311-3.668,3.394-5.574,1.083-1.877,2.094-3.793,3.061-5.68Zm-47.872.1c.963,1.887,1.974,3.769,3.081,5.656s2.238,3.716,3.394,5.5c-3.345-.491-6.571-1.107-9.656-1.858.866-3.033,1.954-6.171,3.177-9.3ZM86.26,72.233a66.513,66.513,0,0,1,1.223,6.85c1.107,8.992-.26,15.981-3.437,17.849a5.16,5.16,0,0,1-2.71.616c-4.871,0-12.1-3.885-19.784-10.975a111.025,111.025,0,0,0,9.724-11.745,110.113,110.113,0,0,0,14.985-2.6Zm-56.945.048a114.635,114.635,0,0,0,14.956,2.561,114.409,114.409,0,0,0,9.8,11.774c-7.678,7.139-14.884,11.047-19.784,11.047a5.7,5.7,0,0,1-2.662-.635C28.415,95.2,27.024,88.2,28.107,79.2c.26-2.214.684-4.544,1.2-6.922Zm21.95,3.081c2.118.1,4.284.164,6.474.164,2.214,0,4.4-.048,6.547-.164A92.262,92.262,0,0,1,57.812,82.9,97.586,97.586,0,0,1,51.265,75.362Z" transform="translate(8.502 -25.954)"/>
    </g>
    <g id="Box-3" transform="translate(445.529 4303.848)">
      <g transform="matrix(1, 0, 0, 1, -655.28, -25)" filter="url(#Path_107)">
        <path id="Path_107-2" data-name="Path 107" d="M17.419,0H156.767a17.419,17.419,0,0,1,17.419,17.419V156.767a17.419,17.419,0,0,1-17.419,17.419H17.419A17.419,17.419,0,0,1,0,156.767V17.419A17.419,17.419,0,0,1,17.419,0Z" transform="translate(655.05 25)" fill="#a01934"/>
      </g>
      <path id="html5" d="M0,0H102.055L92.773,104.791,50.916,116.634,9.3,104.786ZM34.169,47.383,33.041,34.174l48.884.015,1.118-12.742-64.032-.015L22.4,60.358h44.35l-1.584,16.65L51.027,80.915,36.667,76.978l-.914-10.254H23.074l1.6,20.27,26.35,7.047,26.141-7.013,3.616-39.641H34.169Z" transform="translate(35.835 28.776)"/>
    </g>
    <g id="Box-2" transform="translate(887.758 4373.808)">
      <g transform="matrix(1, 0, 0, 1, -1097.5, -94.96)" filter="url(#Path_89-2)">
        <path id="Path_89-4" data-name="Path 89" d="M18.779,0H189.672a18.779,18.779,0,0,1,18.779,18.779V189.672a18.779,18.779,0,0,1-18.779,18.779H18.779A18.779,18.779,0,0,1,0,189.672V18.779A18.779,18.779,0,0,1,18.779,0Z" transform="translate(1097.5 94.96)" fill="#a01934"/>
      </g>
      <path id="vue" d="M139.341,0H81.631L69.67,20.611,57.71,0H0L69.67,120.646ZM69.67,72.4,29.958,3.6h25.72L69.67,27.868,83.663,3.6h25.72Z" transform="translate(34.913 44.182)"/>
    </g>
    <g id="Box-1" transform="translate(-194.747 4578.685)">
      <g transform="matrix(1, 0, 0, 1, -15, -299.84)" filter="url(#Rectangle_52)">
        <rect id="Rectangle_52-2" data-name="Rectangle 52" width="155.862" height="155.862" rx="20" transform="translate(15 299.84)" fill="#a01934"/>
      </g>
      <path id="css3" d="M0,0H81.331l-7.4,83.511L40.576,92.95,7.4,83.508ZM66.188,17.091,15.143,17.08l.825,10.155,39.213.008-.988,10.519H28.477l.929,9.965H53.349L51.932,61.37l-11.27,3.114L29.213,61.347l-.728-8.172H18.377L19.5,68.105l21.165,6.6,20.809-5.926L66.188,17.1Z" transform="translate(37.194 31.666)"/>
    </g>
    <g id="Title" transform="translate(-240.891 186.5)">
      <g transform="matrix(1, 0, 0, 1, 31.14, 4092.35)" filter="url(#Technologies_On_Cards)">
        <text id="Technologies_On_Cards-2" data-name="Technologies On Cards" transform="translate(270.71 241.7)" fill="#fff" font-size="72" font-family="Kanit-SemiBold, Kanit" font-weight="600"><tspan x="0" y="79">Technologies On Cards</tspan></text>
      </g>
      <line id="Line_8" data-name="Line 8" x2="752.19" transform="translate(300.5 4429.5)" fill="none" stroke="#a31934" stroke-width="10"/>
    </g>
  </g>
</svg>
