<svg xmlns="http://www.w3.org/2000/svg" xmlns:xlink="http://www.w3.org/1999/xlink" viewBox="0 0 1184.107 657.636">
  <defs>
    <filter id="Path_89" x="472.015" y="4.474" width="270.54" height="270.54" filterUnits="userSpaceOnUse">
      <feOffset dx="-20" dy="20" input="SourceAlpha"/>
      <feGaussianBlur stdDeviation="15" result="blur"/>
      <feFlood flood-opacity="0d.161"/>
      <feComposite operator="in" in2="blur"/>
      <feComposite in="SourceGraphic"/>
    </filter>
    <filter id="Rectangle_50" x="940.187" y="86.56" width="243.92" height="243.92" filterUnits="userSpaceOnUse">
      <feOffset dx="20" dy="20" input="SourceAlpha"/>
      <feGaussianBlur stdDeviation="15" result="blur-2"/>
      <feFlood flood-opacity="0.161"/>
      <feComposite operator="in" in2="blur-2"/>
      <feComposite in="SourceGraphic"/>
    </filter>
    <filter id="Rectangle_48" x="13.724" y="0" width="236.014" height="236.014" filterUnits="userSpaceOnUse">
      <feOffset dx="-20" dy="-19" input="SourceAlpha"/>
      <feGaussianBlur stdDeviation="15" result="blur-3"/>
      <feFlood flood-opacity="0.161"/>
      <feComposite operator="in" in2="blur-3"/>
      <feComposite in="SourceGraphic"/>
    </filter>
    <filter id="Path_107" x="543.058" y="429.182" width="228.454" height="228.454" filterUnits="userSpaceOnUse">
      <feOffset dx="30" dy="20" input="SourceAlpha"/>
      <feGaussianBlur stdDeviation="15" result="blur-4"/>
      <feFlood flood-opacity="0.161"/>
      <feComposite operator="in" in2="blur-4"/>
      <feComposite in="SourceGraphic"/>
    </filter>
    <filter id="Path_89-2" x="913.667" y="310.086" width="230.44" height="230.44" filterUnits="userSpaceOnUse">
      <feOffset dx="-20" dy="20" input="SourceAlpha"/>
      <feGaussianBlur stdDeviation="15" result="blur-5"/>
      <feFlood flood-opacity="0.161"/>
      <feComposite operator="in" in2="blur-5"/>
      <feComposite in="SourceGraphic"/>
    </filter>
    <filter id="Rectangle_52" x="0" y="280.063" width="217.448" height="217.448" filterUnits="userSpaceOnUse">
      <feOffset dx="30" dy="-19" input="SourceAlpha"/>
      <feGaussianBlur stdDeviation="15" result="blur-6"/>
      <feFlood flood-opacity="0.161"/>
      <feComposite operator="in" in2="blur-6"/>
      <feComposite in="SourceGraphic"/>
    </filter>
    <filter id="Technologies_On_Cards" x="163.286" y="223.678" width="781" height="137" filterUnits="userSpaceOnUse">
      <feOffset dx="10" dy="10" input="SourceAlpha"/>
      <feGaussianBlur stdDeviation="5" result="blur-7"/>
      <feFlood flood-opacity="0.161"/>
      <feComposite operator="in" in2="blur-7"/>
      <feComposite in="SourceGraphic"/>
    </filter>
  </defs>
  <g id="Technologies-3" transform="translate(107.327 -4291.873)">
    <g id="Box-6" transform="translate(429.688 4321.347)">
      <g transform="matrix(1, 0, 0, 1, -537.01, -29.47)" filter="url(#Path_89)">
        <path id="Path_89-3" data-name="Path 89" d="M16.265,0H164.275A16.265,16.265,0,0,1,180.54,16.265V164.275a16.265,16.265,0,0,1-16.265,16.265H16.265A16.265,16.265,0,0,1,0,164.274V16.265A16.265,16.265,0,0,1,16.265,0Z" transform="translate(537.01 29.47)" fill="#a01934"/>
      </g>
      <path id="typescript" d="M3,3V106.75H106.75V3ZM64.479,57.476H52.271V95.225H42.432V57.476H30.477V49.113h34Zm1.914,35.593V82.977s5.511,4.156,12.128,4.156,6.357-4.323,6.357-4.917c0-6.277-18.739-6.277-18.739-20.18,0-18.911,27.3-11.448,27.3-11.448l-.34,8.99a19.922,19.922,0,0,0-9.753-3.055c-5.167,0-7.038,2.461-7.038,5.089,0,6.784,18.911,6.1,18.911,19.759,0,21.023-28.83,11.7-28.83,11.7Z" transform="translate(35.703 36.003)"/>
    </g>
    <g id="Box-5" transform="translate(857.86 4403.432)">
      <g transform="matrix(1, 0, 0, 1, -965.19, -111.56)" filter="url(#Rectangle_50)">
        <rect id="Rectangle_50-2" data-name="Rectangle 50" width="153.92" height="153.92" rx="20" transform="translate(965.19 111.56)" fill="#a01934"/>
      </g>
      <path id="javascript" d="M0,0H83.377V83.377H0ZM76.547,63.492c-.608-3.8-3.085-7-10.432-9.981-2.557-1.2-5.4-2.032-6.243-3.96a4.1,4.1,0,0,1-.16-2.449c.521-2.244,3.179-2.918,5.263-2.293a5.652,5.652,0,0,1,3.391,3.127c3.592-2.349,3.592-2.349,6.1-3.908a14.338,14.338,0,0,0-2.036-2.71c-2.189-2.454-5.1-3.7-9.845-3.594l-2.449.31a11.2,11.2,0,0,0-5.941,3.493c-3.96,4.487-2.814,12.3,1.977,15.533,4.742,3.543,11.672,4.318,12.562,7.659.837,4.064-3.022,5.367-6.83,4.9-2.814-.625-4.377-2.036-6.1-4.639l-6.357,3.651a14.054,14.054,0,0,0,2.814,3.853c6.045,6.1,21.157,5.788,23.871-3.488a11.758,11.758,0,0,0,.257-5.732l.16.233ZM45.34,38.322H37.53c0,6.732-.031,13.424-.031,20.167,0,4.28.219,8.209-.479,9.418-1.146,2.393-4.1,2.088-5.44,1.668A6.7,6.7,0,0,1,28.7,66.6a2.98,2.98,0,0,0-.441-.685l-6.34,3.908a12.287,12.287,0,0,0,4.6,5.27,15.287,15.287,0,0,0,11.141,1.407,9.758,9.758,0,0,0,6.291-4.9c1.771-3.231,1.4-7.186,1.381-11.621.042-7.135,0-14.275,0-21.466l.014-.195Z" transform="translate(35.271 35.271)"/>
    </g>
    <g id="Box-4" transform="translate(-8.443 4416.893)">
      <g transform="matrix(1, 0, 0, 1, -98.88, -125.02)" filter="url(#Rectangle_48)">
        <rect id="Rectangle_48-2" data-name="Rectangle 48" width="146.014" height="146.014" rx="20" transform="translate(78.72 64)" fill="#a01934"/>
      </g>
      <path id="react" d="M57.81,43.427a9.082,9.082,0,1,1-9.083-9.083A9.081,9.081,0,0,1,57.81,43.427ZM68.566,0C63.1,0,55.944,3.9,48.709,10.651,41.477,3.936,34.32.084,28.855.084a8.925,8.925,0,0,0-4.493,1.129c-5.586,3.221-6.836,13.26-3.953,25.858C8.044,30.888,0,36.992,0,43.427,0,49.887,8.084,56.009,20.487,59.8,17.627,72.446,18.9,82.5,24.5,85.718a8.724,8.724,0,0,0,4.473,1.117c5.464,0,12.622-3.9,19.857-10.66C56.061,82.9,63.22,86.75,68.683,86.75a8.918,8.918,0,0,0,4.493-1.117c5.582-3.217,6.836-13.256,3.953-25.858,12.322-3.786,20.365-9.9,20.365-16.347,0-6.46-8.084-12.581-20.487-16.38C79.872,14.414,78.6,4.35,73,1.129A8.806,8.806,0,0,0,68.562,0Zm-.02,4.428v.024a4.619,4.619,0,0,1,2.267.516c2.706,1.552,3.882,7.455,2.966,15.047-.219,1.868-.577,3.839-1.013,5.85A95.37,95.37,0,0,0,60.144,23.7a97.051,97.051,0,0,0-8.271-9.941C58.34,7.744,64.414,4.445,68.549,4.433Zm-39.69.084c4.111,0,10.212,3.282,16.7,9.262A93.411,93.411,0,0,0,37.346,23.7,92.343,92.343,0,0,0,24.7,25.881c-.455-1.991-.792-3.916-1.032-5.768-.934-7.589.219-13.487,2.9-15.059a5.95,5.95,0,0,1,2.287-.536ZM48.689,16.9a80.763,80.763,0,0,1,5.525,6.354c-1.787-.084-3.615-.138-5.464-.138-1.868,0-3.713.041-5.525.138A77.181,77.181,0,0,1,48.689,16.9Zm.061,10.668c3.006,0,6,.138,8.946.378q2.474,3.545,4.806,7.556,2.267,3.9,4.135,7.905c-1.252,2.661-2.625,5.322-4.115,7.922-1.544,2.681-3.14,5.232-4.794,7.6-2.954.253-5.956.4-8.978.4-3.006,0-6-.142-8.946-.378-1.649-2.363-3.258-4.895-4.806-7.556q-2.267-3.9-4.135-7.905c1.231-2.669,2.625-5.334,4.115-7.938,1.544-2.681,3.14-5.224,4.794-7.589,2.954-.26,5.956-.4,8.978-.4ZM33.981,28.6c-.975,1.532-1.95,3.1-2.86,4.713-.914,1.584-1.767,3.177-2.58,4.769-1.077-2.665-1.991-5.322-2.746-7.909,2.6-.609,5.342-1.149,8.186-1.568Zm29.493,0c2.823.422,5.546.934,8.149,1.572-.731,2.567-1.646,5.208-2.681,7.849-.813-1.584-1.666-3.181-2.6-4.769-.914-1.593-1.889-3.145-2.864-4.655Zm12.443,2.742c1.966.609,3.835,1.288,5.586,2.025,7.038,3,11.584,6.932,11.584,10.052-.02,3.123-4.57,7.069-11.607,10.055-1.706.731-3.575,1.389-5.5,2A97.358,97.358,0,0,0,71.5,43.374a94.586,94.586,0,0,0,4.408-12.041ZM21.5,31.362a94.773,94.773,0,0,0,4.473,12.106,94.017,94.017,0,0,0-4.412,12.041A57.676,57.676,0,0,1,16,53.478c-7.038-3-11.587-6.935-11.587-10.055s4.55-7.076,11.586-10.059c1.706-.731,3.574-1.389,5.508-2.007ZM68.942,48.747c1.077,2.669,1.991,5.33,2.746,7.914-2.6.638-5.346,1.182-8.186,1.584.975-1.523,1.95-3.1,2.864-4.7.914-1.584,1.767-3.2,2.583-4.794Zm-40.4.084c.813,1.593,1.666,3.181,2.6,4.773S33.029,56.741,34,58.246c-2.823-.414-5.546-.934-8.149-1.568.731-2.56,1.649-5.208,2.681-7.849ZM72.8,60.96a56.131,56.131,0,0,1,1.032,5.781c.934,7.589-.219,13.487-2.9,15.064a4.355,4.355,0,0,1-2.287.52c-4.111,0-10.212-3.279-16.7-9.262a93.7,93.7,0,0,0,8.207-9.912A92.927,92.927,0,0,0,72.8,60.956ZM24.74,61a96.746,96.746,0,0,0,12.622,2.161A96.555,96.555,0,0,0,45.633,73.1c-6.48,6.025-12.561,9.323-16.7,9.323a4.81,4.81,0,0,1-2.247-.536c-2.709-1.543-3.883-7.45-2.969-15.046.219-1.868.577-3.835,1.013-5.842Zm18.525,2.6c1.787.084,3.615.138,5.464.138,1.868,0,3.713-.041,5.525-.138a77.864,77.864,0,0,1-5.464,6.362A82.358,82.358,0,0,1,43.265,63.6Z" transform="translate(4.029 -31.426)"/>
    </g>
    <g id="Box-3" transform="translate(450.961 4746.055)">
      <g transform="matrix(1, 0, 0, 1, -558.29, -454.18)" filter="url(#Path_107)">
        <path id="Path_107-2" data-name="Path 107" d="M13.846,0H124.608a13.846,13.846,0,0,1,13.846,13.846V124.608a13.846,13.846,0,0,1-13.846,13.846H13.846A13.846,13.846,0,0,1,0,124.608V13.846A13.846,13.846,0,0,1,13.846,0Z" transform="translate(558.06 454.18)" fill="#a01934"/>
      </g>
      <path id="html5" d="M0,0H81.12L73.742,83.294l-33.27,9.414L7.392,83.29ZM27.16,37.663l-.9-10.5,38.856.012.889-10.128-50.9-.012L17.8,47.976H53.057L51.8,61.211,40.559,64.316,29.145,61.187l-.727-8.15H18.341l1.272,16.112,20.945,5.6,20.778-5.574L64.21,37.666H27.16Z" transform="translate(28.437 22.873)"/>
    </g>
    <g id="Box-2" transform="translate(871.34 4626.959)">
      <g transform="matrix(1, 0, 0, 1, -978.67, -335.09)" filter="url(#Path_89-2)">
        <path id="Path_89-4" data-name="Path 89" d="M12.652,0H127.788A12.652,12.652,0,0,1,140.44,12.652V127.788a12.652,12.652,0,0,1-12.652,12.652H12.652A12.652,12.652,0,0,1,0,127.788V12.652A12.652,12.652,0,0,1,12.652,0Z" transform="translate(978.67 335.09)" fill="#a01934"/>
      </g>
      <path id="vue" d="M93.878,0H55L46.939,13.886,38.881,0H0L46.939,81.283ZM46.939,48.778,20.184,2.425H37.512l9.427,16.35,9.428-16.35H73.695Z" transform="translate(23.522 29.767)"/>
    </g>
    <g id="Box-1" transform="translate(-92.327 4635.936)">
      <g transform="matrix(1, 0, 0, 1, -15, -344.06)" filter="url(#Rectangle_52)">
        <rect id="Rectangle_52-2" data-name="Rectangle 52" width="127.448" height="127.448" rx="20" transform="translate(15 344.06)" fill="#a01934"/>
      </g>
      <path id="css3" d="M0,0H66.5L60.453,68.287,33.179,76.005,6.051,68.285ZM54.122,13.975l-41.74-.009.675,8.3,32.064.007-.808,8.6H23.286l.76,8.148H43.624L42.465,50.182l-9.215,2.546-9.362-2.565-.6-6.682H15.027l.918,12.208,17.307,5.4,17.016-4.846,3.855-42.258Z" transform="translate(30.414 25.893)"/>
    </g>
    <g id="Title" transform="translate(-240.891 186.5)">
      <g transform="matrix(1, 0, 0, 1, 133.56, 4105.37)" filter="url(#Technologies_On_Cards)">
        <text id="Technologies_On_Cards-2" data-name="Technologies On Cards" transform="translate(168.29 307.68)" fill="#fff" font-size="72" font-family="Kanit-SemiBold, Kanit" font-weight="600"><tspan x="0" y="0">Technologies On Cards</tspan></text>
      </g>
      <line id="Line_8" data-name="Line 8" x2="752.19" transform="translate(300.5 4429.5)" fill="none" stroke="#a31934" stroke-width="10"/>
    </g>
  </g>
</svg>
