
<svg xmlns="http://www.w3.org/2000/svg" xmlns:xlink="http://www.w3.org/1999/xlink" viewBox="0 0 1469.96 1005.639">
  <defs>
    <filter id="Path_78" x="350.577" y="273.766" width="227.857" height="227.857" filterUnits="userSpaceOnUse">
      <feOffset dx="15" dy="15" input="SourceAlpha"/>
      <feGaussianBlur stdDeviation="10" result="blur"/>
      <feFlood flood-opacity="0.161"/>
      <feComposite operator="in" in2="blur"/>
      <feComposite in="SourceGraphic"/>
    </filter>
  </defs>
  <g id="Card_SVG" data-name="Card SVG" transform="translate(-53.583 -7.614)">
    <g id="Card" opacity='1' transform="translate(338.021 339.593) rotate(-30)">
      <path id="Card__Body" d="M23.366,0H480.18c12.9,0,23.366,10.975,23.366,24.514V694.959c0,13.539-10.462,24.514-23.366,24.514H23.366C10.462,719.472,0,708.5,0,694.959V24.514C0,10.975,10.462,0,23.366,0Z" transform="translate(0)" fill="#fff"/>
      <path id="Card__Wave" d="M499.731,630.876C473.395,790.181,358.024,525.126,97.751,451.791c-211.006-59.454-17.325-309.921,0-417.233C107.4-25.231,362.971-18,447.067,141.131,524.709,288.054,428.529,583.609,499.731,630.876Z" transform="translate(1.95 26.858)" fill="#f8e22e"/>
      <g id="Type_Language" data-name="Type Language" transform="translate(0)">
        <text id="JavaScript" transform="translate(236.49 130.469)" fill="#151515" font-size="41" font-family="Kanit-Bold, Kanit" font-weight="700"><tspan x="0" y="0">JavaScript</tspan></text>
        <g id="Icon_JavaScript" data-name="Icon JavaScript" transform="translate(-2909.64 -1592.261)">
          <g id="javascript-programming-language" transform="translate(2970.794 1648.615)">
            <g transform="matrix(0.87, 0.5, -0.5, 0.87, -141.5, -486.08)" filter="url(#Path_78)">
              <path id="Path_78-2" data-name="Path 78" d="M0,0H122.88V122.88H0Z" transform="matrix(0.87, -0.5, 0.5, 0.87, 365.58, 350.21)" fill="#f7df1e" fill-rule="evenodd"/>
            </g>
            <path id="Path_79" data-name="Path 79" d="M32.31,102.69,41.71,97c1.81,3.22,3.46,5.94,7.42,5.94,3.79,0,6.19-1.48,6.19-7.26V56.41H66.87V95.84c0,11.96-7.01,17.4-17.24,17.4-9.24,0-14.6-4.78-17.32-10.55Zm40.83-1.24,9.4-5.44c2.48,4.04,5.69,7.01,11.38,7.01,4.78,0,7.84-2.39,7.84-5.69,0-3.96-3.13-5.36-8.41-7.67l-2.89-1.24c-8.33-3.55-13.86-8-13.86-17.4,0-8.66,6.6-15.26,16.91-15.26,7.34,0,12.62,2.56,16.41,9.24l-8.99,5.77c-1.98-3.55-4.12-4.95-7.42-4.95-3.38,0-5.53,2.14-5.53,4.95,0,3.46,2.14,4.87,7.09,7.01l2.89,1.24c9.82,4.21,15.34,8.5,15.34,18.15,0,10.39-8.17,16.08-19.14,16.08-10.71,0-17.64-5.12-21.02-11.8Zm0,0Z" fill-rule="evenodd"/>
          </g>
        </g>
      </g>
      <g id="Question" transform="translate(0)">
        <text id="Hoisting_is_a_JavaScript_mechanism_where_variables_and_function_declarations_are_moved_to_the_top_of_their_scope_before_code_execution." data-name="Hoisting is a JavaScript mechanism where variables and function declarations are moved to the top of their scope before code execution." transform="translate(72.28 241.213)" fill="#151515" font-size="28" font-family="Kanit-SemiBold, Kanit" font-weight="600"><tspan x="40.333" y="31">Hoisting is a JavaScript </tspan><tspan x="9.855" y="76">mechanism where variables </tspan><tspan x="23.323" y="121">and function declarations </tspan><tspan x="6.719" y="166">are moved to the top of their </tspan><tspan x="3.037" y="211">scope before code execution.</tspan></text>
      </g>
      <g id="Buttons" transform="translate(-7.497 0.173)">
        <g id="Button__Right__Arrow" transform="translate(359.832 609.356)">
          <g id="Rectangle_25" data-name="Rectangle 25" transform="translate(0 0)" fill="#fff" stroke="#707070" stroke-width="1">
            <path d="M0,0H152.111a0,0,0,0,1,0,0V90a20,20,0,0,1-20,20H0a0,0,0,0,1,0,0V0A0,0,0,0,1,0,0Z" stroke="none"/>
            <path d="M1,.5H151.111a.5.5,0,0,1,.5.5V90a19.5,19.5,0,0,1-19.5,19.5H1a.5.5,0,0,1-.5-.5V1A.5.5,0,0,1,1,.5Z" fill="none"/>
          </g>
          <g id="Button_Arrow" data-name="Button Arrow" transform="translate(69.173 40.176)">
            <line id="Line_1" data-name="Line 1" x1="16.118" y1="16.053" transform="translate(16.118 16.053) rotate(180)" fill="none" stroke="#000" stroke-linecap="round" stroke-width="2"/>
            <line id="Line_2" data-name="Line 2" x1="15.976" y2="16.196" transform="translate(16.118 32.249) rotate(180)" fill="none" stroke="#000" stroke-linecap="round" stroke-width="2"/>
          </g>
        </g>
        <g id="Button_Left_Arrow" data-name="Button Left Arrow" transform="translate(7.098 609.361)">
          <g id="Rectangle_24" data-name="Rectangle 24" transform="translate(0 0)" fill="#fff" stroke="#707070" stroke-width="1">
            <path d="M0,0H152.111a0,0,0,0,1,0,0V110a0,0,0,0,1,0,0H20A20,20,0,0,1,0,90V0A0,0,0,0,1,0,0Z" stroke="none"/>
            <path d="M1,.5H151.111a.5.5,0,0,1,.5.5V109a.5.5,0,0,1-.5.5H20A19.5,19.5,0,0,1,.5,90V1A.5.5,0,0,1,1,.5Z" fill="none"/>
          </g>
          <g id="Group_101" data-name="Group 101" transform="translate(67.657 39.92)">
            <line id="Line_1-2" data-name="Line 1" x1="16.118" y2="16.053" transform="translate(0 0)" fill="none" stroke="#000" stroke-linecap="round" stroke-width="2"/>
            <line id="Line_2-2" data-name="Line 2" x1="15.973" y1="16.196" transform="translate(0 16.052)" fill="none" stroke="#000" stroke-linecap="round" stroke-width="2"/>
          </g>
        </g>
        <g id="Button_ShowAnswer" data-name="Button ShowAnswer" transform="translate(158.202 609.356)">
          <g id="Path_77" data-name="Path 77" transform="translate(0 0)" fill="#fff">
            <path d="M 202.1378936767578 109.4982986450195 L 0.4999968409538269 108.8159332275391 L 0.4999968409538269 0.5 L 202.1378936767578 0.5 L 202.1378936767578 109.4982986450195 Z" stroke="none"/>
            <path d="M 1 1 L 1 108.3176116943359 L 201.6378936767578 108.9966049194336 L 201.6378936767578 1 L 1 1 M 0 0 L 202.6378936767578 0 L 202.6378936767578 110 L 0 109.3142395019531 L 0 0 Z" stroke="none" fill="#707070"/>
          </g>
          <text id="Show_Answer_" data-name="Show Answer
" transform="translate(30.768 38.375)" font-size="24" font-family="Kanit-Regular, Kanit"><tspan x="0" y="26">Show Answer</tspan></text>
        </g>
      </g>
      <g id="Number_Card" data-name="Number Card" transform="translate(0)">
        <text id="_02_" data-name="02
" transform="translate(248.685 537.693)" fill="#151515" font-size="67" font-family="Kanit-SemiBold, Kanit" font-weight="600"><tspan x="-39.463" y="0">02</tspan><tspan x="0" y="100"></tspan></text>
      </g>
    </g>
    <g id="Button_Show" data-name="Button Show" transform="translate(170.694 883.027)">
      <g  class='frame__border' opacity='1' data-name="Group 79">
        <g id="Rectangle_44"  data-name="Rectangle 44" transform="translate(-0.112 0.226)" fill="none" stroke="#a21934" stroke-width="8">
          <rect width="400"  height="130" rx="20" stroke="none"/>
          <rect x="4" y="4"  width="392" height="122" rx="16" fill="none"/>
        </g>
        <text id="Buttons-2"  data-name="Buttons" transform="translate(199.888 83.226)" fill="#fff" font-size="51" font-family="Kanit-Regular, Kanit"><tspan x="-90.525" y="0">Buttons</tspan></text>
      </g>
      <g id="Group_99" class='frame__arrow' opacity='1' data-name="Group 99" transform="translate(395.201 -30.806)">
        <path id="Path_73" data-name="Path 73" d="M4266.192,258.118c118.845-19.043,203.277-99.93,227.841-117.2" transform="translate(-4266.961 -116.086)" fill="none" stroke="#a21934" stroke-width="8"/>
        <path id="chevron-right" d="M0,59.758,29.879,29.879,0,0" transform="translate(187.043 21.128) rotate(-45)" fill="none" stroke="#a41934" stroke-linecap="round" stroke-linejoin="round" stroke-width="8"/>
      </g>
    </g>
    <g id="Number_Card_Show" data-name="Number Card Show" transform="translate(125.96 24.869)">
      <g class='frame__arrow' opacity='1'>
        <path id="Path_73-2" data-name="Path 73" d="M0,118.2C139.317,99.158,237.392,17.267,266.188,0" transform="translate(928.636 815.057) rotate(-135)" fill="none" stroke="#a41934" stroke-width="8"/>
        <path id="chevron-right-2" data-name="chevron-right" d="M5.147,64.9,35.026,35.026,0,0" transform="translate(770.972 662.637) rotate(180)" fill="none" stroke="#a41934" stroke-linecap="round" stroke-linejoin="round" stroke-width="8"/>
      </g>
      <g  class='frame__border' opacity='1' data-name="Group 79" transform="translate(997.657 724.155)">
        <text id="Number_Card-2" data-name="Number Card" transform="translate(199.926 83.098)" fill="#fff" font-size="51" font-family="Kanit-Regular, Kanit"><tspan x="-149.787" y="0">Number Card</tspan></text>
        <g id="Rectangle_44-2" data-name="Rectangle 44" transform="translate(-0.074 0.098)" fill="none" stroke="#a41934" stroke-width="10">
          <rect width="400" height="130" rx="20" stroke="none"/>
          <rect x="5" y="5" width="390" height="120" rx="15" fill="none"/>
        </g>
      </g>
    </g>
    <g id="Question_Show"  data-name="Question Show" transform="translate(1112.973 347.929)">
      <g id="Group_102"  class='frame__border' opacity='1' data-name="Group 102" transform="translate(-121 -167)">
        <g id="Rectangle_44-3"  data-name="Rectangle 44" transform="translate(-0.39 0.324)" fill="none" stroke="#a41934" stroke-width="10">
          <rect width="400" height="130" rx="20" stroke="none"/>
          <rect x="5" y="5"  width="390" height="120" rx="15" fill="none"/>
        </g>
        <text id="Queston" transform="translate(199.61 83.324)" fill="#fff" font-size="51" font-family="Kanit-Regular, Kanit"><tspan x="-96.237" y="0">Answer</tspan></text>
      </g>
      <g class='frame__arrow' opacity='1' data-name="arrow__show" transform="translate(-52.59 -92.388) rotate(142)">
        <path id="Path_73-3" data-name="Path 73" d="M0,62.754C114.156,52.914,196.374,8.922,219.97,0" transform="translate(0 26.107)" fill="none" stroke="#a41934" stroke-width="8"/>
        <path id="chevron-right-3" data-name="chevron-right" d="M0,57.31,28.655,28.655,0,0" transform="translate(180.632 14.328) rotate(-30)" fill="none" stroke="#a41934" stroke-linecap="round" stroke-linejoin="round" stroke-width="8"/>
      </g>
    </g>
    <g id="Type_Language_Show" data-name="Type Language Show">
      <g class='frame__arrow' opacity='1' data-name="arrow__show">
        <path id="Path_73-4" data-name="Path 73" d="M0,123.739C124.413,103.8,212,18.076,237.711,0" transform="matrix(0.574, 0.819, -0.819, 0.574, 551.076, 10.009)" fill="none" stroke="#a41934" stroke-width="8"/>
        <path id="chevron-right-4" data-name="chevron-right" d="M0,61.094,30.547,30.547,0,0" transform="translate(667.053 169.033) rotate(10)" fill="none" stroke="#a41934" stroke-linecap="round" stroke-linejoin="round" stroke-width="8"/>
      </g>
      <g  class='frame__border' opacity='1' data-name="Type Language" transform="translate(53 10.183)">
        <g id="Rectangle_44-4" data-name="Rectangle 44" transform="translate(0.583 0.069)" fill="none" stroke="#a41934" stroke-width="10">
          <rect width="400" height="130" rx="20" stroke="none"/>
          <rect x="5" y="5" width="390" height="120" rx="15" fill="none"/>
        </g>
        <text id="Type_Language-3" data-name="Type Language" transform="translate(200.582 83.069)" fill="#fff" font-size="51" font-family="Kanit-Regular, Kanit"><tspan x="-173.017" y="0">Type Language</tspan></text>
      </g>
    </g>
  </g>
</svg>
