<svg xmlns="http://www.w3.org/2000/svg" xmlns:xlink="http://www.w3.org/1999/xlink" viewBox="0 0 1469.96 1005.635">
  <defs>
    <filter id="Path_78" x="612.569" y="141.756" width="227.742" height="227.788" filterUnits="userSpaceOnUse">
      <feOffset dx="15" dy="15" input="SourceAlpha"/>
      <feGaussianBlur stdDeviation="10" result="blur"/>
      <feFlood flood-opacity="0.161"/>
      <feComposite operator="in" in2="blur"/>
      <feComposite in="SourceGraphic"/>
    </filter>
  </defs>
  <g id="Card_SVG" data-name="Card SVG" transform="translate(-53.583 -7.614)">
    <g id="Card" opacity=0 transform="translate(717.351 85.384) rotate(30)">
      <path id="Card__Body" d="M23.331,0l456.115-.06c12.885,0,23.329,10.979,23.328,24.526l-.087,670.866c0,13.547-10.449,24.53-23.334,24.532l-456.115.06c-12.885,0-23.329-10.979-23.328-24.526L0,24.529C0,10.982,10.446,0,23.331,0Z" transform="translate(0.054 0)" fill="#fff"/>
      <path id="Card__Wave" d="M498.888,631.236C472.57,790.651,357.41,525.433,97.543,452.082c-210.677-59.466-17.258-310.127.054-417.513,9.646-59.831,264.823-52.633,348.77,106.6C523.873,288.179,427.8,583.946,498.888,631.236Z" transform="translate(2.19 26.242)" fill="#f8e22e"/>
      <g id="Type_Language" data-name="Type Language" transform="translate(61.366 55.8)">
        <text id="JavaScript" transform="translate(174.708 72.058)" fill="#151515" font-size="39" font-family="Kanit-Bold, Kanit" font-weight="700"><tspan x="0" y="0">JavaScript</tspan></text>
        <g id="Icon_JavaScript" data-name="Icon JavaScript" transform="translate(0 0)">
          <g id="javascript-programming-language" transform="translate(0 0)">
            <g transform="matrix(0.87, -0.5, 0.5, 0.87, -675.09, 208.73)" filter="url(#Path_78)">
              <path id="Path_78-2" data-name="Path 78" d="M0,0,122.733-.016l-.016,122.86L-.016,122.86Z" transform="matrix(0.87, 0.5, -0.5, 0.87, 689.01, 156.78)" fill="#f7df1e" fill-rule="evenodd"/>
            </g>
            <path id="Path_79" data-name="Path 79" d="M-.006,46.968l9.391-5.7c1.808,3.222,3.455,5.944,7.411,5.944,3.786,0,6.183-1.482,6.184-7.267l.005-39.3,11.537,0-.005,39.462c0,11.97-7,17.415-17.224,17.416-9.23,0-14.584-4.782-17.3-10.556ZM40.78,45.722l9.391-5.446c2.477,4.043,5.683,7.015,11.367,7.014,4.775,0,7.832-2.393,7.832-5.7,0-3.963-3.126-5.364-8.4-7.675l-2.887-1.241c-8.32-3.552-13.844-8-13.843-17.412C44.241,6.6,50.835-.007,61.134-.008c7.332,0,12.606,2.56,16.391,9.245l-8.981,5.776c-1.977-3.553-4.115-4.954-7.411-4.953-3.376,0-5.524,2.142-5.525,4.955,0,3.463,2.137,4.874,7.081,7.015l2.887,1.241c9.809,4.212,15.322,8.5,15.321,18.163,0,10.4-8.163,16.094-19.121,16.1-10.7,0-17.62-5.122-21-11.807Zm0,0Z" transform="translate(32.267 55.686)" fill-rule="evenodd"/>
          </g>
        </g>
      </g>
      <g id="Question" transform="translate(58.151 320.966)">
        <text id="What_is_hoisting_" data-name="What is hoisting ? " transform="translate(0 0)" fill="#151515" font-size="43" font-family="Kanit-SemiBold, Kanit" font-weight="600"><tspan x="15.733" y="47">What is hoisting ? </tspan></text>
      </g>
      <g id="Buttons" transform="translate(-0.24 615.323)">
        <g id="Button__Right__Arrow" transform="translate(351.701 -0.046)">
          <g id="Rectangle_25" data-name="Rectangle 25" transform="translate(0 0)" fill="#fff" stroke="#707070" stroke-width="1">
            <path d="M0,0H151.64a0,0,0,0,1,0,0V89.517a20,20,0,0,1-20,20H0a0,0,0,0,1,0,0V0A0,0,0,0,1,0,0Z" stroke="none"/>
            <path d="M1,.5H150.64a.5.5,0,0,1,.5.5V89.517a19.5,19.5,0,0,1-19.5,19.5H1a.5.5,0,0,1-.5-.5V1A.5.5,0,0,1,1,.5Z" fill="none"/>
          </g>
          <g id="Button_Arrow" data-name="Button Arrow" transform="translate(69.003 39.882)">
            <line id="Line_1" data-name="Line 1" x1="16.026" y1="16.143" transform="translate(16.026 16.143) rotate(180)" fill="none" stroke="#000" stroke-linecap="round" stroke-width="2"/>
            <line id="Line_2" data-name="Line 2" x1="15.891" y2="16.291" transform="translate(16.028 32.438) rotate(180)" fill="none" stroke="#000" stroke-linecap="round" stroke-width="2"/>
          </g>
        </g>
        <g id="Button_Left_Arrow" data-name="Button Left Arrow" transform="translate(0 0.156)">
          <g id="Rectangle_24" data-name="Rectangle 24" transform="translate(0 0)" fill="#fff" stroke="#707070" stroke-width="1">
            <path d="M0,0H151.743a0,0,0,0,1,0,0V109.411a0,0,0,0,1,0,0H20a20,20,0,0,1-20-20V0A0,0,0,0,1,0,0Z" stroke="none"/>
            <path d="M1,.5H150.743a.5.5,0,0,1,.5.5V108.411a.5.5,0,0,1-.5.5H20A19.5,19.5,0,0,1,.5,89.411V1A.5.5,0,0,1,1,.5Z" fill="none"/>
          </g>
          <g id="Group_101" data-name="Group 101" transform="translate(67.492 39.453)">
            <line id="Line_1-2" data-name="Line 1" x1="16.031" y2="16.147" transform="translate(0 0)" fill="none" stroke="#000" stroke-linecap="round" stroke-width="2"/>
            <line id="Line_2-2" data-name="Line 2" x1="15.885" y1="16.287" transform="translate(0 16.151)" fill="none" stroke="#000" stroke-linecap="round" stroke-width="2"/>
          </g>
        </g>
        <g id="Button_ShowAnswer" data-name="Button ShowAnswer" transform="translate(150.542 0.125)">
          <g id="Path_77" data-name="Path 77" transform="translate(0 0)" fill="#fff">
            <path d="M 201.8175354003906 108.9024353027344 L 0.5000569820404053 108.2498474121094 L 0.5142257213592529 0.52614426612854 L 201.8317718505859 0.5000737905502319 L 201.8175354003906 108.9024353027344 Z" stroke="none"/>
            <path d="M 201.3317108154297 1.000137329101563 L 1.01416015625 1.02606201171875 L 1.0001220703125 107.7514495849609 L 201.3175811767578 108.4008102416992 L 201.3317108154297 1.000137329101563 M 202.3318328857422 7.62939453125e-06 L 202.3174438476563 109.4040603637695 L 0 108.7482147216797 L 0.0142822265625 0.02619171142578125 L 202.3318328857422 7.62939453125e-06 Z" stroke="none" fill="#707070"/>
          </g>
          <text id="Show_Answer_" data-name="Show Answer
" transform="translate(30.73 38.021)" font-size="24" font-family="Kanit-Regular, Kanit"><tspan x="0" y="26">Show Answer</tspan></text>
        </g>
      </g>
      <g id="Number_Card" data-name="Number Card" transform="translate(209.652 463.547)">
        <text id="_02_" data-name="02
" transform="translate(37 69)" fill="#151515" font-size="63" font-family="Kanit-SemiBold, Kanit" font-weight="600"><tspan x="-37.107" y="0">02</tspan><tspan x="0" y="94"></tspan></text>
      </g>
    </g>
    <g id="Group_103" data-name="Group 103" transform="translate(170.583 452.457)">
      <g id="Button_Show" data-name="Button Show" transform="translate(0 294.76)">
        <g class='frame__border' opacity=0 data-name="Group 79" transform="translate(0 136.032)">
          <g id="Rectangle_44" data-name="Rectangle 44" fill="none" stroke="#a21934" stroke-width="8">
            <rect width="400" height="130" rx="20" stroke="none"/>
            <rect x="4" y="4" width="392" height="122" rx="16" fill="none"/>
          </g>
          <text id="Buttons-2" data-name="Buttons" transform="translate(200 83)" fill="#fff" font-size="51" font-family="Kanit-Regular, Kanit"><tspan x="-90.525" y="0">Buttons</tspan></text>
        </g>
        <g class='frame__arrow' opacity=0 data-name="Group 99" transform="translate(99.41)">
          <path id="Path_73" data-name="Path 73" d="M4264.2,255.341c118.845-19.043,205.27-97.153,229.834-114.42" transform="translate(-4264.2 -115.053)" fill="none" stroke="#a21934" stroke-width="8"/>
          <path id="chevron-right" d="M0,59.758,29.879,29.879,0,0" transform="translate(189.804 21.128) rotate(-45)" fill="none" stroke="#a41934" stroke-linecap="round" stroke-linejoin="round" stroke-width="8"/>
        </g>
      </g>
      <g id="Number_Card_Show" data-name="Number Card Show" transform="translate(603.99 101.876)">
        <g class='frame__arrow' opacity=0>
          <path id="Path_73-2" data-name="Path 73" d="M0,175.628C118.944,130.37,211.912,23.881,238.294,0" transform="translate(173.192 292.688) rotate(-135)" fill="none" stroke="#a41934" stroke-width="8"/>
          <path id="chevron-right-2" data-name="chevron-right" d="M5.407,49.232,36.8,26.568,0,0" transform="translate(36.797 151.346) rotate(180)" fill="none" stroke="#a41934" stroke-linecap="round" stroke-linejoin="round" stroke-width="8"/>
        </g>
        <g class='frame__border' opacity=0 data-name="Group 79" transform="translate(203.97 162.688)">
          <text id="Number_Card-2" data-name="Number Card" transform="translate(200 83)" fill="#fff" font-size="51" font-family="Kanit-Regular, Kanit"><tspan x="-149.787" y="0">Number Card</tspan></text>
          <g id="Rectangle_44-2" data-name="Rectangle 44" fill="none" stroke="#a41934" stroke-width="10">
            <rect width="400" height="130" rx="20" stroke="none"/>
            <rect x="5" y="5" width="390" height="120" rx="15" fill="none"/>
          </g>
        </g>
      </g>
      <g id="Question_Show" data-name="Question Show" transform="translate(702.284)">
        <g class='frame__border' opacity=0 data-name="Group 102" transform="translate(250.676 4.657)">
          <g id="Rectangle_44-3" data-name="Rectangle 44" fill="none" stroke="#a41934" stroke-width="10">
            <rect width="400" height="130" rx="20" stroke="none"/>
            <rect x="5" y="5" width="390" height="120" rx="15" fill="none"/>
          </g>
          <text id="Question-2" data-name="Question" transform="translate(200 83)" fill="#fff" font-size="51" font-family="Kanit-Regular, Kanit"><tspan x="-103.505" y="0">Question</tspan></text>
        </g>
        <g class='frame__arrow' opacity=0 data-name="arrow__show" transform="matrix(-0.966, -0.259, 0.259, -0.966, 235.784, 152.677)">
          <path id="Path_73-3" data-name="Path 73" d="M0,65.434C119.032,55.174,204.761,9.3,229.364,0" transform="translate(0 27.222)" fill="none" stroke="#a41934" stroke-width="8"/>
          <path id="chevron-right-3" data-name="chevron-right" d="M0,59.758,29.879,29.879,0,0" transform="translate(188.347 14.939) rotate(-30)" fill="none" stroke="#a41934" stroke-linecap="round" stroke-linejoin="round" stroke-width="8"/>
        </g>
      </g>
    </g>
    <g class='frame__border' opacity=0 data-name="Type Language Show" transform="translate(53.583 10.009)">
      <g class='frame__arrow' opacity=0 data-name="arrow__show" transform="translate(396.132 0)">
        <path id="Path_73-4" data-name="Path 73" d="M0,123.739C124.413,103.8,212,18.076,237.711,0" transform="matrix(0.574, 0.819, -0.819, 0.574, 101.361, 0)" fill="none" stroke="#a41934" stroke-width="8"/>
        <path id="chevron-right-4" data-name="chevron-right" d="M0,61.094,30.547,30.547,0,0" transform="translate(217.338 159.023) rotate(10)" fill="none" stroke="#a41934" stroke-linecap="round" stroke-linejoin="round" stroke-width="8"/>
      </g>
      <g id="Type_Language-2" data-name="Type Language" transform="translate(0 0.243)">
        <g id="Rectangle_44-4" data-name="Rectangle 44" fill="none" stroke="#a41934" stroke-width="10">
          <rect width="400" height="130" rx="20" stroke="none"/>
          <rect x="5" y="5" width="390" height="120" rx="15" fill="none"/>
        </g>
        <text id="Type_Language-3" data-name="Type Language" transform="translate(200 83)" fill="#fff" font-size="51" font-family="Kanit-Regular, Kanit"><tspan x="-173.017" y="0">Type Language</tspan></text>
      </g>
    </g>
  </g>
</svg>
