<?xml version="1.0" encoding="utf-8"?><svg version="1.1" id="Layer_1" xmlns="http://www.w3.org/2000/svg" xmlns:xlink="http://www.w3.org/1999/xlink" x="0px" y="0px" fill="#e9e9e9" viewBox="0 0 122.88 83.21" style="enable-background:new 0 0 122.88 83.21" xml:space="preserve"><g><path d="M15.2,70.87c0,4.2-3.4,7.6-7.6,7.6c-4.2,0-7.6-3.4-7.6-7.6V12.35c0-4.2,3.4-7.6,7.6-7.6c4.2,0,7.6,3.4,7.6,7.6V70.87 L15.2,70.87z M35.7,36.78L63.14,2.83c2.62-3.26,7.4-3.78,10.66-1.16c3.26,2.62,3.78,7.4,1.16,10.66l-17.55,21.7l57.9-0.02 c4.18,0,7.57,3.39,7.57,7.57s-3.39,7.57-7.57,7.57L57.4,49.17l17.55,21.72c2.62,3.26,2.1,8.03-1.16,10.66 c-3.26,2.62-8.03,2.1-10.66-1.16L35.7,46.43l-0.06-0.08l-0.24-0.31l-0.04-0.06l-0.07-0.1l-0.04-0.05l-0.07-0.11l-0.1-0.16 l-0.03-0.04l-0.07-0.12l-0.02-0.04l-0.07-0.13l-0.02-0.04l-0.07-0.13l-0.02-0.03l-0.07-0.14l-0.01-0.03l-0.07-0.14l-0.01-0.03 l-0.06-0.14l-0.01-0.02l-0.06-0.15l-0.01-0.02l-0.06-0.15l0-0.02l-0.11-0.33l0-0.01l-0.1-0.34l0-0.01l-0.04-0.17v-0.01l-0.04-0.17 v-0.01l-0.03-0.17v0l-0.03-0.18v0l-0.02-0.18h0l-0.02-0.18v0l-0.02-0.18l-0.01-0.18h0l-0.01-0.18l0-0.18v-0.18l0-0.18l0.01-0.18h0 l0.01-0.18l0.02-0.18v0l0.02-0.18h0l0.02-0.18v0l0.03-0.18v0l0.03-0.17v-0.01l0.04-0.17v-0.01l0.04-0.17l0-0.01l0.1-0.34l0-0.01 l0.11-0.33l0-0.02l0.06-0.15l0.01-0.02l0.06-0.15l0.01-0.02l0.06-0.14l0.01-0.03l0.07-0.14l0.01-0.03l0.07-0.14l0.02-0.03 l0.07-0.13l0.02-0.04l0.07-0.13l0.02-0.04l0.07-0.12l0.03-0.04l0.1-0.16l0.07-0.11l0.04-0.05l0.07-0.1l0.04-0.06l0.24-0.31 L35.7,36.78L35.7,36.78z"/></g></svg>
