<svg xmlns="http://www.w3.org/2000/svg" width="1711.629" height="1065.934" viewBox="0 0 1711.629 1065.934">
  <g id="Group_20" data-name="Group 20" transform="translate(2.5 447.172)">
    <path id="Path_134" data-name="Path 134" d="M0,0,1682.541,1.11s156.759,792.8-263.877,1001.315S0,835.152,0,835.152Z" transform="translate(-2 -446.671)" fill="#221f63"/>
    <path id="Path_135" data-name="Path 135" d="M0,0,1682.541,1.11s156.759,792.8-263.877,1001.315S0,835.152,0,835.152Z" transform="translate(-2 -446.671)" fill="#9c1936" opacity="0.26"/>
    <g id="Path_112" data-name="Path 112" transform="translate(-2 -373.684)" fill="#a01934">
      <path d="M1071.87,508h0Z" stroke="none"/>
      <path d="M 0 508 L 1071.870361328125 508 L 0 508 Z" stroke="none" fill="#707070"/>
    </g>
    <path id="Path_19" data-name="Path 19" d="M0,0,1437.252.819S1571.158,586.2,1211.845,740.163,0,616.653,0,616.653Z" transform="translate(-2 -446.671)" fill="#a91932" opacity="0.45"/>
    <path id="Path_16" data-name="Path 16" d="M0,0,437.541.3s40.765,213.069-68.621,269.107S0,224.45,0,224.45Z" transform="translate(-2 -446.671)" fill="#a91932"  opacity="0.45"/>
    <path id="Path_18" data-name="Path 18" d="M0,0,1264.781.6s117.837,428.564-198.359,541.278S0,451.456,0,451.456Z" transform="translate(-2 -446.671)" fill="#a91932" opacity="0.39"/>
    <path id="Path_14" data-name="Path 14" d="M-59-208l298.89.2S267.737-66.286,193.014-29.067-59-58.925-59-58.925Z" transform="translate(57 -238.671)" fill="#a91932" opacity="0.45"/>
  </g>
</svg>
