<svg xmlns="http://www.w3.org/2000/svg" width="166" height="82.978" viewBox="0 0 166 82.978">
  <g id="Group_74" data-name="Group 74" transform="translate(-149.624 -305.64)">
    <g id="video-game" transform="translate(202.008 305.64)">
      <g id="Group_62" data-name="Group 62" transform="translate(0 0)">
        <path id="Path_60" data-name="Path 60" d="M60.156,199.09l-3.285-21.23a.881.881,0,1,0-1.742.27l3.285,21.229a4.569,4.569,0,0,1-4.514,5.267,8.152,8.152,0,0,1-6.836-3.691l-3.582-5.46a5.161,5.161,0,0,0-4.328-2.337h-.691v-1.132a2.929,2.929,0,0,0-2.925-2.926H24.693a2.929,2.929,0,0,0-2.925,2.926v1.132h-.691a5.161,5.161,0,0,0-4.328,2.337l-3.582,5.46a8.152,8.152,0,0,1-6.836,3.691,4.569,4.569,0,0,1-4.514-5.267l.584-3.776a.881.881,0,1,0-1.742-.27L.075,199.09a6.332,6.332,0,0,0,6.255,7.3,9.909,9.909,0,0,0,8.31-4.487l3.582-5.46a3.4,3.4,0,0,1,2.854-1.541H39.155a3.4,3.4,0,0,1,2.854,1.541l3.582,5.46a9.909,9.909,0,0,0,8.31,4.487A6.332,6.332,0,0,0,60.156,199.09ZM36.7,193.138H23.53v-1.132a1.164,1.164,0,0,1,1.163-1.163H35.538a1.164,1.164,0,0,1,1.163,1.163Z" transform="translate(0 -166.411)" fill="#fff"/>
        <path id="Path_61" data-name="Path 61" d="M11.628,111.9a.881.881,0,0,0,1.006-.736l2.9-18.709a5.4,5.4,0,0,1,5.341-4.593l5.481-.021a5.059,5.059,0,0,1,3.2,1.133,6.766,6.766,0,0,0,4.449,1.6c1.495-.008,9.929-.008,11.424,0a7.11,7.11,0,0,0,4.449-1.6,5.051,5.051,0,0,1,3.205-1.133l5.48.021a5.4,5.4,0,0,1,5.341,4.593l.2,1.27a.881.881,0,0,0,1.742-.269l-.2-1.27a7.155,7.155,0,0,0-7.076-6.086l-5.479-.022h-.035a6.8,6.8,0,0,0-4.294,1.531,5.379,5.379,0,0,1-3.324,1.2c-1.5-.008-9.946-.008-11.443,0a5.2,5.2,0,0,1-3.324-1.2,6.8,6.8,0,0,0-4.293-1.531h-.035l-5.48.022a7.155,7.155,0,0,0-7.076,6.086l-2.9,18.709a.881.881,0,0,0,.736,1.005Z" transform="translate(-9.602 -86.084)" fill="#fff"/>
        <path id="Path_62" data-name="Path 62" d="M342.328,140.125a3.312,3.312,0,1,0-3.312-3.312A3.316,3.316,0,0,0,342.328,140.125Zm0-4.862a1.55,1.55,0,1,1-1.55,1.55A1.552,1.552,0,0,1,342.328,135.262Z" transform="translate(-299.131 -127.926)" fill="#c93434"/>
        <path id="Path_63" data-name="Path 63" d="M342.328,235.384a3.312,3.312,0,1,0-3.312-3.312A3.316,3.316,0,0,0,342.328,235.384Zm0-4.862a1.551,1.551,0,1,1-1.55,1.551A1.552,1.552,0,0,1,342.328,230.521Z" transform="translate(-299.131 -211.973)" fill="#c93434"/>
        <path id="Path_64" data-name="Path 64" d="M393.269,184.442a3.312,3.312,0,1,0-3.312,3.312A3.316,3.316,0,0,0,393.269,184.442Zm-4.862,0a1.55,1.55,0,1,1,1.55,1.55A1.552,1.552,0,0,1,388.407,184.442Z" transform="translate(-341.151 -169.947)" fill="#c93434"/>
        <path id="Path_65" data-name="Path 65" d="M291.386,184.442a3.312,3.312,0,1,0,3.312-3.312A3.316,3.316,0,0,0,291.386,184.442Zm4.862,0a1.551,1.551,0,1,1-1.551-1.551A1.552,1.552,0,0,1,296.248,184.442Z" transform="translate(-257.105 -169.947)" fill="#c93434"/>
        <path id="Path_66" data-name="Path 66" d="M77.126,156.536a3.062,3.062,0,0,0,3.059-3.059v-1.993h1.993a3.059,3.059,0,1,0,0-6.118H80.184v-1.993a3.059,3.059,0,0,0-6.118,0v1.993H72.074a3.059,3.059,0,0,0,0,6.118h1.993v1.993A3.062,3.062,0,0,0,77.126,156.536Zm-5.052-6.813a1.3,1.3,0,0,1,0-2.595h2.874a.881.881,0,0,0,.881-.881v-2.874a1.3,1.3,0,1,1,2.595,0v2.874a.881.881,0,0,0,.881.881h2.874a1.3,1.3,0,0,1,0,2.595H79.3a.881.881,0,0,0-.881.881v2.874a1.3,1.3,0,0,1-2.595,0V150.6a.881.881,0,0,0-.881-.881Z" transform="translate(-60.901 -133.933)" fill="#34c972"/>
      </g>
    </g>
    <text id="FlashCards" transform="translate(149.624 375.618)" fill="#fff" font-size="33" font-family="Kanit-Medium, Kanit" font-weight="500"><tspan x="0" y="0">FlashCards</tspan></text>
  </g>
</svg>
