<svg xmlns="http://www.w3.org/2000/svg" xmlns:xlink="http://www.w3.org/1999/xlink" viewBox="0 0 1480.452 1124.246">
  <defs>
    <filter id="javascript" x="32.387" y="144.783" width="199.335" height="199.335" filterUnits="userSpaceOnUse">
      <feOffset dx="15" dy="15" input="SourceAlpha"/>
      <feGaussianBlur stdDeviation="10" result="blur"/>
      <feFlood flood-opacity="0.161"/>
      <feComposite operator="in" in2="blur"/>
      <feComposite in="SourceGraphic"/>
    </filter>
    <filter id="css3" x="502.741" y="72.069" width="175.265" height="182.661" filterUnits="userSpaceOnUse">
      <feOffset dx="15" dy="15" input="SourceAlpha"/>
      <feGaussianBlur stdDeviation="10" result="blur-2"/>
      <feFlood flood-opacity="0.161"/>
      <feComposite operator="in" in2="blur-2"/>
      <feComposite in="SourceGraphic"/>
    </filter>
    <filter id="html5" x="969.563" y="225.283" width="214.182" height="214.902" filterUnits="userSpaceOnUse">
      <feOffset dx="15" dy="15" input="SourceAlpha"/>
      <feGaussianBlur stdDeviation="10" result="blur-3"/>
      <feFlood flood-opacity="0.161"/>
      <feComposite operator="in" in2="blur-3"/>
      <feComposite in="SourceGraphic"/>
    </filter>
  </defs>
  <g id="Group_166" data-name="Group 166" transform="translate(-867.371 -115.524)">
    <g id="Card-3" transform="translate(-218.963 615.593) rotate(-30)">
      <path id="Path_7" data-name="Path 7" d="M18.529,0H380.779a18.743,18.743,0,0,1,18.529,18.949V537.208a18.743,18.743,0,0,1-18.529,18.949H18.529A18.743,18.743,0,0,1,0,537.208V18.949A18.743,18.743,0,0,1,18.529,0Z" transform="translate(1091 283)" fill="#fff"/>
      <path id="Path_6" data-name="Path 6" d="M1558.841,152.249c.282,9.992,4.083,375.2-5.749,433.108-20.912,123.172-133.617-38.2-340.287-94.9-39.039-10.711-50.085-25.709-49.505-43.866,1.865-58.565,165.684-147.826,176.236-211.465C1354.276,146.222,1562.142,150.838,1558.841,152.249Z" transform="translate(-68.571 206.547)" fill="#f7dc00" opacity="0.82"/>
      <text id="JavaScript-2" data-name="JavaScript" transform="translate(1288.104 375.147)" fill="#151515" font-size="34" font-family="Kanit-Bold, Kanit" font-weight="700"><tspan x="0" y="0">JavaScript</tspan></text>
      <text id="_What_is_object.freeze_" data-name="
What is
object.freeze()?" transform="translate(1307.47 457.439)" fill="#151515" font-size="36" font-family="Kanit-Bold, Kanit" font-weight="700"><tspan x="0" y="0"></tspan><tspan font-size="38"><tspan x="-68.704" y="56">What is </tspan><tspan x="-138.301" y="113">object.freeze()?</tspan></tspan></text>
      <g id="Rectangle_24" data-name="Rectangle 24" transform="translate(1091.919 754.599)" fill="#fff" stroke="#707070" stroke-width="1">
        <path d="M0,0H119.484a0,0,0,0,1,0,0V84.558a0,0,0,0,1,0,0H20a20,20,0,0,1-20-20V0A0,0,0,0,1,0,0Z" stroke="none"/>
        <path d="M1,.5H118.484a.5.5,0,0,1,.5.5V83.558a.5.5,0,0,1-.5.5H20A19.5,19.5,0,0,1,.5,64.558V1A.5.5,0,0,1,1,.5Z" fill="none"/>
      </g>
      <g id="Rectangle_25" data-name="Rectangle 25" transform="translate(1373.581 754.599)" fill="#fff" stroke="#707070" stroke-width="1">
        <path d="M0,0H119.484a0,0,0,0,1,0,0V64.558a20,20,0,0,1-20,20H0a0,0,0,0,1,0,0V0A0,0,0,0,1,0,0Z" stroke="none"/>
        <path d="M1,.5H118.484a.5.5,0,0,1,.5.5V64.558a19.5,19.5,0,0,1-19.5,19.5H1a.5.5,0,0,1-.5-.5V1A.5.5,0,0,1,1,.5Z" fill="none"/>
      </g>
      <g id="Rectangle_26" data-name="Rectangle 26" transform="translate(1210.986 754.599)" fill="#fff" stroke="#707070" stroke-width="1">
        <rect width="163.006" height="84.558" stroke="none"/>
        <rect x="0.5" y="0.5" width="162.006" height="83.558" fill="none"/>
      </g>
      <g id="Arrow_Card" data-name="Arrow Card" transform="translate(-302.861 1090.4) rotate(-45)">
        <line id="Line_12" data-name="Line 12" y1="15.875" transform="translate(1231.895 817.528)" fill="none" stroke="#010101" stroke-linecap="round" stroke-width="1"/>
        <line id="Line_13" data-name="Line 13" x1="15.925" y1="0.073" transform="translate(1231.896 817.528)" fill="none" stroke="#010101" stroke-linecap="round" stroke-width="1"/>
      </g>
      <text id="Show_answer_" data-name="Show answer
" transform="translate(1240.987 800.334)" font-size="18" font-family="Kanit-Regular, Kanit"><tspan x="0" y="0">Show answer</tspan><tspan x="0" y="27"></tspan></text>
      <text id="_01" data-name="01" transform="translate(1292.847 695.924)" fill="#151515" font-size="74" font-family="Kanit-SemiBold, Kanit" font-weight="600"><tspan x="-37.37" y="0">01</tspan></text>
      <g id="Icon">
        <rect id="Rectangle_65" data-name="Rectangle 65" width="72.049" height="72.049" transform="translate(1150.202 345.381)" fill="#151515"/>
        <g transform="matrix(0.87, 0.5, -0.5, 0.87, 1190.83, 110.09)" filter="url(#javascript)">
          <path id="javascript-3" data-name="javascript" d="M0,0H102V102H0ZM93.645,77.673c-.744-4.654-3.774-8.564-12.763-12.21-3.128-1.466-6.6-2.486-7.637-4.845a5.018,5.018,0,0,1-.2-3c.638-2.745,3.889-3.57,6.439-2.8a6.914,6.914,0,0,1,4.148,3.825c4.395-2.873,4.395-2.873,7.459-4.781A17.541,17.541,0,0,0,88.6,50.545c-2.678-3-6.243-4.526-12.044-4.395l-3,.378A13.7,13.7,0,0,0,66.3,50.8c-4.845,5.487-3.447,15.049,2.418,19,5.8,4.335,14.284,5.287,15.368,9.371,1.02,4.973-3.7,6.566-8.356,5.992-3.447-.765-5.355-2.491-7.459-5.678L60.49,83.955c.893,2.04,1.912,2.928,3.443,4.713,7.4,7.463,25.883,7.08,29.2-4.267a14.385,14.385,0,0,0,.314-7.013l.2.285ZM55.467,46.882H45.913c0,8.236-.038,16.422-.038,24.671,0,5.236.268,10.043-.586,11.522-1.4,2.928-5.015,2.554-6.656,2.04a8.2,8.2,0,0,1-3.528-3.634,3.646,3.646,0,0,0-.54-.833l-7.756,4.781a15.032,15.032,0,0,0,5.627,6.447A18.7,18.7,0,0,0,46.066,93.6a11.937,11.937,0,0,0,7.7-6c2.167-3.952,1.708-8.8,1.687-14.22.051-8.73,0-17.463,0-26.261l.017-.238Z" transform="translate(47.39 210.78) rotate(-30)" fill="#f7df1e"/>
        </g>
      </g>
      <g id="Arrow_Card-2" data-name="Arrow Card" transform="translate(2889.109 503.897) rotate(135)">
        <line id="Line_12-2" data-name="Line 12" y1="16.236" transform="translate(1231.895 817.528)" fill="none" stroke="#010101" stroke-linecap="round" stroke-width="1"/>
        <line id="Line_13-2" data-name="Line 13" x1="16.288" y1="0.075" transform="translate(1231.896 817.528)" fill="none" stroke="#010101" stroke-linecap="round" stroke-width="1"/>
      </g>
    </g>
    <g id="Card-2" transform="translate(463.182 -506.858) rotate(20)">
      <path id="Path_7-2" data-name="Path 7" d="M21.53,0h420.9a21.53,21.53,0,0,1,21.53,21.53V610.363a21.53,21.53,0,0,1-21.53,21.53H21.53A21.53,21.53,0,0,1,0,610.363V21.53A21.53,21.53,0,0,1,21.53,0Z" transform="translate(1091 283)" fill="#fff"/>
      <path id="Path_6-2" data-name="Path 6" d="M1619.556,98.31s.467,91.024,2.031,199.792c.47,32.662,1.614,9.5.429,99.225s1.825,219.207-5.167,259.679c-24.38,141.107-125.574-94.277-366.511-159.235-195.331-52.662,78.354-193.457,94.392-288.51C1361.914,107.416,1490.972,122.877,1619.556,98.31Z" transform="translate(-64.737 204.016)" fill="#264de4" opacity="0.82"/>
      <text id="CSS_Style" data-name="CSS Style" transform="translate(1318.137 389.589)" fill="#151515" font-size="38" font-family="Kanit-Bold, Kanit" font-weight="700"><tspan x="0" y="0">CSS Style</tspan></text>
      <text id="What_is_a_::before_and_::after_" data-name="What is a
::before and ::after?" transform="translate(1319.429 545.451)" fill="#151515" font-size="43" font-family="Kanit-Bold, Kanit" font-weight="700"><tspan x="-94.364" y="0">What is a </tspan><tspan x="-189.028" y="64">::before and ::after?</tspan></text>
      <g id="Rectangle_24-2" data-name="Rectangle 24" transform="translate(1092.077 815.856)" fill="#fff" stroke="#707070" stroke-width="1">
        <path d="M0,0H139.942a0,0,0,0,1,0,0V99.036a0,0,0,0,1,0,0H20a20,20,0,0,1-20-20V0A0,0,0,0,1,0,0Z" stroke="none"/>
        <path d="M1,.5H138.942a.5.5,0,0,1,.5.5V98.036a.5.5,0,0,1-.5.5H20A19.5,19.5,0,0,1,.5,79.036V1A.5.5,0,0,1,1,.5Z" fill="none"/>
      </g>
      <g id="Rectangle_25-2" data-name="Rectangle 25" transform="translate(1418.249 815.856)" fill="#fff" stroke="#707070" stroke-width="1">
        <path d="M0,0H139.942a0,0,0,0,1,0,0V79.036a20,20,0,0,1-20,20H0a0,0,0,0,1,0,0V0A0,0,0,0,1,0,0Z" stroke="none"/>
        <path d="M1,.5H138.942a.5.5,0,0,1,.5.5V79.036a19.5,19.5,0,0,1-19.5,19.5H1a.5.5,0,0,1-.5-.5V1A.5.5,0,0,1,1,.5Z" fill="none"/>
      </g>
      <g id="Rectangle_26-2" data-name="Rectangle 26" transform="translate(1232.019 815.856)" fill="#fff" stroke="#707070" stroke-width="1">
        <rect width="186.231" height="99.036" stroke="none"/>
        <rect x="0.5" y="0.5" width="185.231" height="98.036" fill="none"/>
      </g>
      <text id="Show_Answer_2" data-name="Show Answer
" transform="translate(1264.854 875.998)" font-size="21" font-family="Kanit-Regular, Kanit"><tspan x="0" y="0">Show Answer</tspan><tspan x="0" y="31"></tspan></text>
      <text id="_05" data-name="05" transform="translate(1301.854 761.15)" fill="#151515" font-size="87" font-family="Kanit-SemiBold, Kanit" font-weight="600"><tspan x="-51.417" y="0">05</tspan></text>
      <path id="css3-2" data-name="css3" d="M0,0H86.628L78.749,88.95,43.219,99,7.887,88.946ZM70.5,18.2l-54.369-.012.879,10.816,41.767.008-1.052,11.2H30.332l.99,10.614h25.5l-1.51,14.533-12,3.317L31.116,65.342l-.776-8.7H19.574l1.2,15.9,22.544,7.025,22.164-6.311L70.5,18.208Z" transform="translate(1140.796 339.765)" fill="#264de4"/>
      <g id="Icon-2" data-name="Icon" transform="translate(16.882 49.122)">
        <g transform="matrix(0.94, -0.34, 0.34, 0.94, 575.8, 397.48)" filter="url(#css3)">
          <path id="css3-3" data-name="css3" d="M0,0H86.628L78.749,88.95,43.219,99,7.887,88.946ZM70.5,18.2l-54.369-.012.879,10.816,41.767.008-1.052,11.2H30.332l.99,10.614h25.5l-1.51,14.533-12,3.317L31.116,65.342l-.776-8.7H19.574l1.2,15.9,22.544,7.025,22.164-6.311L70.5,18.208Z" transform="translate(551.6 87.07) rotate(20)" fill="#264de4"/>
        </g>
      </g>
      <g id="Arrow_Card-3" data-name="Arrow Card" transform="translate(-293.438 1158.815) rotate(-45)">
        <line id="Line_12-3" data-name="Line 12" y1="18.403" transform="translate(1231.895 817.528)" fill="none" stroke="#010101" stroke-linecap="round" stroke-width="1.2"/>
        <line id="Line_13-3" data-name="Line 13" x1="18.462" y1="0.085" transform="translate(1231.896 817.528)" fill="none" stroke="#010101" stroke-linecap="round" stroke-width="1.2"/>
      </g>
      <g id="Arrow_Card-4" data-name="Arrow Card" transform="translate(2945.208 573.141) rotate(135)">
        <line id="Line_12-4" data-name="Line 12" y1="18.401" transform="translate(1231.895 817.528)" fill="none" stroke="#010101" stroke-linecap="round" stroke-width="1.2"/>
        <line id="Line_13-4" data-name="Line 13" x1="18.46" y1="0.089" transform="translate(1231.896 817.528)" fill="none" stroke="#010101" stroke-linecap="round" stroke-width="1.2"/>
      </g>
    </g>
    <g id="Card-1" transform="translate(1321.059 -681.647) rotate(43)">
      <path id="Path_7-3" data-name="Path 7" d="M26.753,0H549.769a26.753,26.753,0,0,1,26.753,26.753V758.44a26.753,26.753,0,0,1-26.753,26.753H26.753A26.753,26.753,0,0,1,0,758.44V26.753A26.753,26.753,0,0,1,26.753,0Z" transform="translate(1091.302 283)" fill="#fff"/>
      <path id="Path_6-3" data-name="Path 6" d="M1737.084,93.222l.049,699.3s-73.309-97.106-270.967-191.782c-46.012-22.039-168.036,68.261-224.038,53.113-57.651-15.594-75.738-43.53-77.85-75.024-6.608-98.491,195.688-253.021,210.678-342.154,11.225-66.745,132.406-120.7,184.665-82.731C1567.7,159.819,1679.319,118.007,1737.084,93.222Z" transform="translate(-69.253 211.666)" fill="#e44d26" opacity="0.82"/>
      <text id="HTML" transform="translate(1373.544 418.258)" fill="#151515" font-size="50" font-family="Kanit-Bold, Kanit" font-weight="700"><tspan x="0" y="0">HTML</tspan></text>
      <text id="What_is_a_head_in_code_" data-name="What is a
&lt;head&gt; in code ?" transform="translate(1382.397 592.931)" fill="#151515" font-size="55" font-family="Kanit-Bold, Kanit" font-weight="700"><tspan x="-140.697" y="0">What do a </tspan><tspan x="-211.97" y="83">head in code ?</tspan></text>
      <g id="Rectangle_24-3" data-name="Rectangle 24" transform="translate(1092.64 945.131)" fill="#fff" stroke="#707070" stroke-width="1">
        <path d="M0,0H173.893a0,0,0,0,1,0,0V123.063a0,0,0,0,1,0,0H20a20,20,0,0,1-20-20V0A0,0,0,0,1,0,0Z" stroke="none"/>
        <path d="M1,.5H172.893a.5.5,0,0,1,.5.5V122.063a.5.5,0,0,1-.5.5H20a19.5,19.5,0,0,1-19.5-19.5V1A.5.5,0,0,1,1,.5Z" fill="none"/>
      </g>
      <g id="Rectangle_25-3" data-name="Rectangle 25" transform="translate(1497.944 945.131)" fill="#fff" stroke="#707070" stroke-width="1">
        <path d="M0,0H173.893a0,0,0,0,1,0,0V103.063a20,20,0,0,1-20,20H0a0,0,0,0,1,0,0V0A0,0,0,0,1,0,0Z" stroke="none"/>
        <path d="M1,.5H172.893a.5.5,0,0,1,.5.5V103.063a19.5,19.5,0,0,1-19.5,19.5H1a.5.5,0,0,1-.5-.5V1A.5.5,0,0,1,1,.5Z" fill="none"/>
      </g>
      <g id="Rectangle_26-3" data-name="Rectangle 26" transform="translate(1266.533 945.131)" fill="#fff" stroke="#707070" stroke-width="1">
        <rect width="231.411" height="123.063" stroke="none"/>
        <rect x="0.5" y="0.5" width="230.411" height="122.063" fill="none"/>
      </g>
      <text id="Show_Answer_3" data-name="Show Answer
" transform="translate(1301.636 1018.584)" font-size="28" font-family="Kanit-Regular, Kanit"><tspan x="0" y="0">Show Answer</tspan><tspan x="0" y="42"></tspan></text>
      <text id="_08" data-name="08" transform="translate(1380.636 881.861)" fill="#151515" font-size="111" font-family="Kanit-SemiBold, Kanit" font-weight="600"><tspan x="-70.152" y="0">08</tspan></text>
      <g transform="matrix(0.73, -0.68, 0.68, 0.73, 211.86, 892.43)" filter="url(#html5)">
        <path id="html5-2" data-name="html5" d="M0,0H102.055L92.773,104.791,50.916,116.634,9.3,104.786ZM34.169,47.383,33.041,34.174l48.884.015,1.118-12.742-64.032-.015L22.4,60.358h44.35l-1.584,16.65L51.027,80.915,36.667,76.978l-.914-10.254H23.074l1.6,20.27,26.35,7.047,26.141-7.013,3.616-39.641H34.169Z" transform="matrix(0.73, 0.68, -0.68, 0.73, 1064.11, 240.28)" fill="#e44d26"/>
      </g>
      <g id="Arrow_Card-5" data-name="Arrow Card" transform="translate(-277.967 1300.181) rotate(-45)">
        <line id="Line_12-5" data-name="Line 12" y1="23.632" transform="translate(1231.895 817.528)" fill="none" stroke="#010101" stroke-linecap="round" stroke-width="1.4"/>
        <line id="Line_13-5" data-name="Line 13" x1="23.708" y1="0.114" transform="translate(1231.896 817.528)" fill="none" stroke="#010101" stroke-linecap="round" stroke-width="1.4"/>
      </g>
      <g id="Arrow_Card-6" data-name="Arrow Card" transform="translate(3043.88 714.244) rotate(135)">
        <line id="Line_12-6" data-name="Line 12" y1="24.407" transform="translate(1231.895 817.528)" fill="none" stroke="#010101" stroke-linecap="round" stroke-width="1.4"/>
        <line id="Line_13-6" data-name="Line 13" x1="24.485" y1="0.118" transform="translate(1231.896 817.528)" fill="none" stroke="#010101" stroke-linecap="round" stroke-width="1.4"/>
      </g>
    </g>
  </g>
</svg>
