<svg xmlns="http://www.w3.org/2000/svg" xmlns:xlink="http://www.w3.org/1999/xlink" width="1533.998" height="1164.909" viewBox="0 0 1533.998 1164.909"><defs><filter id="a" x="34.101" y="150.563" width="204.374" height="204.374" filterUnits="userSpaceOnUse"><feOffset dx="15" dy="15" input="SourceAlpha"/><feGaussianBlur stdDeviation="10" result="b"/><feFlood flood-opacity="0.161"/><feComposite operator="in" in2="b"/><feComposite in="SourceGraphic"/></filter><filter id="c" x="521.468" y="75.218" width="179.434" height="187.098" filterUnits="userSpaceOnUse"><feOffset dx="15" dy="15" input="SourceAlpha"/><feGaussianBlur stdDeviation="10" result="d"/><feFlood flood-opacity="0.161"/><feComposite operator="in" in2="d"/><feComposite in="SourceGraphic"/></filter><filter id="e" x="1005.174" y="233.974" width="219.759" height="220.504" filterUnits="userSpaceOnUse"><feOffset dx="15" dy="15" input="SourceAlpha"/><feGaussianBlur stdDeviation="10" result="f"/><feFlood flood-opacity="0.161"/><feComposite operator="in" in2="f"/><feComposite in="SourceGraphic"/></filter></defs><g transform="translate(-867.371 -115.574)"><g transform="translate(867.371 322.449) rotate(-30)"><path d="M19.2,0H394.551a19.421,19.421,0,0,1,19.2,19.635v537a19.421,19.421,0,0,1-19.2,19.635H19.2A19.421,19.421,0,0,1,0,556.639v-537A19.421,19.421,0,0,1,19.2,0Z" transform="translate(0 0)" fill="#fff"/><path d="M409.87.546c.292,10.353,4.23,388.775-5.957,448.773-21.669,127.627-138.45-39.585-352.6-98.337-40.451-11.1-51.9-26.639-51.3-45.452C1.954,244.847,171.7,152.358,182.633,86.417,197.906-5.7,413.291-.915,409.87.546Z" transform="translate(3.841 77.991)" fill="#f7dc00" opacity="0.82"/><text transform="translate(204.233 94.141)" fill="#151515" font-size="34" font-family="Kanit-Bold, Kanit" font-weight="700"><tspan x="0" y="0">JavaScript</tspan></text><text transform="translate(223.308 180.301)" fill="#151515" font-size="37" font-family="Kanit-Bold, Kanit" font-weight="700"><tspan x="0" y="0"></tspan><tspan font-size="39"><tspan x="-70.512" y="58">What is </tspan><tspan x="-141.94" y="116">object.freeze()?</tspan></tspan></text><g transform="translate(0.952 488.657)" fill="#fff" stroke="#707070" stroke-width="1"><path d="M0,0H123.806a0,0,0,0,1,0,0V87.617a0,0,0,0,1,0,0H20a20,20,0,0,1-20-20V0A0,0,0,0,1,0,0Z" stroke="none"/><path d="M1,.5H122.806a.5.5,0,0,1,.5.5V86.617a.5.5,0,0,1-.5.5H20A19.5,19.5,0,0,1,.5,67.617V1A.5.5,0,0,1,1,.5Z" fill="none"/></g><g transform="translate(292.802 488.657)" fill="#fff" stroke="#707070" stroke-width="1"><path d="M0,0H123.806a0,0,0,0,1,0,0V67.617a20,20,0,0,1-20,20H0a0,0,0,0,1,0,0V0A0,0,0,0,1,0,0Z" stroke="none"/><path d="M1,.5H122.806a.5.5,0,0,1,.5.5V67.617a19.5,19.5,0,0,1-19.5,19.5H1a.5.5,0,0,1-.5-.5V1A.5.5,0,0,1,1,.5Z" fill="none"/></g><g transform="translate(124.326 488.657)" fill="#fff" stroke="#707070" stroke-width="1"><rect width="168.902" height="87.617" stroke="none"/><rect x="0.5" y="0.5" width="167.902" height="86.617" fill="none"/></g><g transform="translate(57.301 533.003) rotate(-45)"><line y1="16.449" fill="none" stroke="#010101" stroke-linecap="round" stroke-width="1"/><line x1="16.501" y1="0.076" transform="translate(0 0)" fill="none" stroke="#010101" stroke-linecap="round" stroke-width="1"/></g><text transform="translate(155.412 535.323)" font-size="18" font-family="Kanit-Regular, Kanit"><tspan x="0" y="0">Show answer</tspan><tspan x="0" y="27"></tspan></text><text transform="translate(208.809 426.93)" fill="#151515" font-size="75" font-family="Kanit-SemiBold, Kanit" font-weight="600"><tspan x="-37.875" y="0">01</tspan></text><g transform="translate(36.757 34.538)"><rect width="74.655" height="74.655" transform="translate(24.586 30.1)" fill="#151515"/><g transform="matrix(0.87, 0.5, -0.5, 0.87, 66.68, -213.7)" filter="url(#a)"><path d="M0,0H105.689V105.689H0ZM97.032,80.482c-.771-4.822-3.911-8.873-13.224-12.652-3.241-1.519-6.843-2.576-7.913-5.02a5.2,5.2,0,0,1-.2-3.1c.661-2.845,4.029-3.7,6.672-2.906a7.164,7.164,0,0,1,4.3,3.963c4.553-2.977,4.553-2.977,7.729-4.954a18.175,18.175,0,0,0-2.581-3.435c-2.774-3.1-6.469-4.69-12.48-4.553l-3.1.392a14.2,14.2,0,0,0-7.53,4.426c-5.02,5.685-3.571,15.594,2.506,19.689C77.21,76.818,86,77.8,87.123,82.037c1.057,5.152-3.831,6.8-8.658,6.209-3.571-.793-5.549-2.581-7.729-5.883l-8.059,4.628c.925,2.114,1.982,3.034,3.567,4.884,7.662,7.733,26.819,7.337,30.258-4.421a14.905,14.905,0,0,0,.326-7.266l.2.3Zm-39.559-31.9h-9.9c0,8.534-.04,17.016-.04,25.564,0,5.425.277,10.406-.608,11.938-1.453,3.034-5.2,2.647-6.9,2.114a8.5,8.5,0,0,1-3.655-3.765,3.778,3.778,0,0,0-.559-.863l-8.037,4.954a15.576,15.576,0,0,0,5.831,6.68,19.381,19.381,0,0,0,14.123,1.784,12.369,12.369,0,0,0,7.975-6.214c2.246-4.1,1.77-9.116,1.748-14.735.053-9.045,0-18.095,0-27.211l.018-.247Z" transform="translate(49.1 218.41) rotate(-30)" fill="#f7df1e"/></g></g><g transform="translate(361.569 532.486) rotate(135)"><line y1="16.824" fill="none" stroke="#010101" stroke-linecap="round" stroke-width="1"/><line x1="16.877" y1="0.077" transform="translate(0 0)" fill="none" stroke="#010101" stroke-linecap="round" stroke-width="1"/></g></g><g transform="translate(1410.556 132.873) rotate(20)"><path d="M22.308,0H458.435a22.308,22.308,0,0,1,22.308,22.308V632.439a22.308,22.308,0,0,1-22.308,22.308H22.308A22.308,22.308,0,0,1,0,632.439V22.308A22.308,22.308,0,0,1,22.308,0Z" transform="translate(0 0)" fill="#fff"/><path d="M455.119,0s.484,94.316,2.1,207.018c.487,33.843,1.672,9.842.445,102.814s1.891,227.136-5.354,269.071C427.052,725.114,322.2,481.216,72.547,413.909c-202.4-54.567,81.188-200.454,97.806-298.945C188.159,9.435,321.885,25.455,455.119,0Z" transform="translate(25.475 20.025)" fill="#264de4" opacity="0.82"/><text transform="translate(235.352 109.925)" fill="#151515" font-size="39" font-family="Kanit-Bold, Kanit" font-weight="700"><tspan x="0" y="0">CSS Style</tspan></text><text transform="translate(233.855 271.243)" fill="#151515" font-size="44" font-family="Kanit-Bold, Kanit" font-weight="700"><tspan x="-96.558" y="0">What is a </tspan><tspan x="-193.424" y="65">::before and ::after?</tspan></text><g transform="translate(1.115 552.129)" fill="#fff" stroke="#707070" stroke-width="1"><path d="M0,0H145a0,0,0,0,1,0,0V102.618a0,0,0,0,1,0,0H20a20,20,0,0,1-20-20V0A0,0,0,0,1,0,0Z" stroke="none"/><path d="M1,.5H144a.5.5,0,0,1,.5.5V101.618a.5.5,0,0,1-.5.5H20A19.5,19.5,0,0,1,.5,82.618V1A.5.5,0,0,1,1,.5Z" fill="none"/></g><g transform="translate(339.086 552.129)" fill="#fff" stroke="#707070" stroke-width="1"><path d="M0,0H145a0,0,0,0,1,0,0V82.618a20,20,0,0,1-20,20H0a0,0,0,0,1,0,0V0A0,0,0,0,1,0,0Z" stroke="none"/><path d="M1,.5H144a.5.5,0,0,1,.5.5V82.618a19.5,19.5,0,0,1-19.5,19.5H1a.5.5,0,0,1-.5-.5V1A.5.5,0,0,1,1,.5Z" fill="none"/></g><g transform="translate(146.119 552.129)" fill="#fff" stroke="#707070" stroke-width="1"><rect width="192.966" height="102.618" stroke="none"/><rect x="0.5" y="0.5" width="191.966" height="101.618" fill="none"/></g><text transform="translate(180.142 613.614)" font-size="21" font-family="Kanit-Regular, Kanit"><tspan x="0" y="0">Show Answer</tspan><tspan x="0" y="31"></tspan></text><text transform="translate(217.636 492.972)" fill="#151515" font-size="88" font-family="Kanit-SemiBold, Kanit" font-weight="600"><tspan x="-52.008" y="0">05</tspan></text><path d="M0,0H89.761L81.6,92.168,44.782,102.584,8.173,92.163ZM73.048,18.863,16.713,18.85l.91,11.207,43.278.009-1.09,11.609H31.429l1.026,11H58.879L57.315,67.731,44.876,71.168,32.241,67.706l-.8-9.019H20.282l1.24,16.478,23.359,7.279L67.847,75.9l5.2-57.037Z" transform="translate(51.597 58.819)" fill="#264de4"/><g transform="translate(51.597 58.819)"><g transform="matrix(0.94, -0.34, 0.34, 0.94, -567.94, 110.71)" filter="url(#c)"><path d="M0,0H89.761L81.6,92.168,44.782,102.584,8.173,92.163ZM73.048,18.863,16.713,18.85l.91,11.207,43.278.009-1.09,11.609H31.429l1.026,11H58.879L57.315,67.731,44.876,71.168,32.241,67.706l-.8-9.019H20.282l1.24,16.478,23.359,7.279L67.847,75.9l5.2-57.037Z" transform="translate(571.55 90.22) rotate(20)" fill="#264de4"/></g></g><g transform="translate(67.064 603.893) rotate(-45)"><line y1="19.068" transform="translate(0)" fill="none" stroke="#010101" stroke-linecap="round" stroke-width="1.2"/><line x1="19.129" y1="0.088" transform="translate(0 0)" fill="none" stroke="#010101" stroke-linecap="round" stroke-width="1.2"/></g><g transform="translate(419.698 604.235) rotate(135)"><line y1="19.066" transform="translate(0)" fill="none" stroke="#010101" stroke-linecap="round" stroke-width="1.2"/><line x1="19.127" y1="0.092" transform="translate(0 0)" fill="none" stroke="#010101" stroke-linecap="round" stroke-width="1.2"/></g></g><g transform="translate(1964.478 275.214) rotate(43)"><path d="M27.72,0H569.654a27.72,27.72,0,0,1,27.72,27.72V785.873a27.72,27.72,0,0,1-27.72,27.72H27.72A27.72,27.72,0,0,1,0,785.873V27.72A27.72,27.72,0,0,1,27.72,0Z" transform="translate(0 0)" fill="#fff"/><path d="M593.688,0l.051,724.6S517.778,623.98,312.971,525.879c-47.677-22.837-174.114,70.73-232.141,55.034C21.094,564.755,2.353,535.809.164,503.176-6.683,401.122,202.93,241,218.462,148.646c11.631-69.159,137.2-125.065,191.344-85.723C418.177,69.006,533.835,25.681,593.688,0Z" transform="translate(3.939 22.612)" fill="#e44d26" opacity="0.82"/><text transform="translate(292.45 139.161)" fill="#151515" font-size="51" font-family="Kanit-Bold, Kanit" font-weight="700"><tspan x="0" y="0">HTML</tspan></text><text transform="translate(296.997 361.283)" fill="#151515" font-size="56" font-family="Kanit-Bold, Kanit" font-weight="700"><tspan x="-122.892" y="0">What is a </tspan><tspan x="-215.824" y="84">&lt;head&gt; in code ?</tspan></text><g transform="translate(1.386 686.079)" fill="#fff" stroke="#707070" stroke-width="1"><path d="M0,0H180.182a0,0,0,0,1,0,0V127.514a0,0,0,0,1,0,0H20a20,20,0,0,1-20-20V0A0,0,0,0,1,0,0Z" stroke="none"/><path d="M1,.5H179.182a.5.5,0,0,1,.5.5V126.514a.5.5,0,0,1-.5.5H20a19.5,19.5,0,0,1-19.5-19.5V1A.5.5,0,0,1,1,.5Z" fill="none"/></g><g transform="translate(421.35 686.079)" fill="#fff" stroke="#707070" stroke-width="1"><path d="M0,0H180.182a0,0,0,0,1,0,0V107.514a20,20,0,0,1-20,20H0a0,0,0,0,1,0,0V0A0,0,0,0,1,0,0Z" stroke="none"/><path d="M1,.5H179.182a.5.5,0,0,1,.5.5V107.514a19.5,19.5,0,0,1-19.5,19.5H1a.5.5,0,0,1-.5-.5V1A.5.5,0,0,1,1,.5Z" fill="none"/></g><g transform="translate(181.568 686.079)" fill="#fff" stroke="#707070" stroke-width="1"><rect width="239.781" height="127.514" stroke="none"/><rect x="0.5" y="0.5" width="238.781" height="126.514" fill="none"/></g><text transform="translate(217.941 762.069)" font-size="29" font-family="Kanit-Regular, Kanit"><tspan x="0" y="0">Show Answer</tspan><tspan x="0" y="43"></tspan></text><text transform="translate(299.267 619.109)" fill="#151515" font-size="114" font-family="Kanit-SemiBold, Kanit" font-weight="600"><tspan x="-72.048" y="0">08</tspan></text><g transform="matrix(0.73, -0.68, 0.68, 0.73, -911.25, 631.47)" filter="url(#e)"><path d="M0,0H105.746L96.128,108.581,52.757,120.852,9.633,108.576ZM35.4,49.1,34.236,35.41l50.652.015,1.158-13.2L19.7,22.207l3.515,40.334H69.168L67.526,79.793,52.873,83.841l-14.88-4.079-.947-10.625H23.909l1.662,21,27.3,7.3,27.086-7.266L83.705,49.1H35.4Z" transform="matrix(0.73, 0.68, -0.68, 0.73, 1102.59, 248.97)" fill="#e44d26"/></g><g transform="translate(82.782 750.372) rotate(-45)"><line y1="24.487" fill="none" stroke="#010101" stroke-linecap="round" stroke-width="1.4"/><line x1="24.565" y1="0.119" transform="translate(0.001 0)" fill="none" stroke="#010101" stroke-linecap="round" stroke-width="1.4"/></g><g transform="translate(521.625 750.441) rotate(135)"><line y1="25.29" fill="none" stroke="#010101" stroke-linecap="round" stroke-width="1.4"/><line x1="25.371" y1="0.123" transform="translate(0.001 0)" fill="none" stroke="#010101" stroke-linecap="round" stroke-width="1.4"/></g></g></g></svg>