<svg xmlns="http://www.w3.org/2000/svg"  viewBox="0 0 1921.064 515.937">
  <g id="Group_157" data-name="Group 157" transform="translate(-532.9 -100.586)">
    <path id="Path_122" data-name="Path 122" d="M303.632,609.542a88.581,88.581,0,0,0,88.482-88.479V463.411h57.649a88.483,88.483,0,1,0,0-176.965H392.114V228.8a88.482,88.482,0,0,0-176.964,0v57.649H157.5a88.483,88.483,0,0,0,0,176.965H215.15v57.652A88.579,88.579,0,0,0,303.632,609.542ZM157.5,412.457a37.53,37.53,0,0,1,0-75.06h83.129A25.477,25.477,0,0,0,266.1,311.921V228.8a37.528,37.528,0,1,1,75.055,0v83.125A25.475,25.475,0,0,0,366.634,337.4h83.13a37.53,37.53,0,0,1,0,75.06h-83.13a25.477,25.477,0,0,0-25.476,25.477v83.129a37.528,37.528,0,0,1-75.055,0V437.934a25.475,25.475,0,0,0-25.477-25.477Z" transform="translate(463.885 -9.058)" fill="#34c972"/>
    <path id="Path_123" data-name="Path 123" d="M434.82,325.107a95.8,95.8,0,1,0-95.8-95.8A95.915,95.915,0,0,0,434.82,325.107Zm0-140.652A44.849,44.849,0,1,1,389.972,229.3,44.9,44.9,0,0,1,434.82,184.455Z" transform="translate(1761.075 -32.915)" fill="#c93434"/>
    <path id="Path_124" data-name="Path 124" d="M434.82,420.37a95.8,95.8,0,1,0-95.8-95.8A95.915,95.915,0,0,0,434.82,420.37Zm0-140.657a44.852,44.852,0,1,1-44.849,44.852A44.9,44.9,0,0,1,434.82,279.712Z" transform="translate(1761.075 196.153)" fill="#c93434"/>
    <path id="Path_125" data-name="Path 125" d="M578.258,276.935a95.807,95.807,0,1,0-95.8,95.8A95.914,95.914,0,0,0,578.258,276.935Zm-140.651,0a44.849,44.849,0,1,1,44.846,44.85A44.9,44.9,0,0,1,437.607,276.935Z" transform="translate(1875.706 81.679)" fill="#c93434"/>
    <path id="Path_126" data-name="Path 126" d="M291.386,276.935a95.8,95.8,0,1,0,95.8-95.8A95.914,95.914,0,0,0,291.386,276.935Zm140.658,0a44.852,44.852,0,1,1-44.853-44.852A44.9,44.9,0,0,1,432.043,276.935Z" transform="translate(1646.605 81.679)" fill="#c93434"/>
  </g>
</svg>
